<?xml version="1.0" standalone="no"?>
<!DOCTYPE svg PUBLIC "-//W3C//DTD SVG 20010904//EN"
 "http://www.w3.org/TR/2001/REC-SVG-20010904/DTD/svg10.dtd">
<svg version="1.0" xmlns="http://www.w3.org/2000/svg"
 width="600.000000pt" height="600.000000pt" viewBox="0 0 600.000000 600.000000"
 preserveAspectRatio="xMidYMid meet">
<metadata>
Created by potrace 1.11, written by Peter Selinger 2001-2013
</metadata>
<g transform="translate(0.000000,600.000000) scale(0.100000,-0.100000)"
fill="#000000" stroke="none">
<path d="M0 3000 l0 -3000 3000 0 3000 0 0 3000 0 3000 -3000 0 -3000 0 0
-3000z m4064 1586 c3 -17 6 -107 7 -201 1 -93 4 -196 6 -227 l5 -58 144 0 144
0 0 -120 0 -119 -150 6 -150 6 0 -169 c0 -93 3 -253 7 -356 l6 -188 221 -2
221 -3 6 -75 c4 -41 8 -104 10 -140 l3 -65 -240 -5 -239 -5 1 -360 1 -360 146
-3 147 -3 0 -124 0 -125 -42 -2 c-77 -3 -182 -7 -221 -7 l-38 -1 6 -271 7
-271 -143 6 c-79 3 -171 5 -203 6 l-59 0 7 280 7 280 -33 2 c-18 1 -40 2 -48
4 -8 1 -42 2 -76 3 l-60 1 -3 115 c-1 86 2 116 11 120 7 2 56 6 108 8 53 2
100 6 106 10 7 4 13 88 18 224 3 120 9 273 13 341 l6 122 -261 0 -262 0 0 -37
c-1 -21 -3 -78 -6 -128 -26 -481 -42 -851 -36 -857 4 -4 57 -9 117 -10 l110
-3 3 -117 3 -117 -133 -3 c-109 -3 -133 -6 -135 -18 -1 -8 -5 -54 -8 -103 l-7
-87 -141 4 c-78 2 -170 5 -204 5 l-63 1 0 110 0 110 -85 1 c-47 1 -89 3 -95 4
-5 1 -21 3 -35 4 l-26 1 3 113 3 112 125 8 c69 5 126 10 127 10 1 1 5 232 9
513 l7 511 -183 6 c-101 4 -221 7 -267 7 l-83 0 -1 -122 c-1 -68 -3 -134 -4
-148 -2 -14 -4 -113 -5 -220 l-2 -195 32 -6 c18 -4 77 -10 130 -14 l97 -7 7
-66 c3 -37 6 -91 6 -119 l0 -53 -87 -1 c-49 -1 -97 -2 -108 -3 -11 -1 -38 -3
-60 -4 l-40 -2 -1 -47 c-1 -27 -6 -145 -10 -263 l-9 -215 -110 2 c-60 2 -147
5 -191 9 l-82 6 6 268 5 269 -129 3 -129 3 0 120 0 120 131 -4 132 -3 7 335
c4 184 5 339 2 345 -4 5 -77 12 -164 16 -86 4 -160 9 -163 11 -3 2 -3 63 0
137 l5 133 163 3 162 2 1 63 c1 34 3 73 4 87 2 14 6 140 10 281 l7 257 -131
-6 -131 -5 0 111 0 111 133 3 132 3 8 123 c4 67 10 177 15 245 l7 122 185 3
185 2 0 -252 0 -253 123 -3 122 -3 0 -104 0 -105 -128 0 -129 0 -6 -137 c-4
-75 -7 -230 -7 -345 l0 -208 278 2 277 3 -3 220 c-1 121 -2 342 -2 492 l0 272
-112 3 -113 3 -3 107 -3 106 88 6 c48 4 103 9 121 12 l32 5 0 88 0 89 118 6
c64 4 154 9 200 12 l82 6 0 -96 0 -96 28 -2 c15 -1 36 -2 47 -3 11 -1 58 -3
104 -4 l84 -1 -6 -102 c-4 -57 -7 -109 -7 -115 0 -10 -25 -13 -92 -13 -51 0
-104 -3 -117 -7 l-23 -6 6 -126 c4 -69 11 -263 16 -431 6 -168 13 -333 17
-368 l6 -63 260 2 260 2 -7 186 c-12 336 -18 466 -21 479 -3 9 -36 12 -120 12
l-115 0 0 114 0 113 48 6 c26 4 75 9 110 13 l62 7 0 254 0 254 184 -2 185 -3
5 -30z m-2219 -4338 l7 -33 10 28 c5 15 13 27 18 27 5 0 13 -12 18 -27 l10
-28 7 33 c7 32 25 54 25 31 0 -24 -24 -89 -33 -89 -5 0 -11 9 -14 20 -7 28
-17 25 -30 -7 l-10 -28 -10 25 c-17 41 -26 93 -15 86 5 -3 13 -20 17 -38z
m150 0 l7 -33 10 28 c12 35 26 35 34 0 l7 -28 18 40 c20 46 24 31 7 -26 -12
-43 -27 -50 -35 -19 -3 11 -9 20 -13 20 -4 0 -10 -9 -13 -20 -3 -11 -9 -20
-14 -20 -9 0 -33 65 -33 89 0 23 18 1 25 -31z m169 -5 c3 15 11 27 16 27 5 0
13 -12 16 -27 l7 -28 18 40 c20 46 24 31 7 -26 -12 -43 -27 -50 -35 -19 -7 28
-17 25 -30 -7 l-10 -28 -10 25 c-6 14 -13 41 -17 60 l-6 35 18 -40 19 -40 7
28z m224 29 c3 -9 -3 -11 -22 -6 -33 8 -34 -9 -1 -24 14 -7 25 -20 25 -31 0
-27 -38 -38 -59 -16 -15 15 -14 16 10 10 35 -9 48 12 16 24 -33 13 -42 28 -26
47 14 17 50 15 57 -4z m62 -38 c0 -24 -4 -44 -10 -44 -5 0 -10 23 -10 51 0 31
4 48 10 44 6 -3 10 -26 10 -51z m77 -34 c32 0 22 -13 -12 -17 -24 -4 -25 -2
-23 54 2 57 2 57 5 11 4 -44 6 -48 30 -48z m113 80 c0 -5 -9 -10 -20 -10 -28
0 -26 -30 3 -31 l22 -1 -23 -6 c-30 -9 -33 -26 -4 -30 32 -5 27 -21 -5 -19
-26 2 -28 6 -31 55 l-3 52 30 0 c17 0 31 -4 31 -10z m87 -37 c11 -16 12 -16
12 9 2 51 21 41 21 -11 0 -59 -12 -64 -40 -18 l-20 32 0 -32 c0 -18 -4 -33
-10 -33 -11 0 -14 83 -3 94 7 7 13 1 40 -41z m133 37 c0 -5 -7 -10 -16 -10
-13 0 -15 -8 -12 -40 2 -22 0 -40 -4 -40 -5 0 -8 18 -8 40 0 29 -4 40 -15 40
-8 0 -15 5 -15 10 0 6 16 10 35 10 19 0 35 -4 35 -10z m100 1 c0 -5 -10 -11
-22 -13 -33 -5 -34 -28 -1 -29 l28 -2 -27 -4 c-35 -5 -37 -33 -3 -33 14 0 25
-4 25 -8 0 -5 -13 -7 -30 -4 -29 4 -30 6 -30 53 0 48 1 49 30 49 17 0 30 -4
30 -9z m103 -48 c9 -24 13 -43 8 -43 -5 0 -11 7 -15 15 -3 8 -12 15 -21 15 -9
0 -18 -7 -21 -15 -4 -8 -10 -15 -15 -15 -4 0 -2 15 5 33 7 17 16 41 20 51 8
24 18 14 39 -41z m101 51 c19 -7 21 -35 4 -52 -8 -8 -8 -15 2 -27 7 -8 8 -15
2 -15 -5 0 -16 10 -25 23 l-15 22 -10 -25 c-9 -22 -11 -18 -11 28 -1 54 9 63
53 46z m116 -4 c0 -5 -7 -10 -15 -10 -11 0 -16 -12 -17 -42 l-1 -43 -4 43 c-3
28 -9 42 -19 42 -8 0 -14 5 -14 10 0 6 16 10 35 10 19 0 35 -4 35 -10z m75
-40 c18 0 25 6 28 28 2 15 4 2 4 -28 0 -30 -2 -45 -4 -32 -3 15 -11 22 -28 22
-17 0 -25 -7 -28 -22 -2 -13 -4 2 -4 32 0 30 2 43 4 28 3 -22 10 -28 28 -28z
m118 -43 c18 -4 17 -5 -5 -6 -27 -1 -28 0 -26 52 l2 52 3 -47 c3 -39 8 -47 26
-51z m64 16 c-2 -16 -4 -3 -4 27 0 30 2 43 4 28 2 -16 2 -40 0 -55z m85 40
l23 -38 6 40 c6 39 6 39 8 -12 1 -61 -11 -67 -36 -20 l-17 32 -7 -35 c-6 -31
-7 -30 -8 18 0 28 1 52 3 52 2 0 15 -17 28 -37z m145 22 c2 -6 -9 -11 -24 -10
-25 0 -28 -4 -28 -30 1 -23 6 -31 23 -33 24 -4 32 22 10 31 -7 3 -3 6 10 6 26
1 29 -20 6 -43 -18 -19 -20 -19 -45 -6 -22 12 -26 69 -7 88 15 15 50 12 55 -3z
m161 -5 c3 -12 2 -12 -8 -3 -21 19 -40 3 -40 -34 0 -32 2 -35 25 -31 27 6 34
-6 10 -16 -30 -11 -45 5 -45 48 0 24 3 46 7 50 12 11 46 2 51 -14z m110 8 c20
-20 15 -76 -8 -88 -32 -17 -60 4 -60 43 0 50 38 75 68 45z m83 -25 l12 -38 13
32 c22 53 34 49 33 -9 -2 -49 -2 -50 -9 -18 -4 19 -8 30 -9 24 0 -5 -7 -19
-15 -29 -14 -19 -15 -19 -28 10 l-13 29 -6 -34 c-6 -31 -7 -29 -8 18 -1 61 12
68 30 15z"/>
<path d="M2611 4333 c-11 -12 -15 -13 -23 -1 -6 8 -7 4 -2 -12 5 -14 8 -40 8
-57 -1 -18 3 -33 8 -33 4 0 8 20 8 45 0 30 5 47 16 53 9 5 13 12 8 15 -5 3
-15 -2 -23 -10z"/>
<path d="M2840 4333 c6 -13 8 -23 5 -23 -3 0 2 -14 10 -30 9 -17 13 -35 10
-40 -3 -6 1 -10 9 -10 15 0 13 22 -5 46 -5 6 -6 14 -2 17 3 4 1 7 -6 7 -7 0
-10 4 -7 9 3 4 -1 17 -10 27 -14 18 -15 18 -4 -3z"/>
<path d="M2963 4343 c-15 -5 -17 -23 -4 -23 5 0 11 7 15 15 3 8 4 15 3 14 -1
0 -8 -3 -14 -6z"/>
<path d="M3203 4343 c-24 -5 -53 -33 -34 -33 6 0 11 5 11 10 0 6 11 8 25 4 19
-5 25 -2 25 10 0 9 -1 15 -2 15 -2 -1 -13 -4 -25 -6z"/>
<path d="M2681 4317 c1 -17 2 -18 6 -4 2 9 8 17 13 17 5 0 17 -8 26 -17 17
-17 18 -17 11 0 -3 9 -2 17 4 17 6 0 9 -10 7 -22 -2 -17 -9 -22 -25 -20 -13 2
-23 -1 -23 -6 0 -15 26 -33 35 -24 5 4 5 -1 2 -10 -4 -12 -1 -18 8 -18 18 0
19 12 3 28 -10 10 -10 15 0 21 8 5 12 19 10 32 -2 19 -10 24 -40 26 -33 2 -38
-1 -37 -20z m49 -47 c0 -5 -2 -10 -4 -10 -3 0 -8 5 -11 10 -3 6 -1 10 4 10 6
0 11 -4 11 -10z"/>
<path d="M2921 4285 c1 -30 5 -55 9 -55 4 0 7 25 6 55 0 30 -4 55 -8 55 -5 0
-8 -25 -7 -55z"/>
<path d="M3040 4285 c0 -30 4 -55 9 -55 4 0 8 25 7 55 -1 72 -16 72 -16 0z"/>
<path d="M3091 4333 c4 -24 -3 -43 -17 -43 -8 0 -13 -4 -10 -9 3 -4 16 -8 28
-7 18 1 23 7 23 30 0 16 -6 31 -13 34 -7 2 -12 0 -11 -5z m16 -35 c-3 -8 -6
-5 -6 6 -1 11 2 17 5 13 3 -3 4 -12 1 -19z"/>
<path d="M3270 4288 c0 -54 2 -58 23 -58 41 0 59 21 55 65 -3 36 -6 40 -32 43
-18 2 -26 0 -21 -7 3 -6 11 -9 16 -6 5 4 9 1 9 -5 0 -6 6 -8 13 -4 10 6 10 4
0 -7 -7 -7 -13 -20 -13 -28 0 -14 1 -14 10 -1 8 12 10 11 10 -7 0 -13 -6 -23
-12 -24 -7 0 -21 -2 -31 -4 -15 -3 -17 2 -14 35 2 21 0 45 -4 52 -5 8 -9 -10
-9 -44z"/>
<path d="M2813 4299 c-7 -17 -9 -38 -6 -46 4 -11 2 -14 -5 -9 -7 4 -12 2 -12
-4 0 -7 6 -10 13 -7 6 2 12 12 12 23 0 10 4 29 9 42 12 35 2 36 -11 1z"/>
<path d="M2980 4315 c0 -8 4 -15 8 -15 5 0 9 7 9 15 0 8 -4 15 -9 15 -4 0 -8
-7 -8 -15z"/>
<path d="M3170 4290 c20 -13 60 -13 60 0 0 6 -17 10 -37 10 -28 0 -34 -3 -23
-10z"/>
<path d="M2680 4260 c0 -16 4 -30 8 -30 5 0 7 14 4 30 -2 17 -6 30 -8 30 -2 0
-4 -13 -4 -30z"/>
<path d="M2950 4282 c0 -10 38 -13 44 -3 3 3 -6 8 -20 9 -13 1 -24 -2 -24 -6z"/>
<path d="M3165 4270 c-3 -5 -1 -10 4 -10 6 0 11 5 11 10 0 6 -2 10 -4 10 -3 0
-8 -4 -11 -10z"/>
<path d="M3160 4240 c0 -5 16 -10 35 -10 19 0 35 5 35 10 0 6 -16 10 -35 10
-19 0 -35 -4 -35 -10z"/>
<path d="M1730 4035 c0 -8 8 -11 20 -8 11 3 20 7 20 8 0 1 -9 5 -20 8 -12 3
-20 0 -20 -8z"/>
<path d="M1857 4043 c-10 -9 -9 -113 1 -113 5 0 9 27 9 60 1 62 1 64 -10 53z"/>
<path d="M2210 3990 l0 -60 34 0 c19 0 38 5 42 11 5 9 -4 10 -32 5 -28 -5 -35
-4 -24 3 10 7 11 11 3 11 -8 0 -13 14 -13 36 0 21 4 33 10 29 6 -3 10 -2 10 3
0 6 -7 12 -15 16 -12 4 -15 -5 -15 -54z"/>
<path d="M3687 4043 c-4 -3 -7 -11 -7 -17 0 -6 5 -5 12 2 6 6 9 14 7 17 -3 3
-9 2 -12 -2z"/>
<path d="M1772 4012 c-8 -18 -9 -29 -1 -36 6 -7 9 -7 8 -1 -2 6 1 20 5 33 11
33 3 36 -12 4z"/>
<path d="M2025 4029 c-19 -7 -18 -8 4 -8 20 -1 21 -3 11 -16 -15 -18 -37 -20
-43 -2 -2 6 -2 1 0 -12 4 -22 3 -23 -13 -10 -16 13 -16 12 -6 -8 15 -28 15
-36 0 -27 -7 4 -8 3 -4 -4 11 -18 26 -14 26 7 0 18 33 38 53 33 4 -1 7 9 7 22
0 30 -9 36 -35 25z"/>
<path d="M2116 4021 c-16 -17 -16 -19 1 -27 26 -11 53 -13 53 -3 0 5 -12 9
-26 9 -16 0 -24 5 -21 13 2 6 10 11 16 10 6 -2 11 2 11 7 0 16 -15 12 -34 -9z"/>
<path d="M2160 4030 c0 -5 5 -10 10 -10 6 0 10 5 10 10 0 6 -4 10 -10 10 -5 0
-10 -4 -10 -10z"/>
<path d="M2250 4031 c0 -5 9 -7 20 -4 11 3 20 7 20 9 0 2 -9 4 -20 4 -11 0
-20 -4 -20 -9z"/>
<path d="M3615 4030 c3 -5 8 -10 11 -10 2 0 4 5 4 10 0 6 -5 10 -11 10 -5 0
-7 -4 -4 -10z"/>
<path d="M3648 4033 c7 -3 16 -2 19 1 4 3 -2 6 -13 5 -11 0 -14 -3 -6 -6z"/>
<path d="M3743 4005 c0 -22 2 -30 4 -17 2 12 2 30 0 40 -3 9 -5 -1 -4 -23z"/>
<path d="M3800 4026 c-14 -14 -12 -70 2 -84 16 -16 25 -15 25 3 0 8 -4 12 -8
9 -14 -8 -20 16 -8 37 8 17 8 20 -1 14 -8 -5 -11 -3 -8 6 3 9 17 13 36 13 18
-1 29 2 26 7 -7 11 -51 8 -64 -5z"/>
<path d="M3923 4025 c-10 -11 -9 -17 9 -29 25 -18 58 -21 58 -6 0 6 -14 10
-31 10 -20 0 -29 4 -26 13 2 6 16 11 31 9 14 -1 26 1 26 6 0 14 -54 12 -67 -3z"/>
<path d="M4090 4033 c5 -2 10 -11 10 -19 0 -9 -4 -12 -10 -9 -5 3 -10 2 -10
-3 0 -5 -9 -12 -21 -15 -18 -5 -20 -2 -16 19 2 13 0 24 -4 24 -5 0 -9 -13 -9
-30 0 -30 16 -36 47 -17 10 6 11 0 8 -25 -3 -18 -3 -26 1 -18 3 8 10 25 16 36
12 26 7 56 -10 60 -7 1 -8 0 -2 -3z"/>
<path d="M4146 4024 c-4 -10 -2 -13 6 -8 8 5 9 2 5 -10 -5 -12 0 -19 16 -25
12 -5 25 -7 30 -4 4 2 7 -3 7 -11 0 -9 -4 -16 -9 -16 -5 0 -17 -3 -27 -7 -12
-4 -15 -3 -10 5 4 7 3 12 -3 12 -15 0 -24 -20 -9 -22 7 0 20 -2 28 -3 21 -2
40 14 40 35 0 20 -26 34 -43 23 -7 -3 -9 -3 -5 2 4 4 2 15 -5 23 -10 13 -8 14
16 8 16 -4 27 -2 27 4 0 16 -57 12 -64 -6z"/>
<path d="M1920 4010 c0 -5 5 -10 10 -10 6 0 10 5 10 10 0 6 -4 10 -10 10 -5 0
-10 -4 -10 -10z"/>
<path d="M3652 3975 c1 -25 6 -45 10 -45 4 0 8 20 8 45 0 25 -4 45 -10 45 -5
0 -9 -20 -8 -45z"/>
<path d="M1876 3992 c5 -5 23 -14 39 -21 l30 -13 -22 21 c-12 12 -30 21 -40
21 -10 0 -13 -3 -7 -8z"/>
<path d="M2233 3987 c0 -9 9 -12 24 -9 13 2 23 8 23 13 0 5 -10 9 -23 9 -13 0
-24 -6 -24 -13z"/>
<path d="M3840 3992 c0 -14 28 -47 35 -41 2 3 -5 15 -15 29 -11 14 -20 19 -20
12z"/>
<path d="M2100 3980 c0 -5 5 -10 11 -10 5 0 7 5 4 10 -3 6 -8 10 -11 10 -2 0
-4 -4 -4 -10z"/>
<path d="M3913 3975 c0 -7 6 -11 14 -8 7 3 13 6 13 8 0 2 -6 5 -13 8 -8 3 -14
-1 -14 -8z"/>
<path d="M2026 3961 c-7 -10 22 -37 30 -28 4 3 -1 13 -9 22 -9 8 -18 11 -21 6z"/>
<path d="M2116 3949 c2 -4 -2 -10 -8 -12 -7 -3 4 -6 24 -6 47 -1 58 16 14 21
-19 2 -33 1 -30 -3z"/>
<path d="M3740 3945 c0 -8 4 -15 10 -15 5 0 7 7 4 15 -4 8 -8 15 -10 15 -2 0
-4 -7 -4 -15z"/>
<path d="M4030 3945 c0 -8 4 -15 10 -15 5 0 7 7 4 15 -4 8 -8 15 -10 15 -2 0
-4 -7 -4 -15z"/>
<path d="M1920 3940 c0 -5 5 -10 11 -10 5 0 7 5 4 10 -3 6 -8 10 -11 10 -2 0
-4 -4 -4 -10z"/>
<path d="M3910 3938 c0 -4 18 -8 40 -8 22 0 40 4 40 9 0 5 -18 8 -40 8 -22 -1
-40 -5 -40 -9z"/>
<path d="M4100 3940 c0 -5 5 -10 11 -10 5 0 7 5 4 10 -3 6 -8 10 -11 10 -2 0
-4 -4 -4 -10z"/>
<path d="M1768 3933 c7 -3 16 -2 19 1 4 3 -2 6 -13 5 -11 0 -14 -3 -6 -6z"/>
<path d="M1658 3119 c-11 -6 -18 -22 -18 -40 0 -25 6 -33 36 -45 39 -16 38
-29 -3 -29 -36 0 -40 -23 -7 -35 31 -12 79 2 88 26 10 27 -12 62 -43 69 -17 4
-31 11 -31 17 0 6 10 8 24 4 33 -8 55 18 27 33 -24 14 -51 14 -73 0z"/>
<path d="M1820 3045 c0 -78 2 -85 20 -85 18 0 20 7 20 85 0 78 -2 85 -20 85
-18 0 -20 -7 -20 -85z"/>
<path d="M1940 3044 l0 -85 53 3 c44 3 52 6 52 23 0 15 -8 21 -32 23 -31 3
-32 4 -35 59 -2 45 -7 57 -20 59 -16 2 -18 -8 -18 -82z"/>
<path d="M2110 3040 l0 -80 55 0 c48 0 55 2 55 20 0 15 -7 20 -29 20 -17 0
-33 5 -36 10 -4 6 8 10 29 10 29 0 36 4 36 20 0 15 -7 20 -29 20 -17 0 -33 5
-36 10 -4 6 8 10 29 10 29 0 36 4 36 20 0 18 -7 20 -55 20 l-55 0 0 -80z"/>
<path d="M2290 3040 c0 -79 0 -80 26 -80 20 0 25 5 24 23 -4 41 0 42 20 10 12
-20 28 -33 40 -33 18 0 20 6 20 80 0 72 -2 80 -19 80 -15 0 -21 -8 -23 -32
l-4 -33 -19 32 c-13 22 -28 33 -42 33 -22 0 -23 -4 -23 -80z"/>
<path d="M2490 3100 c0 -13 7 -20 20 -20 18 0 20 -7 20 -60 0 -53 2 -60 20
-60 16 0 19 8 22 58 3 51 5 57 26 60 15 2 22 9 20 20 -3 13 -17 18 -66 20 -57
3 -62 1 -62 -18z"/>
<path d="M2770 3036 l0 -86 55 0 c48 0 55 3 55 19 0 15 -8 21 -32 23 -36 3
-36 23 0 23 15 -1 22 5 22 17 0 13 -8 18 -30 18 -40 0 -38 18 3 22 24 2 32 8
32 23 0 17 -8 20 -52 23 l-53 3 0 -85z"/>
<path d="M2985 3098 c-2 -7 -13 -38 -25 -68 -11 -30 -20 -61 -20 -67 0 -18 39
-16 46 2 4 8 14 15 24 15 10 0 20 -7 24 -15 7 -19 46 -20 46 -1 0 7 -11 42
-24 77 -18 48 -29 65 -45 67 -12 2 -23 -3 -26 -10z"/>
<path d="M3148 3103 c-2 -5 -3 -39 -3 -78 0 -65 2 -70 23 -73 17 -3 22 1 22
19 l0 22 23 -21 c22 -20 67 -31 67 -15 0 3 -8 15 -17 25 -13 14 -14 21 -5 30
16 16 15 71 0 86 -13 13 -105 17 -110 5z m75 -40 c9 -9 -13 -34 -24 -27 -14 8
-11 34 4 34 8 0 17 -3 20 -7z"/>
<path d="M3330 3090 c0 -13 7 -20 20 -20 18 0 20 -7 20 -60 0 -57 1 -60 25
-60 24 0 25 3 25 60 0 53 2 60 20 60 13 0 20 7 20 20 0 18 -7 20 -65 20 -58 0
-65 -2 -65 -20z"/>
<path d="M3520 3031 c0 -65 3 -81 15 -81 8 0 18 -1 22 -2 4 -2 10 11 13 27 3
17 11 30 20 30 9 0 17 -13 20 -30 3 -18 11 -30 20 -30 12 0 16 17 18 83 3 77
2 82 -18 82 -16 0 -20 -6 -20 -30 0 -23 -5 -30 -19 -30 -14 0 -21 8 -23 28 -2
19 -9 28 -25 30 -22 3 -23 1 -23 -77z"/>
<path d="M3724 3097 c-3 -8 -4 -45 -2 -83 l3 -69 44 -3 c56 -4 71 2 64 27 -4
15 -13 21 -34 21 -27 0 -28 2 -31 57 -2 46 -7 59 -21 61 -9 2 -20 -3 -23 -11z"/>
<path d="M3900 3020 c0 -73 2 -80 20 -80 18 0 20 7 20 80 0 73 -2 80 -20 80
-18 0 -20 -7 -20 -80z"/>
<path d="M4013 3023 c2 -73 4 -78 25 -81 19 -3 22 1 22 30 l0 33 21 -32 c12
-18 29 -33 40 -33 17 0 19 8 19 80 0 72 -2 80 -19 80 -15 0 -21 -8 -23 -32
l-3 -33 -18 33 c-12 22 -25 32 -41 32 -24 0 -24 -2 -23 -77z"/>
<path d="M4226 3078 c-22 -30 -20 -91 2 -118 13 -16 29 -23 51 -22 44 1 61 18
61 58 0 31 -3 34 -30 34 -20 0 -30 -5 -30 -15 0 -8 5 -15 10 -15 6 0 10 -4 10
-10 0 -14 -37 -13 -42 2 -2 6 -2 24 0 40 4 24 8 29 26 24 12 -3 28 -1 35 4 24
14 -6 40 -45 40 -23 0 -38 -7 -48 -22z"/>
<path d="M1757 2097 c-9 -30 -17 -57 -17 -60 0 -13 23 -7 35 9 10 15 13 15 27
0 24 -24 41 -20 34 7 -12 48 -37 97 -49 97 -7 0 -21 -24 -30 -53z"/>
<path d="M1870 2090 l0 -60 33 0 c41 0 57 15 57 55 0 43 -12 55 -53 61 l-37 4
0 -60z m58 -3 c2 -19 -1 -27 -12 -27 -11 0 -16 10 -16 31 0 38 24 35 28 -4z"/>
<path d="M1993 2085 c-20 -53 -20 -55 -2 -55 11 0 19 5 19 10 0 15 21 12 42
-7 28 -25 32 -8 12 49 -26 72 -46 73 -71 3z m47 1 c0 -3 -4 -8 -10 -11 -5 -3
-10 -1 -10 4 0 6 5 11 10 11 6 0 10 -2 10 -4z"/>
<path d="M2110 2081 c0 -56 13 -81 26 -48 6 16 46 15 52 -1 2 -7 10 -12 18
-12 12 0 14 12 12 57 -3 63 -21 80 -39 39 -15 -32 -21 -32 -34 -4 -21 45 -35
32 -35 -31z"/>
<path d="M3690 2076 c0 -8 7 -16 15 -20 10 -3 15 -19 15 -46 0 -29 4 -40 15
-40 11 0 15 12 15 45 0 33 4 45 15 45 8 0 15 7 15 15 0 11 -12 15 -45 15 -32
0 -45 -4 -45 -14z"/>
<path d="M3812 2078 c-16 -16 -16 -80 0 -96 7 -7 24 -12 38 -12 36 0 50 17 50
60 0 43 -14 60 -50 60 -14 0 -31 -5 -38 -12z m58 -48 c0 -32 -26 -43 -36 -15
-9 21 3 45 21 45 10 0 15 -10 15 -30z"/>
<path d="M3930 2030 c0 -47 3 -60 15 -60 8 0 15 6 15 13 0 6 11 12 25 12 14 0
25 -6 25 -12 0 -7 7 -13 15 -13 12 0 15 13 15 60 0 47 -3 60 -15 60 -8 0 -15
-4 -15 -8 0 -5 -6 -17 -14 -28 -14 -18 -15 -18 -25 9 -6 15 -17 27 -26 27 -12
0 -15 -13 -15 -60z"/>
<path d="M2700 1720 c0 -47 3 -60 15 -60 8 0 15 6 15 13 0 6 11 12 25 12 14 0
25 -6 25 -12 0 -7 7 -13 15 -13 12 0 15 13 15 60 0 47 -3 60 -15 60 -9 0 -20
-12 -26 -27 l-10 -28 -17 28 c-28 45 -42 34 -42 -33z"/>
<path d="M2852 1720 c-21 -59 -21 -60 -2 -60 11 0 20 5 20 10 0 6 9 10 20 10
11 0 20 -4 20 -10 0 -5 7 -10 15 -10 19 0 19 2 -2 67 -23 72 -43 70 -71 -7z"/>
<path d="M2940 1766 c0 -7 9 -16 20 -19 16 -4 20 -14 20 -46 0 -30 4 -41 15
-41 11 0 15 12 15 45 0 33 4 45 15 45 8 0 15 7 15 15 0 11 -12 15 -50 15 -36
0 -50 -4 -50 -14z"/>
<path d="M3060 1766 c0 -8 7 -16 15 -20 10 -3 15 -19 15 -46 0 -29 4 -40 15
-40 11 0 15 12 15 45 0 33 4 45 15 45 8 0 15 7 15 15 0 11 -12 15 -45 15 -32
0 -45 -4 -45 -14z"/>
<path d="M3030 245 c0 -8 4 -15 10 -15 5 0 7 7 4 15 -4 8 -8 15 -10 15 -2 0
-4 -7 -4 -15z"/>
<path d="M3120 255 c0 -9 9 -15 25 -15 16 0 25 6 25 15 0 9 -9 15 -25 15 -16
0 -25 -6 -25 -15z"/>
<path d="M3984 256 c-11 -29 0 -51 26 -51 21 0 25 5 25 30 0 24 -5 31 -23 33
-13 2 -24 -3 -28 -12z"/>
</g>
</svg>
