# Blender v2.77 (sub 0) OBJ File: ''
# www.blender.org
o Group_001
v -3.385827 2.795275 0.688976
v -3.503937 2.795275 -0.688976
v -3.503937 2.795275 0.688976
v -3.385827 2.795275 -0.688976
v -3.385827 0.000000 0.688976
v -3.385827 0.118110 0.570866
v -3.385827 0.000000 -0.688976
v -3.385827 0.118110 -0.570866
v -3.385827 2.677166 -0.570866
v -3.385827 2.677166 0.570866
v -3.503937 0.000000 -0.688976
v -3.503937 2.677166 0.570866
v -3.503937 0.000000 0.688976
v -3.503937 2.677166 -0.570866
v -3.503937 0.118110 -0.570866
v -3.503937 0.118110 0.570866
v 3.385827 2.677166 0.570866
v 3.503937 0.118110 0.570866
v 3.385827 0.118110 0.570866
v 3.503937 2.677166 0.570866
v 3.503937 2.677166 -0.570866
v 3.385827 2.677166 -0.570866
v 3.385827 0.118110 -0.570866
v 3.503937 0.118110 -0.570866
v 3.385827 2.795275 0.688976
v 3.385827 0.000000 0.688976
v 3.385827 2.795275 -0.688976
v 3.385827 0.000000 -0.688976
v 3.503937 2.795275 0.688976
v 3.503937 2.795275 -0.688976
v 3.503937 0.000000 0.688976
v 3.503937 0.000000 -0.688976
v -3.385827 2.795275 0.688976
v -3.385827 2.795275 0.688976
v -3.385827 2.795275 -0.688976
v -3.385827 2.795275 0.688976
v -3.385827 2.795275 -0.688976
v -3.385827 2.795275 -0.688976
v -3.503937 2.795275 -0.688976
v -3.385827 0.000000 -0.688976
v -3.385827 0.000000 -0.688976
v -3.503937 2.795275 -0.688976
v -3.385827 2.795275 -0.688976
v -3.503937 2.795275 0.688976
v -3.503937 2.795275 0.688976
v -3.503937 2.795275 -0.688976
v -3.503937 2.795275 -0.688976
v -3.503937 2.795275 -0.688976
v -3.503937 0.000000 -0.688976
v -3.503937 0.000000 -0.688976
v -3.503937 0.000000 -0.688976
v -3.503937 2.795275 -0.688976
v -3.385827 2.795275 0.688976
v -3.503937 0.000000 0.688976
v -3.385827 0.000000 0.688976
v -3.503937 0.000000 0.688976
v -3.385827 2.795275 0.688976
v -3.503937 2.795275 0.688976
v -3.385827 0.118110 0.570866
v -3.503937 0.118110 -0.570866
v -3.503937 0.118110 0.570866
v -3.503937 0.118110 -0.570866
v -3.385827 0.118110 0.570866
v -3.385827 0.118110 -0.570866
v -3.385827 2.677166 -0.570866
v -3.503937 0.118110 -0.570866
v -3.385827 0.118110 -0.570866
v -3.503937 0.118110 -0.570866
v -3.385827 2.677166 -0.570866
v -3.503937 2.677166 -0.570866
v -3.385827 2.677166 -0.570866
v -3.503937 2.677166 0.570866
v -3.503937 2.677166 -0.570866
v -3.503937 2.677166 0.570866
v -3.385827 2.677166 -0.570866
v -3.385827 2.677166 0.570866
v -3.503937 2.677166 0.570866
v -3.385827 0.118110 0.570866
v -3.503937 0.118110 0.570866
v -3.385827 0.118110 0.570866
v -3.503937 2.677166 0.570866
v -3.385827 2.677166 0.570866
v 3.385827 2.677166 0.570866
v 3.385827 2.677166 0.570866
v 3.503937 2.677166 0.570866
v 3.503937 0.118110 0.570866
v 3.385827 0.118110 0.570866
v 3.503937 0.118110 0.570866
v 3.503937 2.677166 -0.570866
v 3.385827 0.118110 -0.570866
v 3.503937 0.118110 -0.570866
v 3.385827 0.118110 -0.570866
v 3.503937 2.677166 -0.570866
v 3.385827 2.677166 -0.570866
v 3.385827 2.677166 0.570866
v 3.385827 2.677166 0.570866
v 3.385827 2.677166 0.570866
v 3.385827 2.677166 -0.570866
v 3.385827 2.677166 -0.570866
v 3.385827 0.118110 -0.570866
v 3.385827 0.118110 0.570866
v 3.385827 0.118110 0.570866
v 3.385827 2.677166 0.570866
v 3.385827 0.118110 0.570866
v 3.385827 0.118110 -0.570866
v 3.385827 0.118110 -0.570866
v 3.385827 2.795275 -0.688976
v 3.385827 2.795275 0.688976
v 3.385827 2.795275 -0.688976
v 3.503937 2.795275 0.688976
v 3.385827 0.000000 0.688976
v 3.385827 0.000000 0.688976
v 3.503937 2.795275 0.688976
v 3.385827 2.795275 0.688976
v 3.385827 2.795275 -0.688976
v 3.385827 0.000000 -0.688976
v 3.385827 2.795275 -0.688976
v 3.503937 2.795275 -0.688976
v 3.503937 0.000000 0.688976
v 3.503937 0.118110 0.570866
v 3.503937 2.795275 0.688976
v 3.503937 0.118110 0.570866
v 3.503937 0.000000 0.688976
v 3.503937 0.000000 -0.688976
v 3.503937 0.118110 0.570866
v 3.503937 0.000000 -0.688976
v 3.503937 0.118110 -0.570866
v 3.503937 0.118110 -0.570866
v 3.503937 0.000000 -0.688976
v 3.503937 2.677166 -0.570866
v 3.503937 2.795275 0.688976
v 3.503937 2.677166 0.570866
v 3.503937 2.795275 -0.688976
v 3.503937 2.677166 0.570866
v 3.503937 2.795275 0.688976
v 3.503937 0.118110 0.570866
v 3.503937 2.795275 -0.688976
v 3.503937 2.677166 0.570866
v 3.503937 2.677166 -0.570866
v 3.503937 2.795275 -0.688976
v 3.503937 2.677166 -0.570866
v 3.503937 0.000000 -0.688976
v -3.385827 0.000000 -0.688976
v -3.503937 0.000000 0.688976
v -3.503937 0.000000 -0.688976
v -3.503937 0.000000 0.688976
v -3.385827 0.000000 -0.688976
v -3.385827 0.000000 0.688976
v 3.503937 0.000000 -0.688976
v 3.385827 0.000000 0.688976
v 3.385827 0.000000 -0.688976
v 3.385827 0.000000 0.688976
v 3.503937 0.000000 -0.688976
v 3.503937 0.000000 0.688976
vt 0.0250 -0.0083
vt 0.0000 0.2833
vt 0.0000 -0.0083
vt 0.0250 0.2833
vt -0.0083 0.0000
vt 0.0167 0.0250
vt -0.0083 0.5917
vt 0.2833 0.0000
vt 0.2583 0.0250
vt 0.2583 0.5667
vt -0.0083 0.5917
vt 0.0167 0.5667
vt 0.2833 0.5917
vt -0.0083 0.5917
vt 0.2833 0.5917
vt 0.2833 0.5917
vt 0.0000 0.5917
vt -0.0250 0.0000
vt 0.0000 0.0000
vt -0.0250 0.0000
vt 0.0000 0.5917
vt -0.0250 0.5917
vt 0.0083 0.5917
vt -0.0167 0.5667
vt 0.0083 0.0000
vt 0.0083 0.5917
vt -0.2833 0.5917
vt -0.2833 0.5917
vt -0.2583 0.5667
vt -0.2833 0.5917
vt -0.2583 0.0250
vt -0.0167 0.0250
vt -0.2833 0.0000
vt -0.2833 0.0000
vt -0.2833 0.0000
vt -0.2833 0.5917
vt 0.0250 0.5917
vt 0.0000 0.0000
vt 0.0250 0.0000
vt 0.0000 0.0000
vt 0.0250 0.5917
vt 0.0000 0.5917
vt 0.0250 0.0167
vt 0.0000 0.2583
vt 0.0000 0.0167
vt 0.0000 0.2583
vt 0.0250 0.0167
vt 0.0250 0.2583
vt 0.0250 0.5667
vt 0.0000 0.0250
vt 0.0250 0.0250
vt 0.0000 0.0250
vt 0.0250 0.5667
vt 0.0000 0.5667
vt -1.4583 0.5667
vt -1.4833 0.0250
vt -1.4583 0.0250
vt -1.4833 0.5667
vt -0.0250 0.2583
vt 0.0000 0.0167
vt 0.0000 0.2583
vt 0.0000 0.0167
vt -0.0250 0.2583
vt -0.0250 0.0167
vt 0.0000 0.5667
vt -0.0250 0.0250
vt 0.0000 0.0250
vt -0.0250 0.0250
vt 0.0000 0.5667
vt -0.0250 0.5667
vt -1.4833 0.2583
vt -1.4583 0.0167
vt -1.4583 0.2583
vt -1.4583 0.0167
vt -1.4833 0.0167
vt 1.4833 0.0167
vt 1.4583 0.2583
vt 1.4583 0.0167
vt 1.4833 0.0167
vt 1.4833 0.2583
vt 1.4833 0.5667
vt 1.4583 0.0250
vt 1.4833 0.0250
vt 1.4583 0.0250
vt 1.4833 0.5667
vt 1.4583 0.5667
vt 0.0083 0.5917
vt -0.0167 0.5667
vt 0.0083 0.0000
vt -0.0167 0.5667
vt -0.2833 0.5917
vt -0.0167 0.5667
vt -0.2583 0.5667
vt -0.2583 0.5667
vt -0.2583 0.0250
vt -0.0167 0.0250
vt -0.2833 0.0000
vt -0.0167 0.0250
vt -0.0167 0.5667
vt -0.0167 0.0250
vt -0.2583 0.0250
vt -0.2583 0.0250
vt 1.4833 -0.0083
vt 1.4583 0.2833
vt 1.4583 -0.0083
vt 1.4583 0.2833
vt 1.4833 0.2833
vt 1.4833 0.5917
vt 1.4583 0.0000
vt 1.4833 0.0000
vt 1.4583 0.0000
vt 1.4833 0.5917
vt 1.4583 0.5917
vt -1.4583 0.5917
vt -1.4833 0.0000
vt -1.4583 0.0000
vt -1.4583 0.5917
vt -1.4833 0.5917
vt -0.0083 0.0000
vt 0.0167 0.0250
vt -0.0083 0.5917
vt 0.0167 0.0250
vt -0.0083 0.0000
vt 0.2833 0.0000
vt 0.0167 0.0250
vt 0.2833 0.0000
vt 0.2583 0.0250
vt 0.2583 0.0250
vt 0.2833 0.0000
vt 0.2583 0.5667
vt -0.0083 0.5917
vt 0.0167 0.5667
vt 0.2833 0.5917
vt 0.0167 0.5667
vt -0.0083 0.5917
vt 0.0167 0.0250
vt 0.2833 0.5917
vt 0.0167 0.5667
vt 0.2583 0.5667
vt 0.2833 0.5917
vt 0.2583 0.5667
vt 0.2833 0.0000
vt -0.0250 0.2833
vt 0.0000 -0.0083
vt 0.0000 0.2833
vt 0.0000 -0.0083
vt -0.0250 0.2833
vt -0.0250 -0.0083
vt -1.4833 0.2833
vt -1.4583 -0.0083
vt -1.4583 0.2833
vt -1.4583 -0.0083
vt -1.4833 0.2833
vt -1.4833 -0.0083
vn 0.0000 1.0000 0.0000
vn 1.0000 0.0000 0.0000
vn 0.0000 0.0000 -1.0000
vn -1.0000 0.0000 0.0000
vn 0.0000 0.0000 1.0000
vn 0.0000 -1.0000 0.0000
s off
f 1/1/1 2/2/1 3/3/1
f 2/2/1 1/1/1 4/4/1
f 5/5/2 6/6/2 33/7/2
f 6/6/2 5/5/2 7/8/2
f 6/6/2 7/8/2 8/9/2
f 8/9/2 7/8/2 9/10/2
f 34/11/2 10/12/2 35/13/2
f 10/12/2 36/14/2 6/6/2
f 37/15/2 10/12/2 9/10/2
f 38/16/2 9/10/2 7/8/2
f 39/17/3 40/18/3 11/19/3
f 41/20/3 42/21/3 43/22/3
f 44/23/4 12/24/4 13/25/4
f 12/24/4 45/26/4 46/27/4
f 12/24/4 47/28/4 14/29/4
f 14/29/4 48/30/4 15/31/4
f 13/25/4 16/32/4 49/33/4
f 16/32/4 13/25/4 12/24/4
f 50/34/4 16/32/4 15/31/4
f 51/35/4 15/31/4 52/36/4
f 53/37/5 54/38/5 55/39/5
f 56/40/5 57/41/5 58/42/5
f 59/43/1 60/44/1 61/45/1
f 62/46/1 63/47/1 64/48/1
f 65/49/5 66/50/5 67/51/5
f 68/52/5 69/53/5 70/54/5
f 17/55/3 18/56/3 19/57/3
f 18/56/3 17/55/3 20/58/3
f 71/59/6 72/60/6 73/61/6
f 74/62/6 75/63/6 76/64/6
f 77/65/3 78/66/3 79/67/3
f 80/68/3 81/69/3 82/70/3
f 21/71/6 83/72/6 22/73/6
f 84/74/6 21/71/6 85/75/6
f 86/76/1 23/77/1 87/78/1
f 23/77/1 88/79/1 24/80/1
f 89/81/5 90/82/5 91/83/5
f 92/84/5 93/85/5 94/86/5
f 25/87/4 95/88/4 26/89/4
f 96/90/4 25/87/4 27/91/4
f 97/92/4 27/91/4 98/93/4
f 99/94/4 27/91/4 100/95/4
f 26/89/4 101/96/4 28/97/4
f 102/98/4 26/89/4 103/99/4
f 28/97/4 104/100/4 105/101/4
f 28/97/4 106/102/4 27/91/4
f 29/103/1 107/104/1 108/105/1
f 109/106/1 29/103/1 30/107/1
f 110/108/5 111/109/5 31/110/5
f 112/111/5 113/112/5 114/113/5
f 115/114/3 32/115/3 116/116/3
f 32/115/3 117/117/3 118/118/3
f 119/119/2 120/120/2 121/121/2
f 122/122/2 123/123/2 124/124/2
f 125/125/2 126/126/2 127/127/2
f 128/128/2 129/129/2 130/130/2
f 131/131/2 132/132/2 133/133/2
f 134/134/2 135/135/2 136/136/2
f 137/137/2 138/138/2 139/139/2
f 140/140/2 141/141/2 142/142/2
f 143/143/6 144/144/6 145/145/6
f 146/146/6 147/147/6 148/148/6
f 149/149/6 150/150/6 151/151/6
f 152/152/6 153/153/6 154/154/6
