# Blender v2.77 (sub 0) OBJ File: ''
# www.blender.org
o Layer0_001
v -3.385827 2.795275 -0.688976
v -3.385827 2.775591 0.688976
v -3.385827 2.795275 0.688976
v -3.385827 2.401575 0.688976
v -3.385827 2.401575 -0.688976
v 3.385827 2.401575 -0.688976
v 0.000000 2.401575 0.688976
v 3.385827 2.401575 0.688976
v 3.385827 2.775591 0.688976
v 3.385827 2.795275 0.688976
v 3.385827 2.795275 -0.688976
v -3.503937 2.401575 -0.688976
v -3.503937 2.795275 -0.688976
v -3.503937 2.795275 -0.767717
v -3.503937 2.401575 -0.767717
v 3.503937 2.401575 -0.767717
v 3.503937 2.795275 -0.767717
v 3.503937 2.795275 -0.688976
v 3.503937 2.401575 -0.688976
v 3.503937 2.401575 0.767717
v 0.000000 2.401575 0.767717
v 3.503937 2.401575 0.688976
v 3.503937 2.775591 0.688976
v 0.000000 2.775591 0.767717
v -3.503937 2.401575 0.767717
v -3.503937 2.775591 0.767717
v -3.503937 2.775591 0.688976
v -3.503937 2.401575 0.688976
v 3.503937 2.775591 0.767717
v 3.543307 2.913386 0.807087
v -3.543307 2.913386 -0.807087
v -3.543307 2.913386 0.807087
v 3.543307 2.913386 -0.807087
v -3.543307 2.795275 0.807087
v -3.543307 2.795275 -0.807087
v 3.543307 2.795275 -0.807087
v 3.543307 2.795275 0.807087
v -3.385827 2.401575 0.688976
v -3.385827 2.401575 -0.688976
v -3.385827 2.401575 0.688976
v 3.385827 2.401575 -0.688976
v 3.385827 2.401575 0.688976
v 3.385827 2.401575 -0.688976
v 3.385827 2.401575 -0.688976
v -3.385827 2.795275 -0.688976
v -3.385827 2.401575 -0.688976
v -3.385827 2.795275 -0.688976
v -3.503937 2.401575 -0.688976
v -3.503937 2.795275 -0.688976
v -3.503937 2.401575 -0.688976
v -3.503937 2.795275 -0.767717
v -3.503937 2.401575 -0.767717
v -3.503937 2.795275 -0.767717
v 3.503937 2.401575 -0.767717
v 3.503937 2.401575 -0.767717
v 3.503937 2.795275 -0.767717
v 3.503937 2.795275 -0.688976
v 3.385827 2.401575 -0.688976
v 3.503937 2.401575 -0.688976
v 3.385827 2.401575 -0.688976
v 3.503937 2.795275 -0.688976
v 3.385827 2.795275 -0.688976
v 3.503937 2.401575 -0.767717
v -3.503937 2.401575 -0.688976
v -3.503937 2.401575 -0.767717
v -3.503937 2.401575 -0.688976
v 3.503937 2.401575 -0.767717
v -3.385827 2.401575 -0.688976
v -3.385827 2.401575 -0.688976
v 3.503937 2.401575 -0.767717
v 3.503937 2.401575 -0.767717
v 3.503937 2.401575 -0.688976
v 3.385827 2.775591 0.688976
v 3.503937 2.401575 0.688976
v 3.385827 2.401575 0.688976
v 3.503937 2.401575 0.688976
v 3.385827 2.775591 0.688976
v 0.000000 2.401575 0.767717
v -3.503937 2.401575 0.767717
v -3.503937 2.775591 0.767717
v -3.503937 2.401575 0.767717
v 0.000000 2.401575 0.767717
v 3.503937 2.401575 0.767717
v 0.000000 2.401575 0.767717
v 3.503937 2.401575 0.688976
v 3.503937 2.775591 0.767717
v 3.503937 2.401575 0.767717
v 3.503937 2.775591 0.767717
v 3.503937 2.401575 0.688976
v 3.503937 2.775591 0.688976
v 3.503937 2.795275 -0.767717
v -3.503937 2.795275 -0.688976
v -3.503937 2.795275 -0.767717
v -3.503937 2.795275 -0.688976
v 3.503937 2.795275 -0.767717
v -3.385827 2.795275 -0.688976
v -3.385827 2.795275 -0.688976
v 3.503937 2.795275 -0.767717
v -3.385827 2.795275 0.688976
v -3.385827 2.795275 0.688976
v 3.503937 2.795275 -0.767717
v 3.385827 2.795275 -0.688976
v 3.385827 2.795275 -0.688976
v 3.503937 2.795275 -0.767717
v 3.503937 2.795275 -0.688976
v 3.385827 2.795275 0.688976
v -3.385827 2.795275 0.688976
v 3.385827 2.795275 -0.688976
v 0.000000 2.775591 0.767717
v -3.503937 2.775591 0.688976
v -3.503937 2.775591 0.767717
v -3.503937 2.775591 0.688976
v 0.000000 2.775591 0.767717
v -3.385827 2.775591 0.688976
v -3.385827 2.775591 0.688976
v 0.000000 2.775591 0.767717
v 3.385827 2.775591 0.688976
v 3.385827 2.775591 0.688976
v 0.000000 2.775591 0.767717
v 3.503937 2.775591 0.767717
v 3.385827 2.775591 0.688976
v 3.503937 2.775591 0.767717
v 3.503937 2.775591 0.688976
v 3.385827 2.795275 0.688976
v -3.385827 2.775591 0.688976
v 3.385827 2.775591 0.688976
v -3.385827 2.775591 0.688976
v 3.385827 2.795275 0.688976
v -3.385827 2.795275 0.688976
v -3.503937 2.775591 0.688976
v -3.385827 2.401575 0.688976
v -3.503937 2.401575 0.688976
v -3.385827 2.401575 0.688976
v -3.503937 2.775591 0.688976
v -3.385827 2.775591 0.688976
v -3.385827 2.401575 0.688976
v -3.503937 2.401575 0.767717
v -3.503937 2.401575 0.688976
v -3.503937 2.401575 0.767717
v -3.385827 2.401575 0.688976
v -3.385827 2.401575 0.688976
v -3.543307 2.913386 -0.807087
v -3.543307 2.913386 0.807087
v -3.543307 2.913386 -0.807087
v -3.543307 2.913386 -0.807087
v -3.543307 2.795275 -0.807087
v -3.543307 2.913386 -0.807087
v 3.543307 2.913386 -0.807087
v 3.503937 2.795275 -0.688976
v 3.385827 2.795275 0.688976
v 3.385827 2.795275 -0.688976
v -3.543307 2.795275 -0.807087
v -3.503937 2.795275 -0.767717
v -3.543307 2.795275 0.807087
v -3.503937 2.795275 -0.767717
v -3.543307 2.795275 -0.807087
v 3.543307 2.795275 -0.807087
v -3.503937 2.795275 -0.767717
v 3.543307 2.795275 -0.807087
v 3.503937 2.795275 -0.767717
v 3.503937 2.795275 -0.767717
v 3.543307 2.795275 -0.807087
v 3.503937 2.795275 -0.688976
v -3.543307 2.795275 0.807087
v -3.385827 2.795275 0.688976
v -3.385827 2.795275 0.688976
v -3.543307 2.795275 0.807087
v -3.503937 2.795275 -0.688976
v -3.503937 2.795275 -0.688976
v -3.543307 2.795275 0.807087
v -3.503937 2.795275 -0.767717
v -3.385827 2.795275 0.688976
v -3.503937 2.795275 -0.688976
v -3.385827 2.795275 -0.688976
v -3.385827 2.795275 0.688976
v 3.385827 2.795275 0.688976
v 3.385827 2.795275 0.688976
v 3.503937 2.795275 -0.688976
v 3.503937 2.795275 -0.688976
v 3.543307 2.795275 -0.807087
v 3.543307 2.913386 0.807087
v 3.543307 2.795275 0.807087
v 3.543307 2.913386 0.807087
v -3.543307 2.913386 0.807087
v 3.543307 2.795275 -0.807087
v 3.543307 2.913386 0.807087
v 3.543307 2.795275 0.807087
v 3.543307 2.913386 0.807087
v 3.543307 2.795275 -0.807087
v 3.543307 2.913386 -0.807087
vt -0.3167 0.5917
vt -0.0250 0.5875
vt -0.0250 0.5917
vt -0.0250 0.5083
vt -0.3167 0.5083
vt -1.4667 0.3167
vt -0.0333 0.0250
vt -0.0333 0.3167
vt -0.0333 0.0250
vt -0.7500 0.0250
vt -1.4667 0.0250
vt 0.3167 0.5083
vt 0.0250 0.5875
vt 0.0250 0.5083
vt 0.3167 0.5083
vt 0.0250 0.5917
vt 0.3167 0.5083
vt 0.3167 0.5917
vt 0.0333 0.5917
vt 0.0083 0.5083
vt 0.0333 0.5083
vt 0.0333 0.5917
vt 0.0083 0.5917
vt -0.3333 0.5917
vt -0.3167 0.5083
vt -0.3167 0.5917
vt -0.3167 0.5083
vt -0.3333 0.5083
vt -0.0083 0.5917
vt -1.4917 0.5083
vt -0.0083 0.5083
vt -0.0083 0.5917
vt -1.4917 0.5917
vt 0.3333 0.5083
vt 0.3167 0.5917
vt 0.3167 0.5083
vt 0.3333 0.5083
vt 0.3333 0.5917
vt 1.4917 0.5917
vt 1.4667 0.5083
vt 1.4917 0.5083
vt 1.4667 0.5083
vt 1.4917 0.5917
vt 1.4667 0.5917
vt -1.4917 0.3333
vt -0.0083 0.3167
vt -0.0083 0.3333
vt -0.0083 0.3167
vt -1.4917 0.3333
vt -0.0333 0.3167
vt -0.0333 0.3167
vt -1.4917 0.3333
vt -1.4917 0.3333
vt -1.4917 0.3167
vt -1.4917 0.0083
vt -0.7500 0.0083
vt -1.4917 0.0250
vt -1.4667 0.5875
vt -1.4917 0.5083
vt -1.4667 0.5083
vt -1.4917 0.5083
vt -1.4667 0.5875
vt -1.4917 0.5875
vt 0.7500 0.5875
vt 0.0083 0.5083
vt 0.7500 0.5083
vt 0.0083 0.5875
vt -0.0250 0.5875
vt -0.0083 0.5083
vt -0.0083 0.5875
vt -0.0083 0.5083
vt -0.0250 0.5083
vt 1.4917 0.5875
vt 0.7500 0.5083
vt 1.4917 0.5083
vt 0.7500 0.5083
vt 0.0250 0.5083
vt 0.0083 0.5875
vt 0.0083 0.5083
vt 0.0083 0.5875
vt 0.0250 0.5083
vt 0.0250 0.5875
vt -1.4917 0.3333
vt -0.0083 0.3167
vt -0.0083 0.3333
vt -0.0083 0.3167
vt -1.4917 0.3333
vt -0.0333 0.3167
vt -0.0333 0.3167
vt -1.4917 0.3333
vt -0.0333 0.0250
vt -0.0333 0.0250
vt -1.4917 0.3333
vt -1.4667 0.3167
vt -1.4667 0.3167
vt -1.4917 0.3333
vt -1.4917 0.3167
vt -1.4667 0.0250
vt -0.0333 0.0250
vt -1.4667 0.3167
vt 0.7500 0.0083
vt 0.0083 0.0250
vt 0.0083 0.0083
vt 0.0083 0.0250
vt 0.7500 0.0083
vt 0.0333 0.0250
vt 0.0333 0.0250
vt 0.7500 0.0083
vt 1.4667 0.0250
vt 1.4667 0.0250
vt 0.7500 0.0083
vt 1.4917 0.0083
vt 1.4667 0.0250
vt 1.4917 0.0083
vt 1.4917 0.0250
vt 1.4667 0.5917
vt 0.0333 0.5875
vt 1.4667 0.5875
vt 0.0333 0.5875
vt 1.4667 0.5917
vt 0.0333 0.5917
vt -0.0083 0.5875
vt -0.0333 0.5083
vt -0.0083 0.5083
vt -0.0333 0.5083
vt -0.0083 0.5875
vt -0.0333 0.5875
vt -0.0333 0.0250
vt -0.0083 0.0083
vt -0.0083 0.0250
vt -0.0083 0.0083
vt -0.0333 0.0250
vt -0.0333 0.0250
vt 1.5000 0.0000
vt 0.0000 0.3417
vt 0.0000 0.0000
vt 1.5000 0.3417
vt -0.3417 0.6167
vt -0.0000 0.5917
vt -0.0000 0.6167
vt -0.3417 0.6167
vt -0.3417 0.5917
vt -0.0000 0.6167
vt -1.5000 0.5917
vt -0.0000 0.5917
vt -0.0000 0.6167
vt -1.5000 0.6167
vt -1.4917 0.3167
vt -1.4667 0.0250
vt -1.4667 0.3167
vt 0.0000 0.3417
vt -0.0083 0.3333
vt 0.0000 0.0000
vt -0.0083 0.3333
vt 0.0000 0.3417
vt -1.5000 0.3417
vt -0.0083 0.3333
vt -1.5000 0.3417
vt -1.4917 0.3333
vt -1.4917 0.3333
vt -1.5000 0.3417
vt -1.4917 0.3167
vt 0.0000 0.0000
vt -0.0333 0.0250
vt -1.5000 0.0000
vt -0.0333 0.0250
vt 0.0000 0.0000
vt -0.0083 0.3167
vt -0.0083 0.3167
vt 0.0000 0.0000
vt -0.0083 0.3333
vt -0.0333 0.0250
vt -0.0083 0.3167
vt -0.0333 0.3167
vt -0.0333 0.0250
vt -1.4667 0.0250
vt -1.4667 0.0250
vt -1.4917 0.3167
vt -1.4917 0.3167
vt -1.5000 0.3417
vt 1.5000 0.6167
vt 1.5000 0.5917
vt 1.5000 0.6167
vt -0.0000 0.6167
vt 0.3417 0.5917
vt -0.0000 0.6167
vt -0.0000 0.5917
vt -0.0000 0.6167
vt 0.3417 0.5917
vt 0.3417 0.6167
vn -1.0000 0.0000 0.0000
vn 0.0000 -1.0000 0.0000
vn 1.0000 0.0000 0.0000
vn 0.0000 0.0000 1.0000
vn 0.0000 0.0000 -1.0000
vn 0.0000 -1.0000 -0.0004
vn 0.0000 1.0000 0.0000
s off
f 1/1/1 2/2/1 3/3/1
f 2/2/1 1/1/1 4/4/1
f 4/4/1 1/1/1 5/5/1
f 6/6/2 38/7/2 39/8/2
f 40/9/2 6/6/2 7/10/2
f 7/10/2 6/6/2 8/11/2
f 41/12/3 9/13/3 42/14/3
f 9/13/3 43/15/3 10/16/3
f 10/16/3 44/17/3 11/18/3
f 45/19/4 12/20/4 46/21/4
f 12/20/4 47/22/4 13/23/4
f 14/24/1 48/25/1 49/26/1
f 50/27/1 14/24/1 15/28/1
f 51/29/5 16/30/5 52/31/5
f 16/30/5 53/32/5 17/33/5
f 54/34/3 18/35/3 19/36/3
f 18/35/3 55/37/3 56/38/3
f 57/39/4 58/40/4 59/41/4
f 60/42/4 61/43/4 62/44/4
f 63/45/2 64/46/2 65/47/2
f 66/48/2 67/49/2 68/50/2
f 69/51/2 70/52/2 6/6/2
f 6/6/2 71/53/2 72/54/2
f 7/10/2 20/55/2 21/56/2
f 20/55/2 7/10/2 8/11/2
f 20/55/2 8/11/2 22/57/2
f 73/58/5 74/59/5 75/60/5
f 76/61/5 77/62/5 23/63/5
f 24/64/4 25/65/4 78/66/4
f 25/65/4 24/64/4 26/67/4
f 27/68/1 79/69/1 80/70/1
f 81/71/1 27/68/1 28/72/1
f 29/73/4 82/74/4 83/75/4
f 84/76/4 29/73/4 24/64/4
f 85/77/3 86/78/3 87/79/3
f 88/80/3 89/81/3 90/82/3
f 91/83/2 92/84/2 93/85/2
f 94/86/6 95/87/6 96/88/6
f 97/89/2 98/90/2 99/91/2
f 100/92/2 101/93/2 102/94/2
f 103/95/2 104/96/2 105/97/2
f 106/98/2 107/99/2 108/100/2
f 109/101/7 110/102/7 111/103/7
f 112/104/7 113/105/7 114/106/7
f 115/107/7 116/108/7 117/109/7
f 118/110/7 119/111/7 120/112/7
f 121/113/7 122/114/7 123/115/7
f 124/116/4 125/117/4 126/118/4
f 127/119/4 128/120/4 129/121/4
f 130/122/5 131/123/5 132/124/5
f 133/125/5 134/126/5 135/127/5
f 136/128/2 137/129/2 138/130/2
f 139/131/2 140/132/2 21/56/2
f 21/56/2 141/133/2 7/10/2
f 30/134/7 31/135/7 32/136/7
f 31/135/7 30/134/7 33/137/7
f 142/138/1 34/139/1 143/140/1
f 34/139/1 144/141/1 35/142/1
f 145/143/5 36/144/5 146/145/5
f 36/144/5 147/146/5 148/147/5
f 149/148/2 150/149/2 151/150/2
f 152/151/2 153/152/2 154/153/2
f 155/154/2 156/155/2 157/156/2
f 158/157/2 159/158/2 160/159/2
f 161/160/2 162/161/2 163/162/2
f 164/163/2 165/164/2 37/165/2
f 166/166/2 167/167/2 168/168/2
f 169/169/2 170/170/2 171/171/2
f 172/172/2 173/173/2 174/174/2
f 37/165/2 175/175/2 176/176/2
f 37/165/2 177/177/2 178/178/2
f 37/165/2 179/179/2 180/180/2
f 181/181/4 34/139/4 182/182/4
f 34/139/4 183/183/4 184/184/4
f 185/185/3 186/186/3 187/187/3
f 188/188/3 189/189/3 190/190/3
