# Blender v2.77 (sub 0) OBJ File: ''
# www.blender.org
o rdmobj00
v -0.027601 -0.500190 0.116306
v -0.027601 -0.237474 0.313267
v -0.500000 -0.500190 0.116306
v -0.500000 -0.237474 0.313267
v -0.027601 0.007430 0.096996
v -0.500000 0.007430 0.096996
v -0.027601 0.254560 0.313267
v -0.500000 0.254560 0.313267
v -0.027601 0.499464 0.137547
v -0.500000 0.499464 0.137547
v 0.037861 -0.500190 0.116306
v 0.500000 0.499464 0.137547
v 0.037861 0.499464 0.137547
v 0.500000 0.254560 0.313267
v 0.037861 0.254560 0.313267
v 0.500000 0.007430 0.096996
v 0.037861 0.007430 0.096996
v 0.037861 -0.237474 0.313267
v 0.500000 -0.237474 0.313267
v 0.500000 -0.500190 0.116306
v -0.027601 0.499464 0.137547
v -0.027601 0.499464 -0.120724
v -0.500000 0.499464 0.137547
v -0.500000 0.499464 -0.120724
v -0.500000 -0.500190 -0.120724
v -0.500000 -0.237474 0.090237
v -0.027601 -0.500190 -0.120724
v -0.027601 -0.237474 0.090237
v -0.500000 0.007430 -0.162723
v -0.027601 0.007430 -0.162723
v -0.500000 0.254560 0.090237
v -0.027601 0.254560 0.090237
v -0.500000 0.499464 -0.120724
v -0.027601 0.499464 -0.120724
v -0.027601 -0.500190 -0.120724
v -0.027601 -0.500190 0.116306
v -0.500000 -0.500190 -0.120724
v -0.500000 -0.500190 0.116306
v 0.500000 -0.500190 -0.120724
v 0.500000 -0.237474 0.090237
v 0.500000 -0.500190 0.116306
v 0.500000 -0.237474 0.313267
v 0.500000 0.007430 -0.162723
v 0.500000 0.007430 0.096996
v 0.500000 0.254560 0.090237
v 0.500000 0.254560 0.313267
v 0.500000 0.499464 -0.120724
v 0.500000 0.499464 0.137547
v -0.500000 -0.500190 0.116306
v -0.500000 -0.237474 0.313267
v -0.500000 -0.500190 -0.120724
v -0.500000 -0.237474 0.090237
v -0.500000 0.007430 0.096996
v -0.500000 0.007430 -0.162723
v -0.500000 0.254560 0.313267
v -0.500000 0.254560 0.090237
v -0.500000 0.499464 0.137547
v -0.500000 0.499464 -0.120724
v 0.037861 0.499464 0.137547
v 0.500000 0.499464 0.137547
v 0.037861 0.499464 -0.120724
v 0.500000 0.499464 -0.120724
v 0.037861 0.499464 -0.120724
v 0.500000 0.499464 -0.120724
v 0.037861 0.254560 0.090237
v 0.500000 0.254560 0.090237
v 0.500000 0.007430 -0.162723
v 0.037861 0.007430 -0.162723
v 0.037861 -0.237474 0.090237
v 0.500000 -0.237474 0.090237
v 0.037861 -0.500190 -0.120724
v 0.500000 -0.500190 -0.120724
v 0.037861 -0.500190 -0.120724
v 0.500000 -0.500190 -0.120724
v 0.037861 -0.500190 0.116306
v 0.500000 -0.500190 0.116306
v -0.027601 -0.500190 -0.120724
v 0.037861 -0.500190 -0.120724
v -0.027601 -0.500190 0.116306
v 0.037861 -0.500190 0.116306
v 0.037861 -0.500190 -0.674920
v -0.027601 -0.500190 -0.674920
v 0.037861 -0.237474 -0.674920
v -0.027601 -0.237474 -0.674920
v 0.037861 0.007430 -0.674920
v -0.027601 0.007430 -0.674920
v -0.027601 0.254560 -0.674920
v 0.037861 0.254560 -0.674920
v 0.037861 0.499464 -0.674920
v -0.027601 0.499464 -0.674920
v -0.027601 0.499464 0.137547
v 0.037861 0.499464 0.137547
v -0.027601 0.499464 -0.120724
v 0.037861 0.499464 -0.120724
v -0.027601 -0.500190 -0.674920
v -0.027601 -0.500190 -0.120724
v -0.027601 -0.237474 -0.674920
v -0.027601 -0.237474 0.090237
v -0.027601 0.007430 -0.674920
v -0.027601 0.007430 -0.162723
v -0.027601 0.254560 -0.674920
v -0.027601 0.254560 0.090237
v -0.027601 0.499464 -0.674920
v -0.027601 0.499464 -0.120724
v 0.037861 -0.500190 -0.120724
v 0.037861 -0.500190 -0.674920
v 0.037861 -0.237474 0.090237
v 0.037861 -0.237474 -0.674920
v 0.037861 0.007430 -0.162723
v 0.037861 0.007430 -0.674920
v 0.037861 0.254560 0.090237
v 0.037861 0.254560 -0.674920
v 0.037861 0.499464 -0.120724
v 0.037861 0.499464 -0.674920
v -0.027601 -1.415240 -0.224032
v -0.027601 -1.415240 -0.674920
v 0.037861 -1.415240 -0.224032
v 0.037861 -1.415240 -0.674920
v 0.037861 0.863480 -0.120724
v 0.037861 0.863480 -0.674920
v -0.027601 0.863480 -0.120724
v -0.027601 0.863480 -0.674920
v -0.027601 -0.500190 -0.120724
v -0.027601 -1.415240 -0.224032
v 0.037861 -0.500190 -0.120724
v 0.037861 -1.415240 -0.224032
v -0.027601 -0.500190 -0.674920
v -0.027601 -1.415240 -0.674920
v -0.027601 -0.500190 -0.120724
v -0.027601 -1.415240 -0.224032
v 0.037861 -0.500190 -0.674920
v 0.037861 -1.415240 -0.674920
v -0.027601 -0.500190 -0.674920
v -0.027601 -1.415240 -0.674920
v 0.037861 -0.500190 -0.120724
v 0.037861 -1.415240 -0.224032
v 0.037861 -0.500190 -0.674920
v 0.037861 -1.415240 -0.674920
v 0.029067 0.495011 0.136581
v 0.029067 0.706519 0.136581
v -0.018808 0.495011 0.136581
v -0.018808 0.706519 0.136581
v 0.037861 0.499464 -0.674920
v 0.037861 0.863480 -0.674920
v 0.037861 0.499464 -0.120724
v 0.037861 0.863480 -0.120724
v 0.029067 0.706519 0.136581
v 0.029067 0.495011 0.136581
v -0.027601 0.499464 -0.674920
v -0.027601 0.863480 -0.674920
v 0.037861 0.499464 -0.674920
v 0.037861 0.863480 -0.674920
v -0.027601 0.863480 -0.674920
v -0.027601 0.499464 -0.674920
v -0.027601 0.863480 -0.120724
v -0.027601 0.499464 -0.120724
v -0.018808 0.495011 0.136581
v -0.018808 0.706519 0.136581
v 0.037861 0.499464 -0.120724
v 0.029067 0.495011 0.136581
v -0.027601 0.499464 -0.120724
v -0.018808 0.495011 0.136581
v -0.027601 0.863480 -0.120724
v -0.018808 0.706519 0.136581
v 0.037861 0.863480 -0.120724
v 0.029067 0.706519 0.136581
vt 0.4700 -0.8350
vt 0.4700 -0.8698
vt 0.0039 -0.8350
vt 0.0039 -0.8698
vt 0.4700 -0.9035
vt 0.0039 -0.9035
vt 0.4700 -0.9376
vt 0.0039 -0.9376
vt 0.4700 -0.9696
vt 0.0039 -0.9696
vt 0.5350 -0.8350
vt 0.9958 -0.9696
vt 0.5350 -0.9696
vt 0.9958 -0.9376
vt 0.5350 -0.9376
vt 0.9958 -0.9035
vt 0.5350 -0.9035
vt 0.5350 -0.8698
vt 0.9958 -0.8698
vt 0.9958 -0.8350
vt 0.6883 -0.0103
vt 0.7320 -0.0103
vt 0.6883 -0.7871
vt 0.7320 -0.7871
vt 0.9555 -0.7871
vt 0.8992 -0.7871
vt 0.9555 -0.0103
vt 0.8992 -0.0103
vt 0.8413 -0.7871
vt 0.8413 -0.0103
vt 0.7840 -0.7871
vt 0.7840 -0.0103
vt 0.7320 -0.7871
vt 0.7320 -0.0103
vt 0.9555 -0.0103
vt 0.9926 -0.0103
vt 0.9555 -0.7871
vt 0.9926 -0.7871
vt 0.4023 -0.7838
vt 0.4593 -0.7838
vt 0.4023 -0.8151
vt 0.4593 -0.8151
vt 0.5162 -0.7838
vt 0.5162 -0.8151
vt 0.5754 -0.7838
vt 0.5754 -0.8151
vt 0.6322 -0.7838
vt 0.6322 -0.8151
vt 0.9555 -0.8168
vt 0.8992 -0.8168
vt 0.9555 -0.7871
vt 0.8992 -0.7871
vt 0.8413 -0.8168
vt 0.8413 -0.7871
vt 0.7840 -0.8168
vt 0.7840 -0.7871
vt 0.7320 -0.8168
vt 0.7320 -0.7871
vt 0.6705 -0.0096
vt 0.6705 -0.7838
vt 0.6322 -0.0096
vt 0.6322 -0.7838
vt 0.6322 -0.0096
vt 0.6322 -0.7838
vt 0.5754 -0.0096
vt 0.5754 -0.7838
vt 0.5162 -0.7838
vt 0.5162 -0.0096
vt 0.4593 -0.0096
vt 0.4593 -0.7838
vt 0.4023 -0.0096
vt 0.4023 -0.7838
vt 0.4023 -0.0096
vt 0.4023 -0.7838
vt 0.3611 -0.0096
vt 0.3611 -0.7838
vt 0.0515 -0.1667
vt 0.1217 -0.1667
vt 0.0515 -0.1912
vt 0.1217 -0.1912
vt 0.0239 -0.6383
vt 0.0239 -0.4582
vt 0.1075 -0.6383
vt 0.1075 -0.4582
vt 0.1851 -0.6383
vt 0.1851 -0.4582
vt 0.2637 -0.4582
vt 0.2637 -0.6383
vt 0.3417 -0.6383
vt 0.3417 -0.4582
vt 0.4700 -0.9696
vt 0.5350 -0.9696
vt 0.4700 -0.9932
vt 0.5350 -0.9932
vt 0.0239 -0.4582
vt 0.0239 -0.3232
vt 0.1075 -0.4582
vt 0.1075 -0.2726
vt 0.1851 -0.4582
vt 0.1851 -0.3342
vt 0.2637 -0.4582
vt 0.2637 -0.2734
vt 0.3417 -0.4582
vt 0.3417 -0.3250
vt 0.0239 -0.7716
vt 0.0239 -0.6383
vt 0.1075 -0.8231
vt 0.1075 -0.6383
vt 0.1851 -0.7624
vt 0.1851 -0.6383
vt 0.2637 -0.8241
vt 0.2637 -0.6383
vt 0.3417 -0.7734
vt 0.3417 -0.6383
vt 0.0515 -0.0535
vt 0.0515 -0.0126
vt 0.1217 -0.0535
vt 0.1217 -0.0126
vt 0.2127 -0.2133
vt 0.2127 -0.2566
vt 0.1579 -0.2133
vt 0.1579 -0.2566
vt 0.0515 -0.1667
vt 0.0515 -0.0535
vt 0.1217 -0.1667
vt 0.1217 -0.0535
vt 0.0039 -0.1667
vt 0.0039 -0.0535
vt 0.0515 -0.1667
vt 0.0515 -0.0535
vt 0.1686 -0.1667
vt 0.1686 -0.0535
vt 0.2388 -0.1667
vt 0.2388 -0.0535
vt 0.1217 -0.1667
vt 0.1217 -0.0535
vt 0.1686 -0.1667
vt 0.1686 -0.0535
vt 0.2127 -0.1727
vt 0.2127 -0.1898
vt 0.1579 -0.1727
vt 0.1579 -0.1898
vt 0.2499 -0.2566
vt 0.2127 -0.2566
vt 0.2499 -0.2133
vt 0.2127 -0.2133
vt 0.2127 -0.1898
vt 0.2306 -0.1898
vt 0.1579 -0.3029
vt 0.1579 -0.2566
vt 0.2127 -0.3029
vt 0.2127 -0.2566
vt 0.1579 -0.2566
vt 0.1219 -0.2566
vt 0.1579 -0.2133
vt 0.1219 -0.2133
vt 0.1422 -0.1898
vt 0.1579 -0.1898
vt 0.0000 -0.0000
vt 0.0000 -0.0000
vt 0.0000 -0.0000
vt 0.0000 -0.0000
vt 0.1579 -0.2133
vt 0.1579 -0.1898
vt 0.2127 -0.2133
vt 0.2127 -0.1898
vn -0.0019 -0.5990 0.8007
vn 0.0036 0.0392 0.9992
vn 0.0036 0.0391 0.9992
vn -0.0000 -0.0000 1.0000
vn 0.0037 -0.0829 0.9966
vn 0.0019 0.5814 0.8136
vn 0.0037 -0.0828 0.9966
vn 0.0037 0.0391 0.9992
vn -0.0000 1.0000 0.0022
vn 0.0019 0.6267 -0.7793
vn 0.0019 -0.0829 -0.9966
vn 0.0000 -0.0000 -1.0000
vn 0.0019 0.0829 -0.9966
vn 0.0019 -0.6502 -0.7598
vn 0.0000 -1.0000 0.0022
vn 1.0000 0.0000 0.0022
vn -1.0000 -0.0000 0.0022
vn 0.0018 0.6266 -0.7793
vn -1.0000 -0.0000 0.0066
vn 1.0000 -0.0000 0.0066
vn 0.0000 -0.1133 0.9936
vn 0.0000 -0.1134 0.9936
vn 1.0000 0.0000 0.0065
vn 0.9995 0.0000 0.0328
vn -0.9995 -0.0000 0.0328
vn -0.9995 -0.0000 0.0327
vn 0.0000 -0.9998 -0.0197
vn -0.0019 0.8534 0.5213
vn -0.0020 0.8534 0.5213
s 1
f 1/1/1 2/2/2 3/3/1
f 3/3/1 2/2/2 4/4/3
f 2/2/2 5/5/4 4/4/3
f 4/4/3 5/5/4 6/6/4
f 5/5/4 7/7/5 6/6/4
f 6/6/4 7/7/5 8/8/5
f 7/7/5 9/9/6 8/8/5
f 8/8/5 9/9/6 10/10/6
f 2/2/2 1/1/1 11/11/1
f 12/12/6 13/13/6 14/14/7
f 15/15/5 13/13/6 9/9/6
f 7/7/5 15/15/5 9/9/6
f 13/13/6 15/15/5 14/14/7
f 14/14/7 15/15/5 16/16/4
f 15/15/5 17/17/4 16/16/4
f 2/2/2 17/17/4 5/5/4
f 5/5/4 17/17/4 7/7/5
f 17/17/4 15/15/5 7/7/5
f 16/16/4 17/17/4 18/18/2
f 18/18/2 2/2/2 11/11/1
f 18/18/2 17/17/4 2/2/2
f 16/16/4 18/18/2 19/19/8
f 20/20/1 18/18/2 11/11/1
f 19/19/8 18/18/2 20/20/1
f 21/21/9 22/22/9 23/23/9
f 22/22/9 24/24/9 23/23/9
f 25/25/10 26/26/11 27/27/10
f 27/27/10 26/26/11 28/28/11
f 26/26/11 29/29/12 28/28/11
f 28/28/11 29/29/12 30/30/12
f 29/29/12 31/31/13 30/30/12
f 30/30/12 31/31/13 32/32/13
f 31/31/13 33/33/14 32/32/13
f 32/32/13 33/33/14 34/34/14
f 35/35/15 36/36/15 37/37/15
f 37/37/15 36/36/15 38/38/15
f 39/39/16 40/40/16 41/41/16
f 41/41/16 40/40/16 42/42/16
f 40/40/16 43/43/16 42/42/16
f 42/42/16 43/43/16 44/44/16
f 43/43/16 45/45/16 44/44/16
f 44/44/16 45/45/16 46/46/16
f 45/45/16 47/47/16 46/46/16
f 46/46/16 47/47/16 48/48/16
f 49/49/17 50/50/17 51/51/17
f 51/51/17 50/50/17 52/52/17
f 50/50/17 53/53/17 52/52/17
f 52/52/17 53/53/17 54/54/17
f 53/53/17 55/55/17 54/54/17
f 54/54/17 55/55/17 56/56/17
f 55/55/17 57/57/17 56/56/17
f 56/56/17 57/57/17 58/58/17
f 59/59/9 60/60/9 61/61/9
f 61/61/9 60/60/9 62/62/9
f 63/63/14 64/64/14 65/65/13
f 64/64/14 66/66/13 65/65/13
f 66/66/13 67/67/12 65/65/13
f 65/65/13 67/67/12 68/68/12
f 68/68/12 67/67/12 69/69/11
f 67/67/12 70/70/11 69/69/11
f 69/69/11 70/70/11 71/71/18
f 70/70/11 72/72/18 71/71/18
f 73/73/15 74/74/15 75/75/15
f 74/74/15 76/76/15 75/75/15
f 77/77/15 78/78/15 79/79/15
f 78/78/15 80/80/15 79/79/15
f 81/81/12 82/82/12 83/83/12
f 82/82/12 84/84/12 83/83/12
f 83/83/12 84/84/12 85/85/12
f 84/84/12 86/86/12 85/85/12
f 86/86/12 87/87/12 85/85/12
f 85/85/12 87/87/12 88/88/12
f 88/88/12 87/87/12 89/89/12
f 87/87/12 90/90/12 89/89/12
f 91/91/9 92/92/9 93/93/9
f 92/92/9 94/94/9 93/93/9
f 95/95/17 96/96/17 97/97/17
f 96/96/17 98/98/17 97/97/17
f 97/97/17 98/98/17 99/99/17
f 98/98/17 100/100/17 99/99/17
f 99/99/17 100/100/17 101/101/17
f 100/100/17 102/102/17 101/101/17
f 101/101/17 102/102/17 103/103/17
f 102/102/17 104/104/19 103/103/17
f 105/105/16 106/106/16 107/107/16
f 106/106/16 108/108/16 107/107/16
f 107/107/16 108/108/16 109/109/16
f 108/108/16 110/110/16 109/109/16
f 109/109/16 110/110/16 111/111/16
f 110/110/16 112/112/16 111/111/16
f 111/111/16 112/112/16 113/113/20
f 112/112/16 114/114/16 113/113/20
f 115/115/15 116/116/15 117/117/15
f 116/116/15 118/118/15 117/117/15
f 119/119/9 120/120/9 121/121/9
f 120/120/9 122/122/9 121/121/9
f 123/123/21 124/124/22 125/125/22
f 124/124/22 126/126/21 125/125/22
f 127/127/17 128/128/17 129/129/17
f 128/128/17 130/130/17 129/129/17
f 131/131/12 132/132/12 133/133/12
f 132/132/12 134/134/12 133/133/12
f 135/135/16 136/136/16 137/137/16
f 136/136/16 138/138/16 137/137/16
f 139/139/4 140/140/4 141/141/4
f 140/140/4 142/142/4 141/141/4
f 143/143/16 144/144/16 145/145/23
f 144/144/16 146/146/20 145/145/23
f 146/146/20 147/147/24 145/145/23
f 145/145/23 147/147/24 148/148/24
f 149/149/12 150/150/12 151/151/12
f 151/151/12 150/150/12 152/152/12
f 153/153/17 154/154/17 155/155/19
f 154/154/17 156/156/19 155/155/19
f 156/156/19 157/157/25 155/155/19
f 155/155/19 157/157/25 158/158/26
f 159/159/27 160/160/27 161/161/27
f 161/161/27 160/160/27 162/162/27
f 163/163/28 164/164/28 165/165/28
f 165/165/28 164/164/28 166/166/29
