# Blender v2.75 (sub 0) OBJ File: ''
# www.blender.org
o PART_10
v -1.690127 2.197955 -5.201762
v -3.214843 2.197955 -4.424875
v -4.609527 2.519691 -6.344515
v 0.000015 2.197955 -5.469453
v -2.423336 2.519691 -7.458465
v 1.690185 2.197955 -5.201762
v 0.000034 2.519691 -7.842231
v 0.000015 -2.628075 -7.842232
v -1.690127 -2.227578 -5.201763
v 0.000015 -2.227578 -5.469454
v 2.423420 -2.628075 -7.458402
v 1.690185 -2.227578 -5.201763
v 4.609604 -2.628075 -6.344509
v 3.214901 -2.227578 -4.424876
v 3.214901 2.197955 -4.424875
v 2.423439 2.519691 -7.458401
v 6.344568 -2.628075 -4.609545
v 4.424935 -2.227578 -3.214842
v 4.424935 2.197955 -3.214841
v 4.609624 2.519691 -6.344495
v 7.458467 -2.628076 -2.423360
v 5.201823 -2.227579 -1.690125
v 5.201823 2.197954 -1.690125
v 6.344575 2.519691 -4.609525
v 7.842298 -2.628076 0.000016
v 5.469513 -2.227579 0.000016
v -4.424877 2.197955 -3.214841
v -6.344498 2.519691 -4.609563
v -2.423362 -2.628075 -7.458402
v -3.214843 -2.227578 -4.424876
v 7.458467 2.519690 -2.423334
v 7.458467 -2.628076 2.423421
v -5.469455 2.197954 0.000017
v -5.201765 2.197954 1.690187
v -7.458467 2.519690 2.423403
v -5.201765 2.197954 -1.690125
v -7.842233 2.519690 0.000017
v -7.458404 2.519690 -2.423378
v -7.458404 -2.628076 -2.423360
v -5.469455 -2.227579 0.000016
v -5.201765 -2.227579 -1.690125
v -6.344511 -2.628075 -4.609545
v -4.424877 -2.227578 -3.214842
v -4.609547 -2.628075 -6.344509
v -7.645975 2.197955 -5.555099
v -5.555095 2.197955 -7.645972
v -2.920462 2.197956 -8.988381
v 0.000015 2.197956 -9.450908
v 0.000015 -2.306338 -9.450908
v 2.920533 -2.306338 -8.988381
v 5.555165 -2.306339 -7.645973
v 7.646039 -2.306339 -5.555099
v 2.920533 2.197956 -8.988381
v 8.988448 -2.306340 -2.920460
v 5.555165 2.197955 -7.645972
v 9.450974 -2.306340 0.000016
v 7.646039 2.197955 -5.555092
v 5.469513 2.197954 0.000017
v 8.988448 -2.306340 2.920535
v 5.201823 -2.227579 1.690187
v 5.201823 2.197954 1.690187
v 7.842298 2.519690 0.000037
v 6.344568 -2.628077 4.609606
v 4.424935 -2.227580 3.214916
v 4.424935 2.197953 3.214917
v 7.458467 2.519690 2.423441
v 4.609591 -2.628077 6.344570
v 3.214901 -2.227580 4.424936
v -4.424877 2.197953 3.214904
v -6.344530 2.519689 4.609588
v -7.842233 -2.628076 0.000016
v -5.201765 -2.227579 1.690187
v -8.988383 2.197954 -2.920473
v -2.920462 -2.306338 -8.988381
v 8.988448 2.197954 -2.920460
v 7.646039 -2.306341 5.555167
v 6.344556 2.519689 4.609626
v 2.423420 -2.628077 7.458469
v 3.214901 2.197953 4.424937
v 1.690185 -2.227580 5.201824
v -4.609566 2.519689 6.344558
v -7.458404 -2.628076 2.423421
v -7.645975 2.197953 5.555155
v -8.988383 2.197954 2.920522
v -9.450910 2.197954 0.000017
v -8.988383 -2.306340 -2.920473
v -7.645975 -2.306339 -5.555099
v -5.555095 -2.306339 -7.645973
v 9.450974 2.197954 0.000017
v 8.988448 2.197954 2.920535
v 7.646039 2.197953 5.555168
v 5.555152 -2.306341 7.646040
v 2.920520 -2.306342 8.988450
v 4.609585 2.519689 6.344590
v 0.000015 -2.628077 7.842299
v 1.690185 2.197953 5.201825
v 0.000015 -2.227580 5.469514
v -3.214856 2.197953 4.424937
v -4.424877 -2.227580 3.214903
v -5.555101 2.197953 7.646041
v -9.450910 -2.306340 0.000016
v 5.555152 2.197953 7.646041
v 0.000015 -2.306342 9.450976
v 2.423400 2.519689 7.458470
v -2.423368 -2.628077 7.458469
v -2.423381 2.519689 7.458470
v -6.344511 -2.628077 4.609606
v -2.920475 2.197952 8.988450
v -8.988383 -2.306340 2.920522
v -5.555101 -2.306341 7.646040
v -7.645975 -2.306341 5.555154
v 2.920520 2.197952 8.988450
v 0.000015 2.197952 9.450976
v -2.920475 -2.306342 8.988450
v 0.000015 2.197953 5.469515
v -1.690127 -2.227580 5.201824
v -1.690127 2.197953 5.201825
v 0.000015 2.519689 7.842300
v -4.609547 -2.628077 6.344570
v -3.214856 -2.227580 4.424936
vn -0.061700 -0.990700 -0.121200
vn -0.021300 -0.990700 -0.134300
vn 0.021300 -0.990700 -0.134300
vn -0.026400 0.985700 -0.166400
vn 0.026400 0.985700 -0.166400
vn 0.076500 0.985700 -0.150100
vn 0.061700 -0.990700 -0.121200
vn 0.119100 0.985700 -0.119100
vn 0.096200 -0.990700 -0.096200
vn 0.150100 0.985700 -0.076500
vn 0.121200 -0.990700 -0.061700
vn 0.166400 0.985700 -0.026400
vn -0.096200 -0.990700 -0.096200
vn -0.076500 0.985700 -0.150100
vn 0.166400 0.985700 0.026400
vn -0.134300 -0.990700 0.021300
vn -0.134300 -0.990700 -0.021300
vn -0.121200 -0.990700 -0.061700
vn -0.166400 0.985700 -0.026400
vn -0.150100 0.985700 -0.076500
vn -0.119100 0.985700 -0.119100
vn 0.140300 -0.980100 0.140300
vn 0.090100 -0.980100 0.176800
vn 0.031000 -0.980100 0.196000
vn -0.031000 -0.980100 0.196000
vn 0.031000 0.980100 0.196000
vn -0.031000 0.980100 0.196000
vn -0.090100 0.980100 0.176800
vn -0.140300 0.980100 0.140300
vn -0.090100 -0.980100 0.176800
vn -0.176800 0.980100 0.090100
vn -0.140300 -0.980100 0.140300
vn -0.196000 0.980100 0.031000
vn -0.176800 -0.980100 0.090100
vn 0.134300 -0.990700 -0.021300
vn -0.196000 0.980100 -0.031000
vn 0.134300 -0.990700 0.021300
vn 0.150100 0.985700 0.076500
vn 0.121200 -0.990700 0.061700
vn 0.119100 0.985700 0.119100
vn -0.121200 -0.990700 0.061700
vn -0.166400 0.985700 0.026400
vn 0.176800 -0.980100 0.090100
vn 0.090100 0.980100 0.176800
vn -0.176800 0.980100 -0.090100
vn 0.076500 0.985700 0.150100
vn 0.096200 -0.990700 0.096200
vn -0.096200 -0.990700 0.096200
vn 0.176800 -0.980100 -0.090100
vn 0.196000 -0.980100 -0.031000
vn 0.196000 -0.980100 0.031000
vn 0.196000 0.980100 0.031000
vn 0.176800 0.980100 0.090100
vn 0.140300 0.980100 0.140300
vn 0.891000 -0.000000 0.454000
vn 0.707100 -0.000000 0.707100
vn 0.454000 -0.000000 0.891000
vn 0.156400 0.000000 0.987700
vn -0.156400 0.000000 0.987700
vn -0.454000 -0.000000 0.891000
vn -0.707100 -0.000000 0.707100
vn -0.891000 0.000000 0.454000
vn -0.987700 -0.000000 0.156400
vn -0.987700 0.000000 -0.156400
vn -0.196000 -0.980100 0.031000
vn -0.891000 0.000000 -0.454000
vn -0.196000 -0.980100 -0.031000
vn -0.140300 0.980100 -0.140300
vn -0.176800 -0.980100 -0.090100
vn -0.090100 0.980100 -0.176800
vn 0.026400 0.985700 0.166400
vn 0.061700 -0.990700 0.121200
vn -0.150100 0.985700 0.076500
vn 0.140300 -0.980100 -0.140300
vn 0.196000 0.980100 -0.031000
vn 0.987700 0.000000 0.156400
vn -0.707100 0.000000 -0.707100
vn -0.031000 0.980100 -0.196000
vn -0.140300 -0.980100 -0.140300
vn -0.026400 0.985700 0.166400
vn -0.061700 -0.990700 0.121200
vn 0.090100 -0.980100 -0.176800
vn 0.707100 0.000000 -0.707100
vn 0.891000 0.000000 -0.454000
vn 0.987700 -0.000000 -0.156400
vn -0.454000 0.000000 -0.891000
vn -0.156400 0.000000 -0.987700
vn 0.031000 0.980100 -0.196000
vn -0.090100 -0.980100 -0.176800
vn 0.021300 -0.990700 0.134300
vn -0.021300 -0.990700 0.134300
vn -0.076500 0.985700 0.150100
vn -0.119100 0.985700 0.119100
vn 0.176800 0.980100 -0.090100
vn 0.454000 0.000000 -0.891000
vn 0.156400 0.000000 -0.987700
vn 0.090100 0.980100 -0.176800
vn 0.031000 -0.980100 -0.196000
vn 0.140300 0.980100 -0.140300
vn -0.031000 -0.980100 -0.196000
s off
f 1//1 2//1 3//1
f 4//2 1//2 5//2
f 6//3 4//3 7//3
f 8//4 9//4 10//4
f 11//5 10//5 12//5
f 13//6 12//6 14//6
f 15//7 6//7 16//7
f 17//8 14//8 18//8
f 19//9 15//9 20//9
f 21//10 18//10 22//10
f 23//11 19//11 24//11
f 25//12 22//12 26//12
f 2//13 27//13 28//13
f 29//14 30//14 9//14
f 2//13 28//13 3//13
f 1//1 3//1 5//1
f 4//2 5//2 7//2
f 6//3 7//3 16//3
f 8//4 29//4 9//4
f 11//5 8//5 10//5
f 13//6 11//6 12//6
f 17//8 13//8 14//8
f 15//7 16//7 20//7
f 21//10 17//10 18//10
f 19//9 20//9 24//9
f 25//12 21//12 22//12
f 23//11 24//11 31//11
f 32//15 25//15 26//15
f 33//16 34//16 35//16
f 36//17 33//17 37//17
f 27//18 36//18 38//18
f 39//19 40//19 41//19
f 42//20 41//20 43//20
f 44//21 43//21 30//21
f 27//18 38//18 28//18
f 29//14 44//14 30//14
f 3//22 28//22 45//22
f 5//23 3//23 46//23
f 7//24 5//24 47//24
f 16//25 7//25 48//25
f 49//26 29//26 8//26
f 50//27 8//27 11//27
f 51//28 11//28 13//28
f 52//29 13//29 17//29
f 20//30 16//30 53//30
f 54//31 17//31 21//31
f 24//32 20//32 55//32
f 56//33 21//33 25//33
f 31//34 24//34 57//34
f 58//35 23//35 31//35
f 59//36 25//36 32//36
f 32//15 26//15 60//15
f 61//37 58//37 62//37
f 63//38 60//38 64//38
f 65//39 61//39 66//39
f 67//40 64//40 68//40
f 34//41 69//41 70//41
f 71//42 72//42 40//42
f 34//41 70//41 35//41
f 33//16 35//16 37//16
f 36//17 37//17 38//17
f 39//19 71//19 40//19
f 42//20 39//20 41//20
f 44//21 42//21 43//21
f 28//43 38//43 73//43
f 74//44 44//44 29//44
f 28//43 73//43 45//43
f 3//22 45//22 46//22
f 5//23 46//23 47//23
f 7//24 47//24 48//24
f 16//25 48//25 53//25
f 49//26 74//26 29//26
f 50//27 49//27 8//27
f 51//28 50//28 11//28
f 52//29 51//29 13//29
f 54//31 52//31 17//31
f 20//30 53//30 55//30
f 56//33 54//33 21//33
f 24//32 55//32 57//32
f 59//36 56//36 25//36
f 31//34 57//34 75//34
f 58//35 31//35 62//35
f 76//45 59//45 32//45
f 63//38 32//38 60//38
f 61//37 62//37 66//37
f 67//40 63//40 64//40
f 65//39 66//39 77//39
f 78//46 67//46 68//46
f 79//47 65//47 77//47
f 78//46 68//46 80//46
f 69//48 81//48 70//48
f 71//42 82//42 72//42
f 35//49 70//49 83//49
f 37//50 35//50 84//50
f 38//51 37//51 85//51
f 86//52 71//52 39//52
f 87//53 39//53 42//53
f 88//54 42//54 44//54
f 38//51 85//51 73//51
f 74//44 88//44 44//44
f 45//55 73//55 86//55
f 46//56 45//56 87//56
f 47//57 46//57 88//57
f 48//58 47//58 74//58
f 53//59 48//59 49//59
f 48//58 74//58 49//58
f 53//59 49//59 50//59
f 55//60 50//60 51//60
f 57//61 51//61 52//61
f 75//62 52//62 54//62
f 55//60 53//60 50//60
f 89//63 54//63 56//63
f 57//61 55//61 51//61
f 90//64 56//64 59//64
f 75//62 57//62 52//62
f 62//65 31//65 75//65
f 91//66 59//66 76//66
f 76//45 32//45 63//45
f 66//67 62//67 89//67
f 92//68 63//68 67//68
f 77//69 66//69 90//69
f 93//70 67//70 78//70
f 79//47 77//47 94//47
f 95//71 78//71 80//71
f 96//72 79//72 94//72
f 95//71 80//71 97//71
f 69//48 98//48 81//48
f 82//73 99//73 72//73
f 70//74 81//74 100//74
f 101//75 82//75 71//75
f 70//74 100//74 83//74
f 35//49 83//49 84//49
f 37//50 84//50 85//50
f 86//52 101//52 71//52
f 87//53 86//53 39//53
f 88//54 87//54 42//54
f 73//76 85//76 101//76
f 47//57 88//57 74//57
f 73//76 101//76 86//76
f 45//55 86//55 87//55
f 46//56 87//56 88//56
f 89//63 75//63 54//63
f 90//64 89//64 56//64
f 91//66 90//66 59//66
f 62//65 75//65 89//65
f 102//77 91//77 76//77
f 92//68 76//68 63//68
f 66//67 89//67 90//67
f 93//70 92//70 67//70
f 77//69 90//69 91//69
f 103//78 93//78 78//78
f 94//79 77//79 91//79
f 103//78 78//78 95//78
f 96//72 94//72 104//72
f 105//80 95//80 97//80
f 98//81 106//81 81//81
f 82//73 107//73 99//73
f 81//82 108//82 100//82
f 101//75 109//75 82//75
f 83//83 100//83 110//83
f 84//84 83//84 111//84
f 85//85 84//85 109//85
f 85//85 109//85 101//85
f 94//79 91//79 102//79
f 102//77 76//77 92//77
f 112//86 92//86 93//86
f 113//87 93//87 103//87
f 114//88 103//88 95//88
f 104//89 94//89 102//89
f 115//90 96//90 104//90
f 114//88 95//88 105//88
f 105//80 97//80 116//80
f 117//91 115//91 118//91
f 98//81 117//81 106//81
f 119//92 116//92 120//92
f 107//93 120//93 99//93
f 81//82 106//82 108//82
f 109//94 107//94 82//94
f 100//95 108//95 114//95
f 100//95 114//95 110//95
f 83//83 110//83 111//83
f 84//84 111//84 109//84
f 112//86 102//86 92//86
f 113//87 112//87 93//87
f 108//96 113//96 103//96
f 108//96 103//96 114//96
f 104//89 102//89 112//89
f 115//90 104//90 118//90
f 110//97 114//97 105//97
f 119//92 105//92 116//92
f 117//91 118//91 106//91
f 107//93 119//93 120//93
f 106//98 113//98 108//98
f 109//94 111//94 107//94
f 111//99 110//99 119//99
f 118//100 112//100 113//100
f 118//100 104//100 112//100
f 110//97 105//97 119//97
f 106//98 118//98 113//98
f 111//99 119//99 107//99
