# Blender v2.75 (sub 0) OBJ File: ''
# www.blender.org
o Cube.002
v 0.132013 2.032601 -8.154912
v 0.130583 2.102668 -8.134450
v 0.285833 2.068507 -8.038217
v 0.285808 2.001127 -8.059013
v 0.232938 -0.228872 -0.289016
v 0.264028 -0.145604 -0.564737
v 0.264029 0.311508 -0.426692
v 0.232938 0.228242 -0.150970
v -0.212821 -0.138389 -0.588630
v -0.205728 -0.187675 -0.425430
v 0.001128 2.007089 -7.815045
v 0.279623 0.269450 -0.750623
v 0.279622 0.068722 -0.811242
v -0.268202 0.071122 -0.840469
v 0.028564 2.051112 -8.073927
v 0.028563 2.080058 -8.065185
v -0.005434 1.963684 -7.788577
v -0.679310 -0.085847 -0.978395
v -0.330283 0.263764 -0.785687
v -0.132960 1.884850 -7.714993
v -0.132028 1.914922 -7.709547
v -0.205728 0.269437 -0.287384
v -0.212821 0.318723 -0.450584
v -0.652631 -0.168640 -1.001925
v -0.645335 0.231596 -2.686913
v -0.672014 0.314385 -2.663370
v -0.330283 -0.898429 0.132420
v -0.679310 -0.904707 0.531575
v -0.652631 -0.886670 0.615736
v -0.268202 -0.856486 0.328259
v 0.285807 -8.136820 2.008241
v 0.130583 -8.237886 2.023045
v 0.130583 -8.251503 1.954016
v 0.285834 -8.150907 1.939159
v 0.264028 -0.511324 0.390394
v 0.264029 -0.603732 -0.078081
v 0.232939 -0.321157 -0.133821
v 0.232938 -0.228748 0.334654
v -0.212820 -0.535809 0.395223
v -0.205728 -0.368553 0.362231
v 0.001265 -7.922966 1.887895
v 0.279623 -0.870125 0.110957
v 0.279623 -0.829544 0.316674
v 0.117456 -7.939814 1.967092
v -0.005434 -7.880840 1.914594
v 0.028564 -8.173871 1.971174
v 0.028563 -8.179724 1.941509
v -0.132960 -7.778909 1.949730
v -0.132031 -7.788163 1.920610
v -0.205728 -0.460962 -0.106243
v -0.212820 -0.628219 -0.073251
v -0.645335 -2.562609 1.052312
v -0.672014 -2.580634 0.968149
v 0.390617 0.556208 0.643650
v 0.739644 0.328695 0.971678
v 0.712965 0.264990 1.029557
v 0.328536 0.407995 0.778353
v -0.070249 5.418734 6.457248
v -0.070250 5.470026 6.409088
v -0.225500 5.396653 6.338071
v -0.225474 5.345536 6.386650
v -0.172604 -0.102536 0.423918
v -0.203694 0.091292 0.627696
v -0.203695 0.439399 0.300849
v -0.172604 0.303964 0.205992
v 0.266062 -0.070031 0.406493
v 0.273155 0.108375 0.645890
v 0.059478 5.243414 6.163470
v -0.219289 0.545715 0.609713
v -0.219288 0.392853 0.753238
v -0.057122 5.209115 6.238071
v 0.065767 5.191786 6.161042
v 0.031769 5.396941 6.377790
v 0.031770 5.418986 6.357093
v 0.193290 5.088461 6.130176
v 0.192367 5.112952 6.111918
v 0.266063 0.336469 0.188566
v 0.273155 0.456483 0.319043
v 0.705669 1.372500 2.361021
v 0.732348 1.436195 2.303132
v -0.388755 -0.440543 0.499479
v -0.388755 -0.440540 -0.482633
v -0.401087 -0.184713 -0.230981
v -0.401087 -0.184713 0.247826
v -0.401087 0.302039 0.247826
v -0.388755 0.557868 0.499479
v -0.388755 0.557868 -0.482633
v -0.401087 0.302039 -0.230981
v -0.296070 -0.482425 -0.523834
v -0.296071 -0.482428 0.540679
v -0.296071 0.599751 0.540679
v -0.296070 0.599752 -0.523834
v 0.232571 -0.482426 -0.523834
v 0.232571 -0.482426 0.540679
v 0.232571 0.599752 0.540679
v 0.232571 0.599752 -0.523834
v 0.892346 -0.102882 -0.150485
v 0.892346 -0.102882 0.167331
v 0.892346 0.220208 0.167331
v 0.892346 0.220208 -0.150485
v -1.709072 -0.440542 -0.482633
v -1.709072 -0.440542 0.499479
v -1.709072 0.557868 0.499479
v -1.709072 0.557868 -0.482633
vn 0.014300 -0.380600 -0.924600
vn -0.015500 0.807500 -0.589600
vn 0.702100 0.686000 -0.191100
vn 0.694600 -0.492800 -0.524100
vn 0.750600 -0.651100 -0.112000
vn 0.678200 -0.668500 -0.305300
vn 0.676000 0.729300 0.105700
vn 0.750600 0.604300 0.267100
vn -0.633900 -0.713900 -0.297400
vn -0.631400 -0.749500 -0.198900
vn -0.253200 0.938600 0.234500
vn 0.756700 0.651900 0.050300
vn 0.772200 -0.571400 -0.277900
vn -0.324700 -0.937600 0.124400
vn -0.721100 -0.338800 -0.604300
vn -0.610200 0.745700 -0.267500
vn 0.416400 -0.880600 -0.226000
vn -0.833600 0.020000 0.552000
vn -0.656500 0.646700 0.388400
vn -0.437600 -0.791200 -0.427100
vn -0.890700 0.450100 -0.063800
vn -0.631400 0.734300 0.249200
vn -0.640000 0.759700 0.115100
vn -0.369100 -0.897100 0.242900
vn -0.362800 -0.890500 -0.274700
vn -0.934800 0.351700 0.049400
vn -0.656400 0.039900 -0.753400
vn -0.833600 0.478100 -0.276500
vn -0.373500 0.632800 0.678300
vn -0.323000 0.549600 0.770400
vn 0.685800 -0.243300 0.685900
vn -0.070800 -0.645500 0.760500
vn -0.011400 -0.898900 -0.438000
vn 0.701900 -0.493200 -0.513900
vn 0.678200 0.043800 0.733600
vn 0.676000 -0.248600 -0.693700
vn 0.750600 -0.047400 -0.659000
vn 0.750600 0.206400 0.627600
vn -0.633900 0.072100 0.770000
vn -0.631400 0.175800 0.755300
vn -0.254200 -0.233600 -0.938500
vn 0.756700 -0.261200 -0.599300
vn 0.774100 0.022700 0.632700
vn -0.046500 0.200900 0.978500
vn 0.334300 0.212900 0.918100
vn -0.710600 -0.369500 0.598800
vn -0.609500 -0.584400 -0.535700
vn -0.437700 -0.006400 0.899100
vn -0.890800 -0.267400 -0.367300
vn -0.631400 -0.124200 -0.765500
vn -0.640000 -0.254500 -0.725000
vn -0.362800 0.174900 0.915300
vn -0.934900 -0.121200 -0.333500
vn 0.656000 0.406700 -0.635800
vn 0.833600 -0.227500 -0.503300
vn 0.373500 -0.909500 0.182400
vn 0.323000 -0.895600 0.305800
vn 0.070900 0.083000 0.994000
vn 0.011100 0.985700 0.168100
vn -0.702700 0.699200 -0.131700
vn -0.685300 -0.199300 0.700500
vn -0.594800 -0.668500 0.446400
vn -0.675900 -0.488900 0.551400
vn -0.664400 0.591800 -0.456400
vn -0.754000 0.351400 -0.555000
vn 0.680200 -0.572800 0.457400
vn 0.626000 -0.522100 0.579300
vn 0.260900 0.737900 -0.622400
vn -0.757000 0.561200 -0.334700
vn -0.774100 -0.387200 0.500900
vn 0.046500 -0.733500 0.678100
vn -0.334300 -0.708000 0.622000
vn 0.710600 -0.048700 0.701900
vn 0.610900 0.786500 -0.090900
vn 0.437600 -0.518800 0.734400
vn 0.892200 0.429300 -0.140200
vn 0.731700 0.432900 -0.526600
vn 0.635900 0.614500 -0.467000
vn 0.362700 -0.675600 0.641900
vn 0.935900 0.291100 -0.198500
vn 0.586600 -0.572600 0.572700
vn 0.586600 -0.572600 -0.572700
vn 0.323700 -0.662000 -0.676000
vn 0.323700 -0.662000 0.676000
vn 0.323700 0.662000 0.676000
vn 0.586600 0.572600 0.572700
vn 0.586600 0.572600 -0.572700
vn 0.323700 0.662000 -0.676000
vn -0.507500 -0.609500 -0.609100
vn -0.507500 -0.609500 0.609100
vn -0.507500 0.609500 0.609100
vn -0.507500 0.609500 -0.609100
vn 0.293500 -0.676400 -0.675500
vn 0.293500 -0.676400 0.675500
vn 0.293500 0.676400 0.675500
vn 0.293500 0.676400 -0.675500
vn 0.820700 -0.402400 -0.405600
vn 0.820700 -0.402400 0.405600
vn 0.820700 0.402400 0.405600
vn 0.820700 0.402400 -0.405600
vn 0.000000 -0.707100 -0.707100
vn 0.000000 -0.707100 0.707100
vn 0.000000 0.707100 0.707100
vn 0.000000 0.707100 -0.707100
s 1
f 1//1 2//2 3//3 4//4
f 5//5 6//6 7//7 8//8
f 9//9 6//6 5//5 10//10
f 3//3 2//2 11//11
f 4//4 3//3 12//12 13//13
f 1//1 4//4 13//13 14//14
f 1//1 15//15 16//16 2//2
f 1//1 17//17 15//15
f 11//11 18//18 19//19
f 16//16 15//15 20//20 21//21
f 10//10 22//22 23//23 9//9
f 8//8 7//7 23//23 22//22
f 14//14 9//9 23//23 19//19
f 14//14 13//13 6//6 9//9
f 7//7 12//12 19//19 23//23
f 6//6 13//13 12//12 7//7
f 12//12 3//3 11//11 19//19
f 1//1 14//14 24//24 17//17
f 24//24 25//25 20//20 17//17
f 25//25 26//26 21//21 20//20
f 18//18 26//26 25//25 24//24
f 18//18 11//11 21//21 26//26
f 27//27 28//28 29//29 30//30
f 31//31 32//32 33//33 34//34
f 35//35 36//36 37//37 38//38
f 39//39 35//35 38//38 40//40
f 34//34 33//33 41//41
f 31//31 34//34 42//42 43//43
f 44//44 31//31 43//43 30//30
f 32//32 44//44 45//45 46//46
f 32//32 46//46 47//47 33//33
f 41//41 28//28 27//27
f 47//47 46//46 48//48 49//49
f 40//40 50//50 51//51 39//39
f 37//37 36//36 51//51 50//50
f 30//30 39//39 51//51 27//27
f 30//30 43//43 35//35 39//39
f 36//36 42//42 27//27 51//51
f 35//35 43//43 42//42 36//36
f 42//42 34//34 41//41 27//27
f 44//44 30//30 29//29 45//45
f 29//29 52//52 48//48 45//45
f 52//52 53//53 49//49 48//48
f 28//28 53//53 52//52 29//29
f 28//28 41//41 49//49 53//53
f 54//54 55//55 56//56 57//57
f 58//58 59//59 60//60 61//61
f 62//62 63//63 64//64 65//65
f 63//63 62//62 66//66 67//67
f 60//60 59//59 68//68
f 61//61 60//60 69//69 70//70
f 71//71 61//61 70//70 57//57
f 58//58 71//71 72//72 73//73
f 58//58 73//73 74//74 59//59
f 68//68 55//55 54//54
f 74//74 73//73 75//75 76//76
f 66//66 77//77 78//78 67//67
f 77//77 65//65 64//64 78//78
f 57//57 67//67 78//78 54//54
f 57//57 70//70 63//63 67//67
f 64//64 69//69 54//54 78//78
f 63//63 70//70 69//69 64//64
f 69//69 60//60 68//68 54//54
f 71//71 57//57 56//56 72//72
f 56//56 79//79 75//75 72//72
f 79//79 80//80 76//76 75//75
f 55//55 80//80 79//79 56//56
f 55//55 68//68 76//76 80//80
f 81//81 82//82 83//83 84//84
f 81//81 84//84 85//85 86//86
f 82//82 87//87 88//88 83//83
f 86//86 85//85 88//88 87//87
f 83//83 89//89 90//90 84//84
f 84//84 90//90 91//91 85//85
f 83//83 88//88 92//92 89//89
f 88//88 85//85 91//91 92//92
f 89//89 93//93 94//94 90//90
f 91//91 95//95 96//96 92//92
f 90//90 94//94 95//95 91//91
f 89//89 92//92 96//96 93//93
f 93//93 97//97 98//98 94//94
f 94//94 98//98 99//99 95//95
f 93//93 96//96 100//100 97//97
f 95//95 99//99 100//100 96//96
f 99//99 98//98 97//97 100//100
f 101//101 82//82 81//81 102//102
f 103//103 86//86 87//87 104//104
f 102//102 81//81 86//86 103//103
f 101//101 104//104 87//87 82//82
f 19//19 18//18 24//24 14//14
f 2//2 16//16 11//11
f 16//16 21//21 11//11
f 15//15 17//17 20//20
f 32//32 31//31 44//44
f 33//33 47//47 41//41
f 47//47 49//49 41//41
f 46//46 45//45 48//48
f 58//58 61//61 71//71
f 59//59 74//74 68//68
f 74//74 76//76 68//68
f 73//73 72//72 75//75
