<?xml version="1.0" standalone="no"?>
<!DOCTYPE svg PUBLIC "-//W3C//DTD SVG 20010904//EN"
 "http://www.w3.org/TR/2001/REC-SVG-20010904/DTD/svg10.dtd">
<svg version="1.0" xmlns="http://www.w3.org/2000/svg"
 width="864.000000pt" height="864.000000pt" viewBox="0 0 864.000000 864.000000"
 preserveAspectRatio="xMidYMid meet">
<metadata>
Created by potrace 1.11, written by Peter Selinger 2001-2013
</metadata>
<g transform="translate(0.000000,864.000000) scale(0.100000,-0.100000)"
fill="#000000" stroke="none">
<path d="M1 5145 c0 -2116 5 -3497 10 -3501 5 -3 6 -10 3 -16 -7 -12 -13
-1407 -6 -1546 l4 -83 899 1 899 1 1 27 1 27 7 -25 c6 -24 10 -25 78 -27 62
-2 73 1 78 16 3 10 3 26 -1 35 -4 11 1 24 15 37 32 30 26 48 -19 55 -35 6 -37
8 -24 21 16 16 15 37 -1 31 -6 -2 -9 -7 -7 -11 2 -8 -22 -37 -32 -37 -2 0 -1
14 4 30 8 28 6 34 -12 31 -5 0 -8 21 -8 49 0 30 -4 50 -11 50 -7 0 -10 12 -7
30 3 19 1 29 -6 27 -16 -5 -20 -59 -5 -68 9 -5 13 -25 11 -53 -1 -35 2 -46 13
-46 8 0 15 -4 15 -10 0 -5 -7 -7 -15 -4 -8 4 -15 1 -15 -5 0 -6 5 -11 11 -11
8 0 8 -5 -1 -15 -10 -12 -10 -15 4 -15 9 0 16 -4 16 -9 0 -5 -15 -9 -34 -9
-38 0 -56 23 -26 31 15 4 19 13 17 47 -1 37 -4 42 -29 47 -31 6 -33 24 -3 37
18 8 17 10 -9 15 -26 5 -27 7 -13 19 9 8 21 11 27 7 5 -3 10 -2 10 2 0 15 -39
33 -56 26 -12 -4 -15 -1 -12 13 3 14 12 19 40 19 20 0 34 3 31 8 -2 4 7 7 22
7 14 0 28 7 32 16 3 8 12 13 19 10 10 -4 14 2 14 18 0 13 -7 26 -15 30 -8 3
-15 13 -15 21 0 13 -8 16 -37 13 -34 -2 -38 -1 -35 20 2 12 -2 22 -7 22 -6 0
-11 -7 -11 -15 0 -18 -16 -20 -26 -3 -4 6 -2 14 4 16 18 6 14 22 -4 22 -13 0
-14 3 -5 13 12 16 71 21 71 7 0 -5 -7 -7 -15 -4 -8 4 -15 1 -15 -5 0 -6 7 -11
15 -11 8 0 15 -4 15 -10 0 -5 5 -10 11 -10 5 0 8 3 6 8 -10 16 13 52 33 52 25
0 26 16 3 29 -10 5 -17 13 -15 18 2 4 -1 9 -7 11 -6 2 -11 -4 -11 -13 0 -13
-3 -15 -12 -7 -7 5 -22 12 -33 15 -16 4 -14 5 7 6 15 0 29 5 33 10 3 6 17 6
35 1 23 -7 30 -5 30 6 0 8 -9 14 -20 14 -11 0 -20 5 -20 11 0 6 7 8 16 5 12
-5 15 -2 10 11 -5 15 -4 15 9 -1 20 -27 20 -80 0 -72 -17 6 -21 -9 -4 -20 18
-11 32 13 31 51 -1 19 3 35 8 35 5 0 9 -8 8 -18 -3 -43 2 -61 17 -56 8 4 15
14 15 23 0 14 -2 14 -10 1 -8 -12 -10 -11 -10 7 0 16 4 21 15 17 8 -4 15 -17
15 -30 0 -29 16 -32 23 -4 3 11 1 20 -4 20 -5 0 -9 5 -9 10 0 16 50 12 56 -5
4 -8 13 -15 21 -15 8 0 11 -4 8 -10 -3 -5 3 -10 14 -10 14 0 19 5 15 15 -4 8
-12 15 -19 15 -8 0 -17 5 -20 10 -4 6 7 10 25 10 23 0 33 -5 37 -20 5 -17 7
-17 20 -5 14 14 53 21 53 10 0 -3 -10 -10 -22 -15 -23 -10 -23 -10 2 -7 14 1
28 6 32 11 4 6 12 5 20 -2 14 -11 58 -6 58 7 0 4 -6 13 -12 20 -10 11 -10 14
0 18 15 6 16 36 0 31 -6 -2 -13 -15 -15 -28 -5 -35 -17 -43 -45 -30 -19 9 -24
17 -20 36 6 34 -8 115 -19 109 -5 -4 -6 -11 -3 -17 11 -17 13 -98 3 -98 -6 0
-7 -4 -4 -10 4 -6 -6 -10 -22 -9 -27 0 -27 1 -5 9 24 10 29 26 10 33 -10 4
-10 6 0 6 6 1 12 10 12 21 0 23 -17 27 -22 6 -3 -13 -7 -13 -28 0 -23 14 -23
15 -3 11 13 -3 28 2 35 11 7 9 8 13 2 9 -7 -4 -14 5 -18 23 -3 17 -9 30 -13
29 -20 -3 -30 2 -30 16 0 8 4 15 9 15 4 0 8 -5 8 -11 0 -6 9 -8 20 -4 17 5 20
2 21 -27 1 -31 2 -31 8 -8 5 14 4 29 -1 34 -4 6 -8 26 -8 45 0 20 -5 43 -10
51 -7 11 -8 3 -4 -26 4 -28 2 -44 -6 -49 -10 -6 -11 -1 -6 19 4 15 2 26 -4 26
-5 0 -10 -4 -10 -10 0 -5 -7 -10 -15 -10 -8 0 -15 9 -15 19 0 10 -7 21 -14 24
-10 4 -13 1 -9 -9 3 -7 0 -14 -6 -14 -6 0 -11 -9 -11 -20 0 -11 -4 -20 -10
-20 -5 0 -10 11 -10 25 0 14 5 25 11 25 5 0 7 5 4 10 -7 12 -26 14 -23 3 1 -5
-5 -21 -15 -38 l-16 -30 -1 32 c0 23 -4 31 -14 27 -8 -3 -12 -15 -10 -27 4
-19 3 -19 -6 2 -11 25 -1 40 26 41 15 0 25 26 18 45 -10 24 -22 17 -16 -10 4
-23 1 -25 -30 -25 -32 0 -35 3 -33 25 2 15 -2 25 -9 25 -9 0 -11 -9 -8 -26 3
-17 1 -25 -5 -21 -13 8 -23 67 -12 67 5 0 6 14 3 30 -4 19 -2 30 4 30 6 0 9 8
6 18 -5 16 -5 16 6 0 6 -10 19 -18 28 -18 16 -1 16 -2 -1 -14 -18 -14 -24 -56
-7 -56 5 0 7 7 4 15 -4 8 -1 15 6 15 8 0 11 -9 8 -25 -3 -14 -1 -25 3 -25 14
0 11 98 -3 103 -8 3 -6 6 5 6 9 1 17 3 17 5 0 12 -23 66 -28 66 -4 0 -8 11 -8
25 -1 14 2 25 7 25 5 0 9 -4 9 -10 0 -5 5 -10 11 -10 6 0 9 9 6 20 -3 11 -1
18 4 14 5 -3 9 -13 9 -23 0 -20 43 -38 48 -21 5 13 32 13 32 0 0 -5 -8 -13
-17 -19 -15 -8 -16 -12 -5 -22 10 -11 12 -10 12 0 0 8 17 29 37 49 44 41 55
86 23 95 -11 3 -18 11 -15 19 2 7 -5 24 -16 38 -17 20 -19 21 -14 5 14 -38 17
-65 8 -65 -5 0 -15 -10 -20 -23 -9 -19 -8 -26 8 -35 20 -13 26 -32 9 -32 -5 0
-10 7 -10 16 0 8 -4 13 -9 9 -5 -3 -12 -1 -16 5 -3 5 -15 10 -26 10 -10 0 -19
4 -19 9 0 5 9 7 19 4 23 -6 45 29 38 58 -3 10 -1 19 4 19 20 0 8 18 -16 24
-14 4 -25 11 -25 16 0 13 44 23 69 15 12 -4 21 -2 21 4 0 6 10 11 22 11 20 0
20 -1 5 -18 -20 -22 -22 -38 -6 -48 7 -4 9 0 5 14 -5 13 -1 22 10 26 9 3 14
13 10 21 -3 8 0 17 6 21 7 4 6 9 -3 15 -11 7 -10 9 3 9 9 0 20 5 24 12 5 7 0
9 -14 6 -12 -3 -24 -1 -27 6 -3 6 -3 -4 0 -21 2 -18 0 -33 -5 -33 -6 0 -10 6
-10 13 -1 7 -6 5 -14 -5 -19 -25 -33 -22 -40 8 -5 20 -10 23 -21 14 -9 -7 -15
-8 -20 0 -3 5 5 14 19 20 23 8 26 15 26 60 0 35 4 50 13 50 8 0 14 7 14 15 0
8 -8 15 -18 15 -9 0 -19 5 -21 12 -6 18 4 62 11 50 3 -6 19 -14 34 -17 26 -7
27 -6 27 34 0 38 3 43 30 52 17 6 30 15 30 20 0 5 7 9 15 9 28 0 15 -17 -24
-30 -30 -10 -38 -17 -38 -36 0 -14 5 -24 13 -24 8 0 14 7 14 15 0 8 5 15 10
15 6 0 10 -7 10 -15 0 -17 16 -20 25 -5 3 5 12 10 18 10 9 0 8 -3 -1 -8 -17
-11 -4 -42 17 -42 9 0 23 5 31 11 12 8 10 9 -7 4 -17 -5 -23 -2 -23 10 0 12 6
16 20 12 22 -6 28 8 8 16 -7 2 -9 8 -5 13 5 5 15 0 24 -11 14 -17 15 -18 9 -2
-3 10 -6 21 -6 23 0 2 -8 4 -17 4 -15 0 -16 2 -3 10 23 15 40 12 34 -5 -4 -8
-1 -15 5 -15 6 0 11 5 11 10 0 6 11 10 25 10 14 0 25 -5 25 -12 0 -6 3 -8 6
-5 4 4 1 14 -7 23 -11 13 -11 18 -2 21 15 5 18 33 3 33 -5 0 -7 7 -3 16 5 14
2 16 -20 10 -29 -7 -36 4 -13 23 10 9 16 8 26 -4 7 -8 19 -15 26 -15 8 0 11
-6 8 -15 -4 -9 0 -15 10 -15 20 0 21 -16 1 -24 -17 -6 -21 -36 -5 -36 6 0 10
4 10 9 0 5 9 11 21 14 12 3 18 10 14 16 -3 6 -2 11 3 11 6 0 9 -11 8 -24 -1
-15 -6 -22 -15 -18 -11 4 -11 1 -2 -16 12 -23 55 -30 66 -12 3 5 -2 10 -12 10
-12 0 -19 8 -20 20 -1 14 4 20 19 20 18 0 20 4 15 35 -6 36 6 53 26 37 18 -13
79 -24 72 -12 -3 6 -1 10 4 10 6 0 11 -4 11 -10 0 -5 4 -10 9 -10 4 0 6 11 4
24 -3 13 0 27 6 30 7 5 11 -5 11 -28 0 -21 6 -38 15 -44 14 -7 14 -12 1 -36
-14 -28 -11 -70 5 -60 5 3 9 20 9 37 0 42 25 78 48 70 15 -6 15 -5 3 10 -8 11
-9 17 -3 17 6 0 16 -10 23 -21 9 -17 13 -19 20 -8 6 9 9 0 9 -28 0 -24 5 -43
10 -43 6 0 10 20 10 45 0 25 5 45 10 45 6 0 10 -20 10 -45 0 -25 5 -45 10 -45
6 0 10 19 10 43 l1 42 15 -28 c11 -20 19 -25 27 -19 7 6 26 12 42 14 17 1 28
8 25 13 -3 6 -8 9 -12 7 -5 -1 -8 2 -8 8 0 16 40 12 46 -5 8 -21 23 -19 45 7
11 11 19 16 19 10 0 -7 5 -12 11 -12 7 0 9 10 5 24 -3 14 -2 28 4 31 6 4 10
-6 10 -24 0 -16 5 -33 10 -36 6 -4 10 -3 9 2 -4 23 3 30 26 25 27 -5 33 -17
13 -26 -7 -3 0 -4 17 -2 28 4 28 3 10 -10 -10 -8 -25 -14 -33 -14 -7 0 -10 -5
-6 -12 5 -8 0 -9 -14 -6 -12 4 -25 2 -28 -3 -3 -6 -14 -7 -24 -4 -70 22 -179
7 -172 -23 1 -7 -2 -12 -7 -12 -5 0 -15 -20 -22 -44 -10 -33 -15 -41 -25 -32
-6 6 -10 14 -7 19 2 4 0 7 -5 7 -6 0 -12 -7 -16 -15 -3 -8 0 -14 7 -12 6 1 13
-8 15 -21 2 -12 -1 -22 -7 -22 -6 0 -11 7 -11 15 0 8 -7 15 -16 15 -13 0 -14
-3 -5 -14 9 -11 -1 -14 -61 -15 -49 -1 -74 2 -80 11 -6 11 -8 11 -8 0 0 -7 -4
-10 -10 -7 -5 3 -10 1 -10 -5 0 -6 -13 -24 -30 -40 -16 -16 -30 -34 -30 -40 0
-5 -4 -10 -9 -10 -4 0 -7 18 -5 40 1 23 -1 38 -7 34 -5 -3 -7 -10 -4 -15 3 -5
-1 -6 -9 -3 -9 3 -16 1 -16 -5 0 -6 7 -11 15 -11 8 0 15 -5 15 -10 0 -7 -14
-9 -37 -5 l-38 7 34 -19 c32 -16 52 -53 30 -53 -5 0 -9 -7 -9 -15 0 -8 -7 -15
-17 -15 -9 0 -13 -3 -10 -6 3 -4 2 -15 -4 -25 -11 -22 -15 -21 94 -20 80 0 90
-5 58 -29 -11 -7 -17 -18 -15 -22 3 -5 -6 -26 -19 -47 -31 -47 -59 -110 -52
-121 2 -4 77 -7 165 -6 88 1 165 -1 170 -4 5 -3 3 -18 -6 -35 -8 -17 -15 -31
-15 -32 5 -16 -1 -33 -10 -28 -7 5 -9 -2 -7 -20 3 -27 3 -27 91 -28 48 -1 87
0 87 3 0 3 83 5 185 4 200 -2 212 1 203 51 -4 16 -1 25 7 25 8 0 11 8 8 19 -3
11 3 28 14 39 16 17 31 19 141 18 104 -1 126 2 139 16 8 9 12 22 7 29 -4 8 -3
10 4 5 7 -4 12 -3 12 3 0 5 -5 13 -10 16 -12 7 -10 124 2 131 4 3 8 -4 8 -15
0 -12 4 -21 8 -21 5 0 10 -44 11 -97 1 -54 3 -109 4 -123 l2 -25 128 -3 c72
-1 125 -6 122 -12 -6 -10 6 -19 45 -30 40 -11 38 3 -2 24 l-33 16 28 0 c36 0
67 -16 67 -36 0 -8 5 -12 10 -9 5 3 10 -2 10 -12 0 -13 -8 -18 -30 -19 -36 -1
-50 -12 -31 -24 8 -4 11 -15 8 -23 -5 -13 0 -15 27 -10 22 3 42 -1 60 -12 14
-9 33 -15 41 -11 21 8 19 -3 -4 -23 -10 -9 -21 -26 -25 -38 -4 -13 -15 -23
-26 -23 -10 0 -21 -6 -23 -12 -3 -8 -6 -6 -6 5 -1 9 5 17 12 17 8 0 18 16 24
35 6 19 7 32 2 29 -5 -3 -16 1 -24 9 -25 25 -62 1 -58 -37 l2 -31 -11 28 c-12
26 -28 37 -28 17 0 -5 -7 -10 -15 -10 -8 0 -15 7 -15 15 0 8 -7 15 -15 15 -9
0 -12 -6 -8 -16 4 -12 2 -15 -8 -12 -8 2 -15 17 -17 32 -3 25 -2 27 18 16 25
-13 39 -5 22 12 -7 7 -12 20 -12 29 0 11 -7 17 -19 16 -17 -1 -19 -8 -17 -59
2 -43 -1 -58 -11 -58 -7 0 -13 7 -13 15 0 8 -4 15 -10 15 -5 0 -10 -7 -10 -15
0 -9 -9 -15 -24 -15 -13 0 -27 -8 -30 -17 -6 -15 -8 -15 -16 -3 -5 8 -5 19 0
25 15 18 16 58 1 63 -10 3 -12 0 -8 -12 10 -25 -22 -20 -34 7 l-10 22 5 -22
c3 -19 0 -22 -28 -21 -49 1 -66 -1 -65 -9 4 -18 -24 -73 -37 -73 -10 0 -11 6
-4 26 14 35 13 44 -6 44 -11 0 -14 -6 -10 -22 3 -13 3 -17 0 -10 -3 6 -14 12
-25 12 -24 0 -25 15 -1 30 15 10 15 11 -3 4 -11 -4 -47 -9 -80 -11 -35 -3 -67
-11 -77 -20 -16 -15 -20 -15 -37 1 -16 14 -19 15 -24 2 -3 -8 -3 -24 0 -36 5
-19 3 -21 -16 -15 -13 4 -28 2 -37 -6 -8 -6 -17 -9 -21 -5 -3 3 -1 6 7 6 10 0
10 3 -1 16 -11 14 -10 16 11 12 15 -2 25 2 25 10 0 6 -3 12 -7 12 -5 0 -17 0
-29 0 -17 0 -20 -5 -17 -33 3 -30 6 -32 48 -38 25 -3 35 -7 23 -7 -33 -3 -28
-22 5 -22 44 0 82 -22 82 -47 0 -12 -4 -25 -10 -28 -6 -3 -10 5 -10 18 0 29
-39 47 -101 47 -31 0 -39 -4 -39 -17 0 -16 2 -16 11 -3 8 11 12 12 16 3 2 -7
9 -13 14 -13 6 0 7 5 3 11 -4 7 1 10 11 7 27 -5 29 -25 3 -31 -33 -9 -16 -18
21 -11 25 5 29 9 20 20 -9 11 -8 14 5 14 10 0 16 -9 16 -25 0 -20 -5 -25 -25
-25 -14 0 -25 -4 -25 -10 0 -5 9 -10 20 -10 17 0 17 -2 -6 -25 -25 -25 -44
-32 -44 -16 0 5 -9 11 -20 14 -13 3 -24 -3 -35 -19 -14 -22 -14 -24 0 -24 9 0
14 4 10 9 -3 5 -1 12 5 16 13 8 13 -11 0 -35 -7 -13 -6 -21 2 -27 9 -5 1 -10
-22 -14 l-35 -6 33 -2 c22 -1 40 6 55 22 13 12 38 23 56 24 38 3 38 0 -4 -21
-20 -11 -24 -16 -12 -16 23 0 22 -12 -4 -29 -18 -10 -19 -15 -8 -22 8 -5 23
-9 34 -9 15 0 17 3 7 9 -19 11 -19 15 -4 33 10 13 10 17 0 21 -24 10 56 6 102
-4 48 -11 84 -17 113 -18 9 -1 17 -8 17 -16 0 -19 -8 -19 -51 -1 -19 7 -51 16
-72 19 -35 6 -38 4 -32 -16 5 -17 4 -19 -4 -7 -9 13 -11 13 -11 -2 0 -10 5
-18 11 -18 6 0 9 -9 6 -20 -3 -12 0 -20 8 -20 7 0 18 -7 25 -15 10 -12 10 -15
-3 -15 -9 0 -18 4 -22 9 -3 5 -19 12 -35 16 -28 6 -43 25 -20 25 6 0 10 5 10
11 0 7 -9 9 -22 5 -46 -14 -58 -15 -58 -5 0 5 -4 9 -9 9 -13 0 -1 -40 13 -41
6 -1 19 0 29 0 9 1 24 -5 33 -13 14 -15 13 -16 -13 -17 -24 -2 -24 -2 -5 -6
12 -2 20 -9 17 -14 -4 -5 3 -9 15 -9 11 0 23 6 26 13 4 10 17 12 50 7 35 -6
47 -4 54 9 8 13 9 14 9 1 0 -25 -26 -52 -46 -47 -16 4 -16 5 0 6 35 2 15 21
-23 21 -22 0 -40 -4 -40 -9 0 -5 9 -7 20 -4 11 3 20 0 20 -6 0 -6 -4 -11 -10
-11 -5 0 -7 -7 -4 -15 5 -12 9 -13 20 -4 18 15 32 3 16 -13 -9 -9 -18 -9 -37
0 -36 16 -65 15 -65 -3 0 -8 5 -15 11 -15 5 0 7 5 4 10 -3 6 3 10 14 10 12 0
21 -4 21 -9 0 -13 81 -20 103 -9 14 7 17 16 12 39 -6 28 -6 29 19 18 28 -13
46 -67 26 -79 -8 -5 -7 -9 4 -13 12 -5 16 0 16 23 0 16 4 31 9 34 16 10 42 -6
36 -22 -3 -8 0 -21 6 -28 10 -12 9 -13 -5 -8 -9 3 -16 17 -16 30 0 13 -4 24
-8 24 -5 0 -7 -13 -4 -29 3 -22 -1 -32 -16 -40 -28 -15 -48 9 -32 38 7 15 8
27 1 39 -6 9 -11 11 -11 5 0 -31 -27 -63 -46 -56 -8 3 -14 0 -14 -6 0 -6 5
-11 10 -11 6 0 10 -9 10 -20 0 -11 5 -20 10 -20 6 0 10 -7 10 -15 0 -8 -7 -15
-15 -15 -8 0 -15 -4 -15 -10 0 -5 7 -10 15 -10 8 0 15 5 15 10 0 6 7 10 16 10
10 0 14 -6 10 -15 -3 -8 -1 -15 4 -15 4 0 2 -14 -6 -30 -9 -17 -20 -30 -25
-30 -5 0 -9 -4 -9 -10 0 -5 7 -10 15 -10 8 0 15 5 15 10 0 6 12 10 28 9 l27
-1 -25 -7 c-21 -6 -26 -15 -30 -51 -5 -34 -7 -39 -10 -20 -3 14 -12 25 -20 25
-8 0 -17 -11 -20 -25 -5 -20 -8 -16 -11 21 -3 34 -1 45 9 42 17 -7 15 12 -3
27 -12 10 -16 9 -20 -2 -3 -8 -5 -19 -4 -24 1 -5 1 -18 0 -30 -1 -17 -6 -20
-31 -16 -23 3 -30 0 -30 -12 0 -9 -7 -19 -15 -22 -10 -4 -15 -19 -14 -48 1
-38 2 -39 9 -11 5 24 8 27 14 13 4 -9 5 -22 1 -28 -3 -5 -1 -10 5 -10 7 0 10
14 9 34 -2 19 0 38 4 42 4 4 7 -11 7 -34 0 -35 3 -42 20 -42 11 0 20 3 20 8 0
11 94 9 103 -3 4 -6 11 -4 17 5 6 10 10 11 10 3 0 -7 9 -13 19 -13 11 0 22 6
24 13 4 10 6 10 6 0 1 -16 41 -17 41 -2 0 8 4 9 13 0 10 -8 663 -11 2415 -11
l2402 0 0 4320 0 4320 -4320 0 -4321 0 2 -3495z m5861 1300 c3 -110 8 -273 10
-363 3 -89 7 -164 9 -167 3 -2 96 -5 207 -5 l202 -2 0 -175 0 -175 -210 7
c-176 7 -210 5 -211 -6 -4 -86 8 -990 14 -995 1 -2 146 -6 323 -10 l321 -7 11
-206 c6 -113 9 -209 6 -213 -2 -4 -157 -4 -344 -1 l-340 6 0 -521 0 -520 28
-6 c15 -4 110 -5 212 -4 l185 2 3 -187 2 -187 -112 -1 c-62 0 -159 0 -214 1
-112 1 -119 -3 -109 -64 2 -17 7 -187 9 -377 l5 -347 -262 4 c-144 3 -277 7
-296 10 l-33 5 7 403 8 403 -112 6 c-61 4 -131 4 -155 1 l-44 -6 -1 170 c-1
93 2 177 5 186 5 14 28 16 165 16 156 0 159 0 163 23 3 12 10 157 16 322 5
165 13 380 17 478 l6 177 -366 0 c-340 0 -366 -1 -371 -17 -3 -10 -7 -99 -11
-198 -3 -99 -7 -205 -10 -235 -3 -30 -7 -104 -10 -165 -3 -60 -12 -252 -20
-425 -8 -173 -17 -341 -20 -372 -3 -32 -5 -58 -3 -59 2 -1 78 -4 170 -8 92 -4
170 -9 172 -12 3 -2 6 -81 7 -174 l2 -170 -192 3 -191 4 -2 -44 c-1 -23 -3
-54 -3 -68 -2 -36 -15 -141 -21 -172 l-5 -27 -195 2 c-157 2 -194 0 -194 -11
0 -7 -5 -10 -10 -7 -6 4 -7 11 -4 17 4 7 -26 9 -90 6 -78 -2 -97 0 -102 12 -3
8 -6 80 -7 160 l-2 145 -165 10 -165 10 -3 171 -2 171 121 6 c67 4 151 7 186
7 l63 0 0 125 c0 104 -2 125 -15 125 -8 0 -15 4 -15 10 0 5 7 7 15 4 12 -5 14
1 11 25 -2 17 0 34 5 37 5 3 7 33 4 67 -3 34 -5 67 -6 72 0 6 2 71 5 145 3 74
8 300 11 503 l7 367 -149 1 c-81 1 -173 3 -203 4 -30 2 -132 6 -227 9 -159 6
-172 5 -176 -11 -3 -10 -8 -166 -11 -348 -4 -181 -9 -396 -12 -476 l-6 -146
33 -6 c77 -14 184 -19 169 -8 -8 6 -10 11 -4 11 5 0 15 -5 21 -11 6 -6 43 -15
83 -19 40 -4 76 -12 80 -16 5 -5 10 -83 12 -174 l3 -165 -50 -2 c-27 0 -104
-4 -170 -6 -66 -3 -139 -6 -162 -6 l-43 -1 0 -77 c0 -43 -5 -135 -10 -204 -5
-70 -10 -194 -11 -275 -2 -166 -8 -242 -18 -226 -6 11 -56 15 -301 28 -74 4
-148 8 -165 9 -16 1 -42 3 -57 4 -17 0 -32 9 -39 22 -6 12 -7 19 -1 15 12 -7
18 133 21 476 l2 268 -183 2 -183 3 1 55 c0 30 1 112 2 182 l2 127 190 -6 190
-6 1 224 c1 123 4 338 8 478 4 164 2 258 -4 266 -7 9 -84 17 -242 25 l-233 13
6 196 c4 108 8 198 10 200 2 2 105 5 229 6 124 1 229 5 232 9 11 10 42 957 33
969 -4 4 -86 4 -184 0 -98 -5 -180 -6 -182 -4 -2 2 -4 76 -4 163 l0 158 184 0
c119 0 187 4 191 11 4 5 16 164 27 352 11 188 23 345 27 349 5 5 491 14 526 9
7 -1 9 -128 7 -366 l-2 -365 173 0 174 0 6 -112 c4 -62 7 -132 7 -155 l0 -43
-189 0 -190 0 -3 -112 c-2 -62 -5 -282 -6 -489 l-3 -376 388 -6 c213 -3 391
-2 396 2 4 4 6 324 5 712 l-3 704 -162 3 -161 2 -6 68 c-3 37 -5 107 -3 157
l2 90 164 12 c90 7 166 15 169 17 2 3 6 61 9 130 l6 125 61 5 c34 3 117 8 186
11 69 3 171 8 228 11 l102 6 0 -141 0 -141 163 0 c89 0 172 -3 185 -6 22 -6
22 -9 22 -169 l0 -162 -147 -6 c-82 -4 -161 -9 -176 -13 -26 -6 -28 -9 -22
-48 8 -60 25 -426 35 -771 5 -165 12 -366 16 -446 l7 -147 138 -7 c77 -4 245
-4 374 0 l235 7 0 37 c1 77 -31 868 -36 899 l-5 32 -164 0 c-91 0 -165 1 -165
3 -1 1 -3 77 -7 168 l-6 166 94 6 c52 4 124 9 162 13 l67 7 0 361 c0 198 0
363 0 366 0 3 123 3 272 0 l273 -5 7 -200z m-2332 -3273 c0 -5 -13 -7 -30 -4
-16 2 -30 6 -30 8 0 2 14 4 30 4 17 0 30 -4 30 -8z m65 -2 c3 -6 -1 -7 -9 -4
-18 7 -21 14 -7 14 6 0 13 -4 16 -10z m-20 -20 c3 -5 2 -10 -4 -10 -5 0 -13 5
-16 10 -3 6 -2 10 4 10 5 0 13 -4 16 -10z m79 -114 c-4 -50 -10 -74 -18 -70
-6 3 -2 -2 8 -10 11 -9 17 -18 14 -21 -3 -3 -13 2 -23 11 -13 14 -16 29 -12
68 2 28 10 52 16 54 6 2 11 15 11 30 0 14 2 23 6 20 3 -3 2 -40 -2 -82z m-19
65 c3 -5 1 -12 -5 -16 -5 -3 -10 1 -10 9 0 18 6 21 15 7z m72 -7 c-3 -3 -12
-4 -19 -1 -8 3 -5 6 6 6 11 1 17 -2 13 -5z m26 -131 c-7 -2 -19 -2 -25 0 -7 3
-2 5 12 5 14 0 19 -2 13 -5z m157 3 c0 -2 -7 -7 -16 -10 -8 -3 -12 -2 -9 4 6
10 25 14 25 6z m-206 -22 c3 -8 2 -12 -4 -9 -6 3 -10 10 -10 16 0 14 7 11 14
-7z m843 -766 c-3 -8 -6 -5 -6 6 -1 11 2 17 5 13 3 -3 4 -12 1 -19z m-2007
-138 c0 -5 -5 -10 -11 -10 -5 0 -7 5 -4 10 3 6 8 10 11 10 2 0 4 -4 4 -10z
m2215 0 c3 -5 2 -10 -4 -10 -5 0 -13 5 -16 10 -3 6 -2 10 4 10 5 0 13 -4 16
-10z m-2171 -28 c3 -5 -1 -9 -9 -9 -8 0 -15 4 -15 9 0 4 4 8 9 8 6 0 12 -4 15
-8z m2111 -52 c-3 -5 -13 -10 -21 -10 -8 0 -14 5 -14 10 0 6 9 10 21 10 11 0
17 -4 14 -10z m-1632 -31 c-6 -6 -19 -9 -29 -6 -16 4 -15 5 4 6 12 0 22 6 22
13 0 6 3 8 7 5 4 -4 2 -12 -4 -18z m184 15 c-3 -3 -12 -4 -19 -1 -8 3 -5 6 6
6 11 1 17 -2 13 -5z m413 2 c0 -3 -4 -8 -10 -11 -5 -3 -10 -1 -10 4 0 6 5 11
10 11 6 0 10 -2 10 -4z m717 -2 c-3 -3 -12 -4 -19 -1 -8 3 -5 6 6 6 11 1 17
-2 13 -5z m47 -10 c3 -8 2 -12 -4 -9 -6 3 -10 10 -10 16 0 14 7 11 14 -7z
m-1559 -14 c3 -5 1 -10 -4 -10 -6 0 -11 5 -11 10 0 6 2 10 4 10 3 0 8 -4 11
-10z m1643 -15 c-3 -3 -9 2 -12 12 -6 14 -5 15 5 6 7 -7 10 -15 7 -18z m739
19 c-3 -3 -12 -4 -19 -1 -8 3 -5 6 6 6 11 1 17 -2 13 -5z m-3082 -14 c3 -5 1
-10 -4 -10 -6 0 -11 5 -11 10 0 6 2 10 4 10 3 0 8 -4 11 -10z m251 -17 c-10
-10 -19 5 -10 18 6 11 8 11 12 0 2 -7 1 -15 -2 -18z m214 23 c0 -2 -13 -6 -30
-8 -16 -3 -30 -1 -30 4 0 4 14 8 30 8 17 0 30 -2 30 -4z m385 -6 c3 -5 -1 -10
-9 -10 -9 0 -16 5 -16 10 0 6 4 10 9 10 6 0 13 -4 16 -10z m1140 -48 c-11 -11
-22 11 -17 35 l5 28 8 -29 c5 -17 7 -32 4 -34z m-3505 38 c-19 -13 -30 -13
-30 0 0 6 10 10 23 10 18 0 19 -2 7 -10z m1800 -12 c0 -19 -2 -20 -10 -8 -13
19 -13 30 0 30 6 0 10 -10 10 -22z m340 12 c0 -5 -5 -10 -11 -10 -5 0 -7 5 -4
10 3 6 8 10 11 10 2 0 4 -4 4 -10z m510 0 c0 -5 -5 -10 -11 -10 -5 0 -7 5 -4
10 3 6 8 10 11 10 2 0 4 -4 4 -10z m968 -4 c-7 -7 -19 -11 -27 -8 -11 4 -10 7
5 13 29 12 36 10 22 -5z m69 8 c-3 -3 -12 -4 -19 -1 -8 3 -5 6 6 6 11 1 17 -2
13 -5z m-1847 -14 c0 -5 -4 -10 -10 -10 -5 0 -10 5 -10 10 0 6 5 10 10 10 6 0
10 -4 10 -10z m336 -10 c0 -11 -4 -20 -8 -20 -10 0 -11 24 -1 33 9 9 9 10 9
-13z m244 0 c0 -19 -11 -26 -23 -14 -8 8 3 34 14 34 5 0 9 -9 9 -20z m185 10
c18 -8 17 -9 -7 -9 -35 -1 -37 -21 -3 -21 25 0 33 -14 15 -25 -15 -9 -53 31
-47 49 7 18 13 19 42 6z m125 0 c0 -5 -7 -10 -16 -10 -8 0 -12 5 -9 10 3 6 10
10 16 10 5 0 9 -4 9 -10z m587 4 c-3 -3 -12 -4 -19 -1 -8 3 -5 6 6 6 11 1 17
-2 13 -5z m50 0 c-3 -3 -12 -4 -19 -1 -8 3 -5 6 6 6 11 1 17 -2 13 -5z m510
-16 c-3 -8 -6 -5 -6 6 -1 11 2 17 5 13 3 -3 4 -12 1 -19z m-3463 -30 c8 -5 7
-8 -3 -8 -9 0 -12 -11 -9 -40 2 -22 0 -40 -3 -40 -9 0 -17 89 -10 115 l5 20 4
-20 c2 -11 9 -23 16 -27z m221 32 c-3 -5 -15 -10 -25 -10 -10 0 -22 5 -25 10
-4 6 7 10 25 10 18 0 29 -4 25 -10z m957 -10 c-13 -10 -30 -16 -37 -13 -21 8
-19 -24 2 -36 10 -5 15 -13 11 -17 -4 -4 -14 -2 -21 4 -8 7 -16 10 -18 7 -3
-2 -6 12 -6 32 -1 21 2 31 7 23 5 -8 10 -9 14 -2 4 6 13 9 21 5 8 -3 15 0 15
6 0 6 8 11 18 11 14 -1 13 -4 -6 -20z m363 10 c3 -5 1 -10 -4 -10 -6 0 -11 5
-11 10 0 6 2 10 4 10 3 0 8 -4 11 -10z m372 -12 c-3 -8 -6 -5 -6 6 -1 11 2 17
5 13 3 -3 4 -12 1 -19z m843 7 c0 -9 -9 -15 -25 -15 -24 0 -32 10 -18 23 12
13 43 7 43 -8z m270 -16 c0 -10 -4 -19 -10 -19 -5 0 -10 12 -10 26 0 14 4 23
10 19 6 -3 10 -15 10 -26z m220 21 c0 -5 -4 -10 -10 -10 -5 0 -10 5 -10 10 0
6 5 10 10 10 6 0 10 -4 10 -10z m-1566 -22 c-1 -13 -3 -27 -3 -33 -1 -5 -6 -2
-12 8 -8 13 -7 22 1 33 16 19 17 18 14 -8z m1016 18 c0 -3 -4 -8 -10 -11 -5
-3 -10 -1 -10 4 0 6 5 11 10 11 6 0 10 -2 10 -4z m286 -13 c19 -26 17 -33 -11
-33 -14 0 -25 5 -25 11 0 5 5 7 10 4 6 -3 10 -1 10 4 0 6 -5 11 -11 11 -5 0
-7 5 -4 10 9 14 16 12 31 -7z m1254 7 c0 -5 -5 -10 -11 -10 -5 0 -7 5 -4 10 3
6 8 10 11 10 2 0 4 -4 4 -10z m-4643 -6 c-3 -3 -12 -4 -19 -1 -8 3 -5 6 6 6
11 1 17 -2 13 -5z m150 -16 c-3 -8 -6 -5 -6 6 -1 11 2 17 5 13 3 -3 4 -12 1
-19z m633 7 c8 -9 8 -15 2 -15 -6 0 -13 6 -16 13 -5 10 -7 10 -12 0 -3 -7 -10
-13 -16 -13 -6 0 -6 6 2 15 7 8 16 15 20 15 4 0 13 -7 20 -15z m1903 8 c-7 -2
-19 -2 -25 0 -7 3 -2 5 12 5 14 0 19 -2 13 -5z m604 -8 c0 -8 -4 -15 -9 -15
-10 0 -11 14 -1 23 9 10 10 9 10 -8z m46 8 c-7 -2 -19 -2 -25 0 -7 3 -2 5 12
5 14 0 19 -2 13 -5z m474 1 c-3 -3 -12 -4 -19 -1 -8 3 -5 6 6 6 11 1 17 -2 13
-5z m383 -4 c0 -5 -8 -10 -17 -10 -15 0 -16 2 -3 10 19 12 20 12 20 0z m-3906
-10 c15 -6 26 -17 25 -27 -1 -17 -2 -17 -6 0 -2 9 -13 17 -23 17 -10 0 -21 -8
-23 -17 -3 -10 -4 -6 -4 10 1 15 2 27 4 27 1 0 13 -4 27 -10z m280 2 c2 -4 0
-14 -6 -22 -8 -12 -9 -12 -4 2 3 10 -1 18 -12 21 -16 4 -16 5 0 6 9 0 19 -3
22 -7z m1276 -5 c0 -7 -9 -13 -20 -14 -16 -1 -17 1 -7 12 15 18 27 19 27 2z
m30 9 c0 -3 -4 -8 -10 -11 -5 -3 -10 -1 -10 4 0 6 5 11 10 11 6 0 10 -2 10 -4z
m-420 -32 c0 -8 -4 -14 -9 -14 -6 0 -9 9 -8 19 1 22 17 18 17 -5z m845 7 c-8
-13 -35 -15 -35 -2 0 5 8 11 18 13 21 5 26 2 17 -11z m945 10 c2 -1 -1 -6 -8
-13 -8 -8 -15 -8 -26 1 -12 10 -14 9 -9 -8 3 -13 10 -18 20 -14 10 4 14 2 12
-6 -3 -7 -8 -12 -13 -11 -5 1 -13 -4 -17 -12 -6 -9 -10 -3 -15 20 -4 18 -13
32 -21 32 -8 0 -11 5 -8 10 5 8 35 9 85 1z m225 -1 c3 -5 1 -10 -4 -10 -6 0
-11 5 -11 10 0 6 2 10 4 10 3 0 8 -4 11 -10z m510 0 c-3 -5 -11 -10 -16 -10
-6 0 -7 5 -4 10 3 6 11 10 16 10 6 0 7 -4 4 -10z m245 0 c0 -5 -5 -10 -11 -10
-5 0 -7 5 -4 10 3 6 8 10 11 10 2 0 4 -4 4 -10z m-4292 -14 c-7 -8 -15 -12
-17 -11 -5 6 10 25 20 25 5 0 4 -6 -3 -14z m192 -2 c0 -2 -9 -4 -20 -4 -11 0
-20 4 -20 9 0 5 9 7 20 4 11 -3 20 -7 20 -9z m1380 -5 c0 -5 -7 -9 -15 -9 -15
0 -20 12 -9 23 8 8 24 -1 24 -14z m90 11 c8 -5 12 -11 9 -14 -3 -3 -14 1 -25
9 -21 16 -8 20 16 5z m1470 -11 c31 -6 32 -7 8 -8 -16 0 -28 -5 -28 -9 0 -4
-12 -9 -26 -10 -20 -1 -25 2 -20 14 3 9 6 20 6 25 0 6 5 7 12 3 7 -4 28 -11
48 -15z m1181 -2 c-10 -9 -11 -8 -5 6 3 10 9 15 12 12 3 -3 0 -11 -7 -18z m49
19 c0 -3 -4 -8 -10 -11 -5 -3 -10 -1 -10 4 0 6 5 11 10 11 6 0 10 -2 10 -4z
m74 -11 c3 -8 1 -15 -4 -15 -6 0 -10 7 -10 15 0 8 2 15 4 15 2 0 6 -7 10 -15z
m-4314 -10 c0 -8 -4 -15 -10 -15 -5 0 -10 7 -10 15 0 8 5 15 10 15 6 0 10 -7
10 -15z m1650 -7 c0 -4 -7 -8 -15 -8 -8 0 -15 4 -15 8 0 5 7 9 15 9 8 0 15 -4
15 -9z m1440 3 c0 -6 -4 -13 -10 -16 -5 -3 -10 1 -10 9 0 9 5 16 10 16 6 0 10
-4 10 -9z m-2990 -11 c0 -5 -4 -10 -10 -10 -5 0 -10 5 -10 10 0 6 5 10 10 10
6 0 10 -4 10 -10z m2425 0 c-3 -5 -11 -10 -16 -10 -6 0 -7 5 -4 10 3 6 11 10
16 10 6 0 7 -4 4 -10z m-2205 -10 c0 -5 -5 -10 -11 -10 -5 0 -7 5 -4 10 3 6 8
10 11 10 2 0 4 -4 4 -10z m837 -12 c-3 -8 -6 -5 -6 6 -1 11 2 17 5 13 3 -3 4
-12 1 -19z m71 2 c12 -19 11 -20 -8 -8 -11 7 -20 16 -20 20 0 15 15 8 28 -12z
m32 10 c0 -5 -4 -10 -10 -10 -5 0 -10 5 -10 10 0 6 5 10 10 10 6 0 10 -4 10
-10z m340 0 c0 -5 -5 -10 -11 -10 -5 0 -7 5 -4 10 3 6 8 10 11 10 2 0 4 -4 4
-10z m-900 -10 c0 -5 -4 -10 -10 -10 -5 0 -10 5 -10 10 0 6 5 10 10 10 6 0 10
-4 10 -10z m680 2 c0 -13 -12 -22 -22 -16 -10 6 -1 24 13 24 5 0 9 -4 9 -8z
m50 -2 c0 -5 -9 -14 -19 -19 -16 -9 -18 -8 -14 9 5 20 33 29 33 10z m60 0 c0
-5 -9 -10 -20 -10 -11 0 -20 5 -20 10 0 6 9 10 20 10 11 0 20 -4 20 -10z
m-1380 -10 c0 -5 -2 -10 -4 -10 -3 0 -8 5 -11 10 -3 6 -1 10 4 10 6 0 11 -4
11 -10z m130 1 c0 -5 -7 -11 -14 -14 -10 -4 -13 -1 -9 9 6 15 23 19 23 5z
m-415 -11 c3 -6 -1 -7 -9 -4 -18 7 -21 14 -7 14 6 0 13 -4 16 -10z m1490 0
c-3 -5 -14 -10 -23 -9 -14 0 -13 2 3 9 27 11 27 11 20 0z m-1565 -10 c0 -5 -4
-10 -10 -10 -5 0 -10 5 -10 10 0 6 5 10 10 10 6 0 10 -4 10 -10z m35 -10 c-2
-31 -15 -37 -15 -7 0 15 4 27 8 27 5 0 8 -9 7 -20z m82 -2 c-3 -8 -6 -5 -6 6
-1 11 2 17 5 13 3 -3 4 -12 1 -19z m200 0 c-3 -8 -6 -5 -6 6 -1 11 2 17 5 13
3 -3 4 -12 1 -19z m893 -4 c0 -8 -5 -12 -10 -9 -6 4 -8 11 -5 16 9 14 15 11
15 -7z m274 10 c11 -4 13 -12 6 -29 -5 -13 -6 -25 -4 -28 3 -3 1 -8 -5 -11 -6
-4 -8 6 -6 24 4 29 -2 35 -32 31 -7 -1 -13 3 -13 9 0 11 29 13 54 4z m316 -4
c0 -5 -7 -7 -15 -4 -8 4 -15 8 -15 10 0 2 7 4 15 4 8 0 15 -4 15 -10z m-2053
-22 c-3 -8 -6 -5 -6 6 -1 11 2 17 5 13 3 -3 4 -12 1 -19z m160 16 c-3 -3 -12
-4 -19 -1 -8 3 -5 6 6 6 11 1 17 -2 13 -5z m58 -4 c3 -6 -1 -7 -9 -4 -18 7
-21 14 -7 14 6 0 13 -4 16 -10z m232 4 c-3 -3 -12 -4 -19 -1 -8 3 -5 6 6 6 11
1 17 -2 13 -5z m946 -1 c-7 -2 -19 -2 -25 0 -7 3 -2 5 12 5 14 0 19 -2 13 -5z
m182 -3 c3 -5 1 -10 -4 -10 -6 0 -11 5 -11 10 0 6 2 10 4 10 3 0 8 -4 11 -10z
m212 4 c-3 -3 -12 -4 -19 -1 -8 3 -5 6 6 6 11 1 17 -2 13 -5z m-1437 -21 c0
-3 -9 -16 -19 -29 -20 -26 -31 -16 -23 22 3 16 9 20 23 17 10 -3 19 -7 19 -10z
m744 1 c3 -8 2 -12 -4 -9 -6 3 -10 10 -10 16 0 14 7 11 14 -7z m162 4 c4 -7 4
-10 -1 -6 -4 4 -14 3 -22 -3 -13 -11 -19 2 -6 14 10 11 21 8 29 -5z m-620 -48
c8 0 14 -7 14 -16 0 -13 -3 -14 -13 -5 -8 6 -17 8 -20 4 -4 -3 -6 11 -6 33 2
30 3 33 6 12 2 -16 11 -28 19 -28z m74 30 c0 -4 -7 -10 -15 -14 -10 -4 -15 1
-15 14 0 13 5 18 15 14 8 -4 15 -10 15 -14z m626 5 c-3 -10 1 -15 11 -15 9 0
14 -3 10 -6 -12 -12 -37 5 -31 21 3 8 8 15 11 15 3 0 3 -7 -1 -15z m181 -17
c-3 -7 -5 -2 -5 12 0 14 2 19 5 13 2 -7 2 -19 0 -25z m283 22 c12 -8 9 -10
-13 -10 -16 0 -26 4 -22 10 8 12 16 12 35 0z m1925 -41 c17 0 39 -4 50 -9 17
-7 16 -9 -10 -10 -49 -3 -69 1 -81 16 -6 8 -19 14 -28 14 -9 0 -16 6 -16 13 0
26 13 26 34 2 14 -16 33 -25 51 -26z m-3547 34 c-10 -2 -26 -2 -35 0 -10 3 -2
5 17 5 19 0 27 -2 18 -5z m72 -2 c0 -6 -4 -13 -10 -16 -5 -3 -10 1 -10 9 0 9
5 16 10 16 6 0 10 -4 10 -9z m597 -13 c-3 -8 -6 -5 -6 6 -1 11 2 17 5 13 3 -3
4 -12 1 -19z m310 16 c-3 -3 -12 -4 -19 -1 -8 3 -5 6 6 6 11 1 17 -2 13 -5z
m253 -4 c0 -5 -7 -7 -15 -4 -8 4 -15 8 -15 10 0 2 7 4 15 4 8 0 15 -4 15 -10z
m-1426 -15 c3 -8 1 -15 -4 -15 -6 0 -10 7 -10 15 0 8 2 15 4 15 2 0 6 -7 10
-15z m46 5 c0 -5 -5 -10 -11 -10 -5 0 -7 5 -4 10 3 6 8 10 11 10 2 0 4 -4 4
-10z m470 6 c0 -2 -7 -6 -15 -10 -8 -3 -15 -1 -15 4 0 6 7 10 15 10 8 0 15 -2
15 -4z m963 -9 c8 -20 -7 -39 -26 -32 -14 6 -14 8 1 25 9 10 18 19 18 19 1 1
4 -5 7 -12z m190 -7 c3 -11 1 -18 -4 -14 -5 3 -9 12 -9 20 0 20 7 17 13 -6z
m-1238 0 c-3 -5 -12 -10 -18 -10 -7 0 -6 4 3 10 19 12 23 12 15 0z m32 -12
c-3 -8 -6 -5 -6 6 -1 11 2 17 5 13 3 -3 4 -12 1 -19z m727 14 c2 -4 0 -14 -5
-22 -8 -13 -10 -13 -18 0 -10 15 -6 30 9 30 5 0 11 -4 14 -8z m81 -2 c3 -6 -1
-7 -9 -4 -18 7 -21 14 -7 14 6 0 13 -4 16 -10z m525 6 c0 -3 -4 -8 -10 -11 -5
-3 -10 -1 -10 4 0 6 5 11 10 11 6 0 10 -2 10 -4z m-1645 -25 c-3 -6 -14 -10
-23 -10 -15 1 -15 2 1 6 9 2 17 9 17 15 0 6 3 9 6 5 3 -3 3 -10 -1 -16z m-120
-1 c3 -5 1 -10 -4 -10 -6 0 -11 5 -11 10 0 6 2 10 4 10 3 0 8 -4 11 -10z
m1105 0 c0 -5 -4 -10 -10 -10 -5 0 -10 5 -10 10 0 6 5 10 10 10 6 0 10 -4 10
-10z m202 -30 c-3 -23 -9 -30 -26 -29 -17 1 -17 2 -3 6 11 3 17 14 17 34 0 17
4 28 8 25 5 -3 7 -19 4 -36z m228 31 c0 -5 -13 -9 -30 -9 -16 1 -30 5 -30 10
0 4 14 8 30 8 17 0 30 -4 30 -9z m2107 -13 c-3 -8 -6 -5 -6 6 -1 11 2 17 5 13
3 -3 4 -12 1 -19z m203 12 c0 -5 -4 -10 -10 -10 -5 0 -10 5 -10 10 0 6 5 10
10 10 6 0 10 -4 10 -10z m555 0 c3 -5 1 -10 -4 -10 -6 0 -11 5 -11 10 0 6 2
10 4 10 3 0 8 -4 11 -10z m-4505 -4 c0 -3 -4 -8 -10 -11 -5 -3 -10 -1 -10 4 0
6 5 11 10 11 6 0 10 -2 10 -4z m127 -28 c-3 -7 -5 -2 -5 12 0 14 2 19 5 13 2
-7 2 -19 0 -25z m1203 9 c0 -7 -5 -19 -10 -27 -7 -12 -12 -12 -22 -2 -9 9 -9
12 0 12 7 0 12 9 12 21 0 11 5 17 10 14 6 -3 10 -12 10 -18z m574 -12 c5 -22
4 -26 -4 -15 -5 8 -10 24 -10 34 0 26 6 18 14 -19z m2823 29 c-3 -3 -12 -4
-19 -1 -8 3 -5 6 6 6 11 1 17 -2 13 -5z m-4421 -19 c-16 -17 -36 -20 -36 -6 0
8 17 16 43 20 5 0 2 -6 -7 -14z m181 -7 c-3 -8 -6 -5 -6 6 -1 11 2 17 5 13 3
-3 4 -12 1 -19z m343 12 c0 -5 -4 -10 -10 -10 -5 0 -10 5 -10 10 0 6 5 10 10
10 6 0 10 -4 10 -10z m-460 -4 c0 -3 -4 -8 -10 -11 -5 -3 -10 -1 -10 4 0 6 5
11 10 11 6 0 10 -2 10 -4z m1010 0 c0 -3 -4 -8 -10 -11 -5 -3 -10 -1 -10 4 0
6 5 11 10 11 6 0 10 -2 10 -4z m118 -10 c-10 -7 -15 -16 -11 -19 3 -4 1 -7 -5
-7 -19 0 -14 28 6 33 27 7 28 7 10 -7z m-1281 -2 c-3 -3 -12 -4 -19 -1 -8 3
-5 6 6 6 11 1 17 -2 13 -5z m573 -4 c0 -5 -8 -10 -17 -10 -15 0 -16 2 -3 10
19 12 20 12 20 0z m655 0 c3 -5 -1 -10 -9 -10 -9 0 -16 5 -16 10 0 6 4 10 9
10 6 0 13 -4 16 -10z m175 0 c0 -5 -2 -10 -4 -10 -3 0 -8 5 -11 10 -3 6 -1 10
4 10 6 0 11 -4 11 -10z m70 0 c0 -5 -2 -10 -4 -10 -3 0 -8 5 -11 10 -3 6 -1
10 4 10 6 0 11 -4 11 -10z m303 1 c5 -1 6 -5 3 -10 -3 -5 -16 -7 -29 -4 -21 4
-21 4 -3 -11 19 -15 19 -16 1 -36 -15 -16 -16 -22 -5 -35 18 -21 5 -31 -15
-11 -9 9 -27 16 -41 16 -14 0 -24 6 -24 14 0 9 7 12 19 9 10 -3 22 0 25 6 4 6
0 11 -8 11 -23 0 -20 17 3 25 12 3 18 12 15 20 -4 10 2 13 23 10 15 -2 32 -4
36 -4z m-1883 -36 c0 -5 -5 -3 -10 5 -5 8 -10 20 -10 25 0 6 5 3 10 -5 5 -8
10 -19 10 -25z m355 25 c3 -5 1 -10 -4 -10 -6 0 -11 5 -11 10 0 6 2 10 4 10 3
0 8 -4 11 -10z m1265 0 c0 -5 -5 -10 -11 -10 -6 0 -9 -7 -6 -15 9 -22 -8 -26
-21 -4 -10 16 -9 19 3 19 8 0 15 5 15 10 0 6 5 10 10 10 6 0 10 -4 10 -10z
m104 -6 c3 -9 6 -24 6 -35 0 -10 7 -19 15 -19 8 0 15 -8 15 -17 0 -13 -3 -14
-11 -6 -6 6 -17 9 -24 7 -9 -4 -11 3 -8 19 3 14 0 34 -6 46 -7 11 -8 21 -2 21
5 0 12 -7 15 -16z m42 0 c-3 -9 -6 -20 -6 -25 0 -6 -4 -8 -9 -5 -12 8 -2 46
11 46 6 0 7 -7 4 -16z m-1583 -1 c-7 -2 -19 -2 -25 0 -7 3 -2 5 12 5 14 0 19
-2 13 -5z m977 -13 c0 -5 -4 -10 -10 -10 -5 0 -10 5 -10 10 0 6 5 10 10 10 6
0 10 -4 10 -10z m260 0 c0 -5 -2 -10 -4 -10 -3 0 -8 5 -11 10 -3 6 -1 10 4 10
6 0 11 -4 11 -10z m49 -74 c-9 -8 -10 -7 -5 7 3 10 7 33 8 50 1 28 2 28 5 -7
3 -22 -1 -43 -8 -50z m-999 64 c0 -5 -6 -10 -14 -10 -8 0 -23 -3 -33 -6 -16
-6 -16 -5 2 9 23 19 45 22 45 7z m757 -12 c-3 -8 -6 -5 -6 6 -1 11 2 17 5 13
3 -3 4 -12 1 -19z m-560 -20 c-3 -8 -6 -5 -6 6 -1 11 2 17 5 13 3 -3 4 -12 1
-19z m727 -2 c-7 -18 -39 -22 -49 -5 -11 17 3 23 20 9 12 -10 16 -9 21 4 4 9
8 15 10 13 3 -2 2 -12 -2 -21z m-203 -19 c-8 -8 -11 -7 -11 4 0 9 3 19 7 23 4
4 9 2 11 -4 3 -7 -1 -17 -7 -23z m129 5 c0 -15 -2 -15 -10 -2 -13 20 -13 33 0
25 6 -3 10 -14 10 -23z m-815 8 c-3 -5 -13 -10 -21 -10 -8 0 -14 5 -14 10 0 6
9 10 21 10 11 0 17 -4 14 -10z m1182 1 c14 12 16 12 11 -1 -2 -8 -15 -15 -28
-15 -13 0 -26 7 -28 15 -5 13 -3 13 11 1 14 -11 20 -11 34 0z m-1247 -11 c0
-5 -5 -10 -11 -10 -5 0 -7 5 -4 10 3 6 8 10 11 10 2 0 4 -4 4 -10z m300 -10
c0 -5 -8 -10 -17 -10 -15 0 -16 2 -3 10 19 12 20 12 20 0z m30 0 c0 -5 -5 -10
-11 -10 -5 0 -7 5 -4 10 3 6 8 10 11 10 2 0 4 -4 4 -10z m525 -1 c11 -17 2
-18 -19 -3 -17 12 -17 14 -4 14 9 0 20 -5 23 -11z m-1068 -5 c-3 -3 -12 -4
-19 -1 -8 3 -5 6 6 6 11 1 17 -2 13 -5z m607 -3 c4 -5 -3 -7 -14 -4 -23 6 -26
13 -6 13 8 0 17 -4 20 -9z m164 -16 c-3 -3 -9 2 -12 12 -6 14 -5 15 5 6 7 -7
10 -15 7 -18z m388 -3 c-8 -9 -19 -13 -22 -9 -10 9 16 38 28 31 6 -4 4 -13 -6
-22z m328 13 c-4 -8 -10 -12 -15 -9 -6 3 -17 0 -26 -8 -14 -11 -16 -11 -11 2
2 8 15 17 29 21 13 4 25 7 26 8 1 1 0 -6 -3 -14z m106 -9 c0 -26 -37 -43 -55
-25 -7 7 -4 10 10 7 14 -2 21 3 23 20 4 29 22 28 22 -2z m-185 4 c3 -6 -1 -7
-9 -4 -18 7 -21 14 -7 14 6 0 13 -4 16 -10z m125 0 c0 -5 -2 -10 -4 -10 -3 0
-8 5 -11 10 -3 6 -1 10 4 10 6 0 11 -4 11 -10z m-965 -10 c3 -5 -1 -10 -10
-10 -9 0 -13 5 -10 10 3 6 8 10 10 10 2 0 7 -4 10 -10z m5500 0 c3 -5 1 -10
-4 -10 -6 0 -11 5 -11 10 0 6 2 10 4 10 3 0 8 -4 11 -10z m-4740 -10 c3 -6 -1
-7 -9 -4 -18 7 -21 14 -7 14 6 0 13 -4 16 -10z m-855 -10 c0 -5 -5 -10 -11
-10 -5 0 -7 5 -4 10 3 6 8 10 11 10 2 0 4 -4 4 -10z m660 -9 c0 -6 -4 -13 -10
-16 -5 -3 -10 1 -10 9 0 9 5 16 10 16 6 0 10 -4 10 -9z m293 -8 c-7 -2 -21 -2
-30 0 -10 3 -4 5 12 5 17 0 24 -2 18 -5z m61 -25 c-3 -5 -12 -2 -20 6 -20 21
-17 28 5 14 11 -7 17 -16 15 -20z m-1034 12 c-8 -5 -19 -10 -25 -10 -5 0 -3 5
5 10 8 5 20 10 25 10 6 0 3 -5 -5 -10z m718 -21 c-3 -8 -7 -3 -11 10 -4 17 -3
21 5 13 5 -5 8 -16 6 -23z m377 22 c10 -17 -12 -21 -25 -6 -10 12 -10 15 3 15
9 0 18 -4 22 -9z m55 -1 c0 -5 -7 -10 -15 -10 -8 0 -15 5 -15 10 0 6 7 10 15
10 8 0 15 -4 15 -10z m-340 -15 c0 -8 -2 -15 -4 -15 -2 0 -6 7 -10 15 -3 8 -1
15 4 15 6 0 10 -7 10 -15z m190 -5 c0 -5 -4 -10 -10 -10 -5 0 -10 5 -10 10 0
6 5 10 10 10 6 0 10 -4 10 -10z m-161 -27 c0 -25 -1 -25 -8 -8 -5 11 -7 23 -4
28 8 14 13 7 12 -20z m218 -10 c-3 -10 -5 -4 -5 12 0 17 2 24 5 18 2 -7 2 -21
0 -30z m2012 23 c10 -12 2 -15 -46 -18 -64 -4 -75 -2 -53 12 11 7 11 10 2 10
-7 0 -15 -6 -18 -13 -6 -17 -57 -21 -51 -4 2 6 14 11 26 10 11 -2 21 2 21 7 0
16 106 12 119 -4z m101 -1 c0 -8 -4 -15 -10 -15 -5 0 -10 7 -10 15 0 8 5 15
10 15 6 0 10 -7 10 -15z m-2210 -10 c10 -12 10 -15 -4 -15 -9 0 -16 7 -16 15
0 8 2 15 4 15 2 0 9 -7 16 -15z m130 -5 c0 -11 -4 -20 -9 -20 -5 0 -7 9 -4 20
3 11 7 20 9 20 2 0 4 -9 4 -20z m-57 -4 c4 -10 1 -13 -8 -9 -8 3 -12 9 -9 14
7 12 11 11 17 -5z m-227 -33 c-3 -3 -13 -3 -22 1 -16 6 -15 8 2 21 16 12 19
12 22 -1 2 -9 1 -18 -2 -21z m308 22 c-4 -8 -8 -15 -10 -15 -2 0 -4 7 -4 15 0
8 4 15 10 15 5 0 7 -7 4 -15z m-374 -9 c0 -2 -7 -7 -16 -10 -8 -3 -12 -2 -9 4
6 10 25 14 25 6z m407 -2 c-3 -3 -12 -4 -19 -1 -8 3 -5 6 6 6 11 1 17 -2 13
-5z m-270 -46 c-3 -8 -6 -5 -6 6 -1 11 2 17 5 13 3 -3 4 -12 1 -19z m43 18 c0
-3 -4 -8 -10 -11 -5 -3 -10 -1 -10 4 0 6 5 11 10 11 6 0 10 -2 10 -4z m37 -2
c-3 -3 -12 -4 -19 -1 -8 3 -5 6 6 6 11 1 17 -2 13 -5z m159 -20 c-4 -9 -9 -15
-11 -12 -3 3 -3 13 1 22 4 9 9 15 11 12 3 -3 3 -13 -1 -22z m-173 -11 c-7 -2
-19 -2 -25 0 -7 3 -2 5 12 5 14 0 19 -2 13 -5z m297 -3 c0 -5 -9 -10 -21 -10
-11 0 -17 5 -14 10 3 6 13 10 21 10 8 0 14 -4 14 -10z m-378 -45 c3 -14 1 -25
-3 -25 -5 0 -9 11 -9 25 0 14 2 25 4 25 2 0 6 -11 8 -25z m375 19 c-3 -3 -12
-4 -19 -1 -8 3 -5 6 6 6 11 1 17 -2 13 -5z m-337 -14 c0 -5 -4 -10 -10 -10 -5
0 -10 5 -10 10 0 6 5 10 10 10 6 0 10 -4 10 -10z m-90 -48 c0 -12 -3 -12 -15
-2 -8 7 -15 13 -15 15 0 1 7 2 15 2 8 0 15 -7 15 -15z m126 3 c13 -13 13 -15
1 -15 -8 0 -17 7 -21 15 -3 8 -3 15 0 15 3 0 12 -7 20 -15z m110 -10 c1 -8 -2
-15 -7 -15 -5 0 -9 -9 -9 -21 0 -14 -5 -19 -17 -17 -10 2 -18 11 -18 21 0 10
-7 22 -15 27 -11 7 -5 8 18 4 26 -5 32 -3 32 11 0 21 13 12 16 -10z m3107 8
c-7 -2 -19 -2 -25 0 -7 3 -2 5 12 5 14 0 19 -2 13 -5z m214 1 c-3 -3 -12 -4
-19 -1 -8 3 -5 6 6 6 11 1 17 -2 13 -5z m-3657 -14 c8 -5 11 -10 5 -10 -5 0
-17 5 -25 10 -8 5 -10 10 -5 10 6 0 17 -5 25 -10z m106 -18 c-10 -2 -22 0 -28
6 -6 6 0 7 19 4 21 -5 23 -7 9 -10z m82 11 c-10 -2 -26 -2 -35 0 -10 3 -2 5
17 5 19 0 27 -2 18 -5z m47 -13 c-3 -5 -13 -10 -21 -10 -8 0 -12 5 -9 10 3 6
13 10 21 10 8 0 12 -4 9 -10z m-60 -20 c-3 -5 -13 -10 -21 -10 -8 0 -14 5 -14
10 0 6 9 10 21 10 11 0 17 -4 14 -10z m175 0 c0 -5 -4 -10 -10 -10 -5 0 -10 5
-10 10 0 6 5 10 10 10 6 0 10 -4 10 -10z m-99 -10 c10 0 19 -4 19 -10 0 -5 -6
-10 -13 -10 -8 0 -12 -14 -12 -39 0 -32 4 -42 22 -50 26 -12 31 -31 8 -31 -8
0 -15 6 -15 14 0 8 -7 17 -16 20 -12 5 -15 17 -12 51 3 38 0 45 -14 45 -10 0
-18 5 -18 11 0 6 7 8 16 5 9 -3 24 -6 35 -6z m-56 -20 c3 -5 -1 -10 -9 -10
-12 0 -16 -10 -16 -35 0 -31 -3 -35 -25 -35 -14 0 -25 4 -25 9 0 5 9 7 19 4
16 -4 19 0 17 19 -1 13 -6 30 -11 38 -6 10 -4 12 8 7 10 -3 17 -2 17 3 0 13
17 13 25 0z m3038 -7 c-7 -2 -21 -2 -30 0 -10 3 -4 5 12 5 17 0 24 -2 18 -5z
m134 1 c-3 -3 -12 -4 -19 -1 -8 3 -5 6 6 6 11 1 17 -2 13 -5z m58 -4 c3 -5 1
-10 -4 -10 -6 0 -11 5 -11 10 0 6 2 10 4 10 3 0 8 -4 11 -10z m-3132 -7 c-7
-2 -19 -2 -25 0 -7 3 -2 5 12 5 14 0 19 -2 13 -5z m3257 3 c0 -3 -4 -8 -10
-11 -5 -3 -10 -1 -10 4 0 6 5 11 10 11 6 0 10 -2 10 -4z m-3430 -13 c0 -5 -11
-8 -24 -8 -13 0 -22 3 -19 8 2 4 13 7 24 7 10 0 19 -3 19 -7z m-213 -35 c-3
-7 -5 -2 -5 12 0 14 2 19 5 13 2 -7 2 -19 0 -25z m383 2 c0 -11 -4 -20 -10
-20 -5 0 -10 9 -10 20 0 11 5 20 10 20 6 0 10 -9 10 -20z m-303 -6 c-3 -3 -12
-4 -19 -1 -8 3 -5 6 6 6 11 1 17 -2 13 -5z m40 0 c-3 -3 -12 -4 -19 -1 -8 3
-5 6 6 6 11 1 17 -2 13 -5z m2656 -13 c5 -5 -1 -11 -12 -14 -12 -3 -19 -1 -15
4 3 5 1 9 -5 9 -5 0 -12 -6 -14 -12 -4 -10 -8 -10 -16 2 -5 8 -8 17 -5 21 5 9
56 1 67 -10z m47 -13 c0 -46 -9 -54 -62 -60 -36 -4 -45 -2 -41 8 3 10 -3 14
-20 14 -31 0 -37 8 -26 35 7 20 10 18 13 -7 0 -7 11 -13 24 -12 103 3 102 3
102 29 0 14 2 25 5 25 3 0 5 -15 5 -32z m43 12 c-10 -11 -21 -20 -26 -20 -4 0
-3 9 3 20 6 11 17 20 25 20 12 0 12 -4 -2 -20z m124 13 c-20 -2 -52 -2 -70 0
-17 2 0 4 38 4 39 0 53 -2 32 -4z m243 -3 c0 -5 -7 -7 -15 -4 -8 4 -15 8 -15
10 0 2 7 4 15 4 8 0 15 -4 15 -10z m-3045 -20 c3 -6 -1 -7 -9 -4 -18 7 -21 14
-7 14 6 0 13 -4 16 -10z m2715 -16 c0 -8 -7 -14 -15 -14 -17 0 -18 2 -9 24 7
18 24 12 24 -10z m490 11 c10 -12 10 -15 -2 -15 -8 0 -15 7 -15 15 0 8 1 15 2
15 2 0 8 -7 15 -15z m-3110 -10 c-7 -8 -16 -15 -21 -15 -5 0 -6 7 -3 15 4 8
13 15 21 15 13 0 13 -3 3 -15z m54 -11 c7 -19 8 -59 1 -52 -11 10 -23 68 -15
68 4 0 11 -7 14 -16z m2316 6 c0 -5 -7 -10 -15 -10 -8 0 -15 5 -15 10 0 6 7
10 15 10 8 0 15 -4 15 -10z m-2374 -48 c-16 -15 -25 -20 -21 -12 13 25 38 50
44 45 3 -3 -8 -18 -23 -33z m2579 3 c3 -27 -12 -34 -21 -10 -7 17 3 51 13 42
3 -4 7 -18 8 -32z m570 25 c3 -5 1 -10 -4 -10 -6 0 -11 5 -11 10 0 6 2 10 4
10 3 0 8 -4 11 -10z m-3038 -30 c-3 -13 0 -20 9 -20 17 0 18 -16 2 -26 -7 -4
-8 -3 -4 4 5 8 -3 12 -24 12 -20 0 -29 -4 -25 -11 4 -6 -3 -5 -14 3 -21 13
-21 13 6 18 19 4 27 11 25 23 -2 10 4 17 14 17 11 0 15 -6 11 -20z m2830 -2
c-3 -8 -6 -5 -6 6 -1 11 2 17 5 13 3 -3 4 -12 1 -19z m43 1 c0 -6 -4 -7 -10
-4 -5 3 -10 11 -10 16 0 6 5 7 10 4 6 -3 10 -11 10 -16z m-2805 -29 c6 -28
-20 -98 -32 -87 -3 3 2 16 11 29 17 24 22 63 7 53 -6 -3 -14 3 -20 13 -7 14
-6 18 9 19 13 1 21 -7 25 -27z m2374 -36 c-6 -7 -8 -18 -4 -24 9 -14 -8 -13
-23 2 -17 17 -15 25 11 33 17 6 19 8 6 12 -11 3 -15 11 -12 24 5 18 7 17 19
-7 11 -20 11 -30 3 -40z m-177 31 c4 -21 3 -23 -13 -14 -20 10 -24 21 -12 32
12 13 21 7 25 -18z m284 9 c18 -15 18 -15 -11 -9 -37 8 -57 25 -29 25 11 0 29
-7 40 -16z m-576 -4 c0 -10 -25 -36 -64 -68 -9 -7 -21 -10 -26 -7 -14 8 -3 25
16 25 20 0 44 24 44 44 0 9 7 16 15 16 8 0 15 -5 15 -10z m645 0 c3 -5 1 -10
-4 -10 -6 0 -11 5 -11 10 0 6 2 10 4 10 3 0 8 -4 11 -10z m182 4 c-3 -3 -12
-4 -19 -1 -8 3 -5 6 6 6 11 1 17 -2 13 -5z m-427 -14 c0 -5 -5 -10 -11 -10 -5
0 -7 5 -4 10 3 6 8 10 11 10 2 0 4 -4 4 -10z m297 -12 c-3 -8 -6 -5 -6 6 -1
11 2 17 5 13 3 -3 4 -12 1 -19z m-1037 2 c0 -5 -4 -10 -10 -10 -5 0 -10 5 -10
10 0 6 5 10 10 10 6 0 10 -4 10 -10z m78 -2 c-2 -7 6 -13 18 -12 16 0 20 -4
16 -19 -4 -17 -1 -19 16 -15 12 4 22 2 22 -4 0 -6 6 -8 14 -5 18 7 42 -18 26
-28 -5 -3 -15 -3 -20 0 -6 3 -17 -1 -26 -9 -17 -17 -13 -19 28 -16 14 1 28 -2
31 -7 3 -4 -15 -8 -39 -9 -46 -1 -57 13 -29 36 23 19 18 31 -10 24 -19 -5 -25
-2 -25 11 0 10 -6 15 -17 13 -14 -2 -19 -15 -21 -50 l-3 -46 36 0 c21 0 42 -5
48 -11 8 -8 3 -10 -22 -5 -25 5 -32 4 -27 -4 4 -7 14 -12 22 -12 8 0 14 -3 14
-7 0 -11 50 -33 72 -33 10 0 18 -7 18 -17 0 -13 -3 -14 -12 -5 -7 7 -20 12
-30 12 -10 0 -18 5 -18 11 0 7 -10 9 -25 5 -19 -5 -23 -3 -19 9 4 10 0 15 -14
15 -12 0 -25 6 -29 14 -4 8 -11 15 -15 15 -5 1 -7 3 -5 6 1 2 -7 10 -17 18
-14 10 -17 21 -12 40 4 16 2 27 -4 27 -13 0 -13 -46 0 -71 8 -15 7 -19 -5 -19
-15 0 -18 11 -17 60 0 45 2 50 16 50 16 0 26 -21 26 -57 0 -42 7 -23 14 40 4
36 2 57 -4 57 -5 0 -10 -7 -10 -15 0 -8 -4 -15 -10 -15 -5 0 -10 9 -10 20 0
16 7 20 30 20 19 0 29 -5 28 -12z m205 5 c-7 -2 -19 -2 -25 0 -7 3 -2 5 12 5
14 0 19 -2 13 -5z m587 -8 c0 -8 -2 -15 -4 -15 -2 0 -6 7 -10 15 -3 8 -1 15 4
15 6 0 10 -7 10 -15z m290 5 c-8 -5 -19 -10 -25 -10 -5 0 -3 5 5 10 8 5 20 10
25 10 6 0 3 -5 -5 -10z m-607 -19 c3 -13 1 -18 -9 -14 -7 2 -10 11 -7 19 7 19
10 18 16 -5z m-303 -1 c0 -5 -4 -10 -10 -10 -5 0 -10 5 -10 10 0 6 5 10 10 10
6 0 10 -4 10 -10z m190 0 c0 -5 -4 -10 -10 -10 -5 0 -10 5 -10 10 0 6 5 10 10
10 6 0 10 -4 10 -10z m31 -23 c-8 -8 -11 -7 -11 4 0 20 13 34 18 19 3 -7 -1
-17 -7 -23z m-2098 16 c-13 -2 -33 -2 -45 0 -13 2 -3 4 22 4 25 0 35 -2 23 -4z
m2784 1 c-3 -3 -12 -4 -19 -1 -8 3 -5 6 6 6 11 1 17 -2 13 -5z m123 -21 c0
-19 -13 -9 -16 12 -1 8 2 13 7 9 5 -3 9 -12 9 -21z m-2814 2 c-3 -8 -1 -14 3
-12 5 1 9 -2 10 -8 1 -5 -4 -10 -11 -10 -6 0 -13 -6 -15 -12 -3 -7 0 -13 6
-13 6 0 11 -4 11 -9 0 -5 -11 -4 -24 2 -16 8 -21 16 -15 22 5 5 9 17 9 26 0
15 10 24 29 28 2 1 1 -6 -3 -14z m105 -3 c-7 -2 -18 1 -23 6 -8 8 -4 9 13 5
13 -4 18 -8 10 -11z m1987 -21 c7 -20 -34 5 -42 25 -6 15 -4 15 16 2 12 -8 24
-20 26 -27z m457 29 c-3 -5 -13 -10 -21 -10 -8 0 -12 5 -9 10 3 6 13 10 21 10
8 0 12 -4 9 -10z m310 0 c3 -6 -1 -7 -9 -4 -18 7 -21 14 -7 14 6 0 13 -4 16
-10z m55 -6 c0 -2 -9 -4 -20 -4 -11 0 -20 4 -20 9 0 5 9 7 20 4 11 -3 20 -7
20 -9z m-1493 0 c-3 -3 -12 -4 -19 -1 -8 3 -5 6 6 6 11 1 17 -2 13 -5z m610
-26 c-3 -7 -5 -2 -5 12 0 14 2 19 5 13 2 -7 2 -19 0 -25z m220 26 c-3 -3 -12
-4 -19 -1 -8 3 -5 6 6 6 11 1 17 -2 13 -5z m-640 -26 c-3 -8 -6 -5 -6 6 -1 11
2 17 5 13 3 -3 4 -12 1 -19z m241 -6 c-1 -15 1 -33 6 -40 4 -7 2 -12 -3 -12
-6 0 -11 5 -11 11 0 7 -10 9 -25 5 -19 -5 -23 -3 -19 9 4 8 15 15 26 15 13 0
18 5 15 14 -5 12 0 26 10 26 2 0 2 -13 1 -28z m366 19 c3 -5 -1 -11 -9 -15 -9
-3 -15 0 -15 9 0 16 16 20 24 6z m63 -13 c-3 -8 -6 -5 -6 6 -1 11 2 17 5 13 3
-3 4 -12 1 -19z m90 0 c-3 -8 -6 -5 -6 6 -1 11 2 17 5 13 3 -3 4 -12 1 -19z
m113 12 c0 -5 -4 -10 -10 -10 -5 0 -10 5 -10 10 0 6 5 10 10 10 6 0 10 -4 10
-10z m-972 -12 c19 -19 14 -29 -8 -16 -20 13 -27 28 -12 28 4 0 13 -5 20 -12z
m262 -6 c0 -13 -12 -22 -22 -16 -10 6 -1 24 13 24 5 0 9 -4 9 -8z m140 -1 c0
-11 -39 -21 -45 -11 -2 4 -2 10 2 14 10 9 43 7 43 -3z m260 5 c0 -3 -4 -8 -10
-11 -5 -3 -10 -1 -10 4 0 6 5 11 10 11 6 0 10 -2 10 -4z m-2010 -16 c0 -12
-59 -10 -66 2 -3 4 11 8 30 8 20 0 36 -5 36 -10z m1850 -10 c0 -14 -6 -20 -22
-19 -17 1 -19 2 -5 6 9 2 17 8 17 13 0 5 -8 11 -17 13 -14 4 -12 5 5 6 16 1
22 -5 22 -19z m240 4 c0 -8 -4 -12 -10 -9 -5 3 -10 10 -10 16 0 5 5 9 10 9 6
0 10 -7 10 -16z m245 -4 c-1 -11 -7 -26 -15 -33 -10 -10 -11 -9 -5 2 5 9 1 19
-11 29 -16 12 -16 14 -2 9 10 -3 20 -2 23 3 9 15 12 12 10 -10z m-860 0 c-3
-5 -13 -10 -21 -10 -8 0 -12 5 -9 10 3 6 13 10 21 10 8 0 12 -4 9 -10z m495 6
c0 -2 -7 -6 -15 -10 -8 -3 -15 -1 -15 4 0 6 7 10 15 10 8 0 15 -2 15 -4z
m-2097 -12 c8 -8 -3 -34 -14 -34 -5 0 -9 9 -9 20 0 19 11 26 23 14z m47 2 c0
-3 -4 -8 -10 -11 -5 -3 -10 -1 -10 4 0 6 5 11 10 11 6 0 10 -2 10 -4z m1700
-27 c0 -5 -4 -9 -10 -9 -5 0 -10 -7 -10 -16 0 -10 6 -14 15 -10 8 3 15 1 15
-4 0 -6 -8 -10 -17 -10 -15 0 -16 -2 -3 -10 13 -8 13 -10 -1 -10 -13 0 -17 9
-15 44 0 30 5 42 13 39 7 -3 13 -9 13 -14z m1134 12 c4 -5 -1 -8 -9 -7 -21 3
-31 16 -12 16 9 0 18 -4 21 -9z m-697 -7 c-3 -3 -12 -4 -19 -1 -8 3 -5 6 6 6
11 1 17 -2 13 -5z m-2287 -14 c-19 -13 -30 -13 -30 0 0 6 10 10 23 10 18 0 19
-2 7 -10z m1990 -23 c0 -5 -4 -5 -10 -2 -5 3 -10 14 -10 23 0 15 2 15 10 2 5
-8 10 -19 10 -23z m-1916 7 c3 -8 2 -12 -4 -9 -6 3 -10 10 -10 16 0 14 7 11
14 -7z m113 -4 c4 -16 9 -18 24 -9 15 7 19 6 19 -5 0 -8 3 -16 8 -19 4 -2 2
-2 -5 -1 -6 2 -14 -2 -16 -9 -3 -9 -8 -9 -18 1 -15 13 -49 17 -49 4 0 -5 -22
-9 -49 -9 -40 -1 -48 2 -44 14 3 8 9 11 12 6 9 -14 55 -8 82 10 20 15 22 19 9
27 -13 8 -12 10 3 10 11 0 21 -9 24 -20z m1729 6 c8 -8 11 -22 8 -30 -7 -19
12 -22 20 -3 5 9 7 9 12 0 3 -7 12 -9 21 -6 10 4 14 2 10 -4 -4 -6 -21 -10
-39 -9 -26 1 -34 6 -36 24 -2 12 -8 22 -13 22 -5 0 -9 5 -9 10 0 14 9 12 26
-4z m179 -5 c3 -5 1 -12 -5 -16 -5 -3 -10 1 -10 9 0 18 6 21 15 7z m-2248 -23
c-3 -8 -6 -5 -6 6 -1 11 2 17 5 13 3 -3 4 -12 1 -19z m193 7 c0 -8 -4 -15 -10
-15 -5 0 -10 7 -10 15 0 8 5 15 10 15 6 0 10 -7 10 -15z m97 9 c-3 -3 -12 -4
-19 -1 -8 3 -5 6 6 6 11 1 17 -2 13 -5z m1663 -16 c0 -19 -2 -20 -10 -8 -13
19 -13 30 0 30 6 0 10 -10 10 -22z m467 16 c-3 -3 -12 -4 -19 -1 -8 3 -5 6 6
6 11 1 17 -2 13 -5z m364 -4 c23 -13 24 -26 3 -34 -9 -3 -12 -2 -9 5 4 6 -1
17 -11 24 -22 17 -11 20 17 5z m-961 -10 c0 -13 -11 -13 -30 0 -12 8 -11 10 8
10 12 0 22 -4 22 -10z m408 -9 c10 -6 10 -10 -3 -21 -13 -11 -15 -10 -9 3 4
11 -2 17 -18 20 -19 4 -19 4 -3 5 11 1 26 -2 33 -7z m103 -14 c-10 -9 -11 -8
-5 6 3 10 9 15 12 12 3 -3 0 -11 -7 -18z m-481 -12 c7 -13 20 -24 29 -23 29 2
51 -2 51 -10 0 -4 -19 -6 -42 -4 -42 4 -68 23 -68 49 0 21 16 15 30 -12z m425
15 c3 -5 2 -10 -4 -10 -5 0 -13 5 -16 10 -3 6 -2 10 4 10 5 0 13 -4 16 -10z
m122 4 c-3 -3 -12 -4 -19 -1 -8 3 -5 6 6 6 11 1 17 -2 13 -5z m148 -4 c3 -6
-1 -7 -9 -4 -18 7 -21 14 -7 14 6 0 13 -4 16 -10z m-792 -7 c-22 -8 -14 -23
12 -23 16 0 25 6 25 15 0 8 4 15 10 15 5 0 7 -7 4 -15 -4 -8 -1 -15 5 -15 6 0
11 -11 11 -25 0 -18 5 -25 19 -25 11 0 22 4 25 8 9 16 66 1 65 -17 0 -10 -2
-11 -6 -3 -5 14 -53 17 -53 3 0 -11 -38 -21 -56 -14 -9 3 -11 14 -7 34 4 22 2
29 -11 29 -19 0 -21 -16 -4 -26 8 -5 6 -10 -8 -15 -30 -12 -54 -10 -51 3 1 8
-12 13 -37 15 -47 3 -47 3 -39 32 5 20 11 22 39 18 19 -3 36 -1 39 4 4 5 12 9
18 8 9 0 9 -2 0 -6z m894 -9 c-3 -3 -12 -4 -19 -1 -8 3 -5 6 6 6 11 1 17 -2
13 -5z m-2670 -10 c-3 -3 -12 -4 -19 -1 -8 3 -5 6 6 6 11 1 17 -2 13 -5z m71
-1 c-10 -2 -26 -2 -35 0 -10 3 -2 5 17 5 19 0 27 -2 18 -5z m1962 -7 c0 -3 -4
-8 -10 -11 -5 -3 -10 -1 -10 4 0 6 5 11 10 11 6 0 10 -2 10 -4z m25 -6 c3 -5
1 -10 -4 -10 -6 0 -11 5 -11 10 0 6 2 10 4 10 3 0 8 -4 11 -10z m-2358 -32
c-3 -8 -6 -5 -6 6 -1 11 2 17 5 13 3 -3 4 -12 1 -19z m2293 12 c0 -5 -4 -10
-9 -10 -6 0 -13 5 -16 10 -3 6 1 10 9 10 9 0 16 -4 16 -10z m37 -6 c-3 -3 -12
-4 -19 -1 -8 3 -5 6 6 6 11 1 17 -2 13 -5z m75 -33 c-5 -13 -6 -13 -10 0 -3 7
-10 20 -16 28 -9 12 -8 12 11 1 13 -8 19 -20 15 -29z m163 29 c3 -5 1 -10 -4
-10 -6 0 -11 5 -11 10 0 6 2 10 4 10 3 0 8 -4 11 -10z m45 0 c0 -5 -4 -10 -10
-10 -5 0 -10 5 -10 10 0 6 5 10 10 10 6 0 10 -4 10 -10z m-2260 -10 c-13 -8
-12 -10 3 -10 9 0 17 -5 17 -11 0 -17 -34 -5 -38 14 -2 11 3 17 15 17 15 0 16
-2 3 -10z m2650 0 c0 -5 -5 -10 -11 -10 -5 0 -7 5 -4 10 3 6 8 10 11 10 2 0 4
-4 4 -10z m-2703 -7 c-4 -3 -2 -12 4 -20 9 -10 7 -13 -9 -13 -15 0 -20 6 -19
20 1 11 8 20 16 20 8 0 11 -3 8 -7z m2010 1 c-3 -3 -12 -4 -19 -1 -8 3 -5 6 6
6 11 1 17 -2 13 -5z m-1890 -10 c-3 -3 -12 -4 -19 -1 -8 3 -5 6 6 6 11 1 17
-2 13 -5z m2050 -9 c2 -5 -8 -10 -22 -10 -25 0 -31 6 -18 19 9 9 36 3 40 -9z
m-179 -7 c9 -9 12 -9 12 2 0 10 5 9 19 -4 12 -11 21 -14 26 -7 9 16 25 13 25
-4 0 -17 -45 -21 -55 -5 -3 5 -12 7 -19 4 -7 -3 -19 2 -26 11 -15 18 0 21 18
3z m222 -18 c0 -5 -4 -10 -10 -10 -5 0 -10 5 -10 10 0 6 5 10 10 10 6 0 10 -4
10 -10z m27 -12 c-3 -8 -6 -5 -6 6 -1 11 2 17 5 13 3 -3 4 -12 1 -19z m-2317
-4 c0 -7 -8 -10 -20 -7 -11 3 -20 9 -20 14 0 4 9 7 20 6 11 -1 20 -7 20 -13z
m2177 -21 c-3 -10 -5 -4 -5 12 0 17 2 24 5 18 2 -7 2 -21 0 -30z m78 14 c6 -5
-1 -5 -14 -2 -18 6 -22 4 -16 -6 7 -12 5 -12 -6 -1 -12 11 -12 14 1 22 8 5 17
6 20 2 3 -4 10 -10 15 -15z m-2305 3 c0 -5 -2 -10 -4 -10 -3 0 -8 5 -11 10 -3
6 -1 10 4 10 6 0 11 -4 11 -10z m2135 0 c-3 -5 0 -10 7 -10 9 0 9 -3 -2 -10
-8 -5 -33 -9 -55 -8 l-40 1 45 7 c25 4 41 8 37 8 -8 2 0 22 9 22 3 0 2 -4 -1
-10z m-2000 -29 c-3 -6 -11 -8 -17 -5 -6 4 -5 9 3 15 16 10 23 4 14 -10z m-40
-20 c3 -8 0 -11 -9 -8 -7 3 -19 0 -25 -6 -8 -8 -11 -7 -11 5 0 9 -6 18 -12 21
-7 2 2 4 19 3 18 -1 35 -7 38 -15z m-105 -11 c0 -5 -5 -10 -11 -10 -5 0 -7 5
-4 10 3 6 8 10 11 10 2 0 4 -4 4 -10z m47 -6 c-3 -3 -12 -4 -19 -1 -8 3 -5 6
6 6 11 1 17 -2 13 -5z m101 -11 c-2 -15 5 -19 40 -21 33 -2 42 0 42 12 0 23
22 15 38 -14 12 -22 11 -26 -10 -41 -39 -30 -162 -41 -186 -17 -9 9 -12 8 -12
-5 0 -12 9 -17 32 -17 39 0 27 -15 -19 -25 -22 -4 -33 -3 -33 5 0 6 5 8 10 5
6 -3 10 -1 10 4 0 6 -5 11 -10 11 -7 0 -7 7 1 21 8 15 14 18 22 10 6 -6 20
-11 30 -11 16 0 17 2 7 15 -11 13 -10 18 9 31 12 9 19 20 16 25 -4 5 -3 14 0
19 10 16 16 12 13 -7z m47 -3 c3 -5 1 -10 -4 -10 -6 0 -11 5 -11 10 0 6 2 10
4 10 3 0 8 -4 11 -10z m1907 3 c-36 -4 -42 -7 -31 -19 8 -10 8 -14 0 -14 -6 0
-11 5 -11 11 0 5 -4 7 -10 4 -5 -3 -10 -2 -10 4 0 14 20 20 65 18 l40 0 -43
-4z m-2089 -10 c-7 -2 -19 -2 -25 0 -7 3 -2 5 12 5 14 0 19 -2 13 -5z m97 3
c0 -11 -19 -15 -25 -6 -3 5 1 10 9 10 9 0 16 -2 16 -4z m2015 -26 c-3 -5 -10
-10 -16 -10 -5 0 -9 5 -9 10 0 6 7 10 16 10 8 0 12 -4 9 -10z m135 0 c0 -5 -4
-10 -10 -10 -5 0 -10 5 -10 10 0 6 5 10 10 10 6 0 10 -4 10 -10z m-2330 -10
c0 -5 -5 -10 -11 -10 -5 0 -7 5 -4 10 3 6 8 10 11 10 2 0 4 -4 4 -10z m102
-22 c-15 -15 -24 -6 -16 16 5 12 10 14 17 7 8 -8 8 -14 -1 -23z m2196 -12 c-1
-14 -6 -22 -10 -20 -12 7 -10 44 2 44 5 0 9 -11 8 -24z m197 14 c3 -5 1 -10
-4 -10 -6 0 -11 5 -11 10 0 6 2 10 4 10 3 0 8 -4 11 -10z m99 -1 c-6 -11 -44
-12 -44 -1 0 4 11 8 25 8 14 1 22 -2 19 -7z m-237 -5 c-3 -3 -12 -4 -19 -1 -8
3 -5 6 6 6 11 1 17 -2 13 -5z m-277 -19 c0 -8 -7 -15 -15 -15 -9 0 -12 6 -9
15 4 8 10 15 15 15 5 0 9 -7 9 -15z m171 -21 c-5 -16 -10 -21 -10 -12 -1 18
10 51 15 45 2 -1 -1 -16 -5 -33z m130 8 c-7 -2 -18 1 -23 6 -8 8 -4 9 13 5 13
-4 18 -8 10 -11z m-2321 -17 c0 -14 -2 -25 -4 -25 -2 0 -6 11 -8 25 -3 14 -1
25 3 25 5 0 9 -11 9 -25z m31 -20 l-8 -30 -5 33 c-5 34 0 48 14 34 4 -4 4 -21
-1 -37z m2709 35 c0 -5 -2 -10 -4 -10 -3 0 -8 5 -11 10 -3 6 -1 10 4 10 6 0
11 -4 11 -10z m-3197 -7 c-7 -2 -19 -2 -25 0 -7 3 -2 5 12 5 14 0 19 -2 13 -5z
m450 -63 c-5 -6 -42 41 -43 55 0 6 11 -3 24 -20 13 -16 22 -32 19 -35z m2277
50 c0 -5 -5 -10 -11 -10 -5 0 -7 5 -4 10 3 6 8 10 11 10 2 0 4 -4 4 -10z m83
3 c-7 -2 -19 -2 -25 0 -7 3 -2 5 12 5 14 0 19 -2 13 -5z m-2413 -13 c0 -5 -7
-10 -16 -10 -8 0 -12 5 -9 10 3 6 10 10 16 10 5 0 9 -4 9 -10z m180 -20 c0 -5
-12 -10 -26 -10 -14 0 -23 4 -19 10 3 6 15 10 26 10 10 0 19 -4 19 -10z m2315
0 c3 -5 -1 -10 -9 -10 -9 0 -16 5 -16 10 0 6 4 10 9 10 6 0 13 -4 16 -10z
m-2259 -76 c-3 -16 0 -24 9 -24 10 0 11 -5 2 -24 -10 -22 -13 -22 -25 -7 -13
16 -14 8 -1 -55 1 -5 0 -20 -1 -34 -2 -21 -3 -20 -11 10 -17 68 -20 130 -6
130 7 0 13 9 13 19 0 11 -4 18 -7 15 -11 -7 -21 15 -13 28 12 18 45 -30 40
-58z m1886 49 c10 -9 18 -20 18 -25 0 -11 -38 14 -44 29 -7 18 4 16 26 -4z
m93 -1 c-3 -3 -11 0 -18 7 -9 10 -8 11 6 5 10 -3 15 -9 12 -12z m-2415 4 c0
-3 -4 -8 -10 -11 -5 -3 -10 -1 -10 4 0 6 5 11 10 11 6 0 10 -2 10 -4z m227
-22 c-9 -9 -28 6 -21 18 4 6 10 6 17 -1 6 -6 8 -13 4 -17z m136 1 c33 -29 34
-35 5 -35 -22 -1 -22 -1 -5 -14 16 -12 17 -17 5 -37 -26 -47 -33 -48 -35 -5 0
23 -3 58 -6 79 -6 43 -2 45 36 12z m2284 19 c-3 -3 -12 -4 -19 -1 -8 3 -5 6 6
6 11 1 17 -2 13 -5z m-2370 -10 c-3 -3 -12 -4 -19 -1 -8 3 -5 6 6 6 11 1 17
-2 13 -5z m-642 -14 c3 -5 1 -10 -4 -10 -6 0 -11 5 -11 10 0 6 2 10 4 10 3 0
8 -4 11 -10z m2910 0 c-3 -5 -13 -6 -22 -3 -12 5 -15 2 -10 -10 7 -18 -1 -21
-27 -11 -13 5 -14 9 -5 20 13 16 74 20 64 4z m-2240 -10 c3 -5 1 -10 -4 -10
-6 0 -11 5 -11 10 0 6 2 10 4 10 3 0 8 -4 11 -10z m2093 -1 c-2 -6 -6 -9 -9
-7 -3 2 -13 -3 -22 -11 -15 -11 -17 -11 -17 1 0 8 3 18 7 21 11 11 45 8 41 -4z
m42 -5 c0 -8 -4 -12 -10 -9 -5 3 -10 10 -10 16 0 5 5 9 10 9 6 0 10 -7 10 -16z
m154 1 c-4 -8 -14 -15 -23 -15 -14 1 -13 3 3 15 25 19 27 19 20 0z m-2384 -5
c0 -5 -5 -10 -11 -10 -5 0 -7 5 -4 10 3 6 8 10 11 10 2 0 4 -4 4 -10z m60 -4
c0 -3 -4 -8 -10 -11 -5 -3 -10 -1 -10 4 0 6 5 11 10 11 6 0 10 -2 10 -4z m25
-26 c-27 -12 -43 -12 -25 0 8 5 22 9 30 9 10 0 8 -3 -5 -9z m-120 -10 c3 -5 1
-10 -4 -10 -6 0 -11 5 -11 10 0 6 2 10 4 10 3 0 8 -4 11 -10z m2265 6 c0 -3
-4 -8 -10 -11 -5 -3 -10 -1 -10 4 0 6 5 11 10 11 6 0 10 -2 10 -4z m80 -6 c0
-5 -5 -10 -11 -10 -5 0 -7 5 -4 10 3 6 8 10 11 10 2 0 4 -4 4 -10z m-2047 -45
c-25 -19 -28 -11 -6 21 15 23 19 25 21 10 2 -10 -5 -24 -15 -31z m1934 39 c-3
-3 -12 -4 -19 -1 -8 3 -5 6 6 6 11 1 17 -2 13 -5z m-2103 -18 c9 3 16 1 16 -5
0 -6 -16 -11 -35 -11 -33 0 -43 8 -28 23 3 4 12 2 18 -3 7 -6 20 -8 29 -4z
m2426 4 c0 -5 -4 -10 -10 -10 -5 0 -10 5 -10 10 0 6 5 10 10 10 6 0 10 -4 10
-10z m-296 -21 c-3 -5 -10 -7 -15 -3 -5 3 -7 10 -3 15 3 5 10 7 15 3 5 -3 7
-10 3 -15z m226 7 c0 -9 -30 -14 -35 -6 -4 6 3 10 14 10 12 0 21 -2 21 -4z
m-2283 -28 c-3 -8 -6 -5 -6 6 -1 11 2 17 5 13 3 -3 4 -12 1 -19z m2093 12 c0
-5 -2 -10 -4 -10 -3 0 -8 5 -11 10 -3 6 -1 10 4 10 6 0 11 -4 11 -10z m105
-10 c3 -5 1 -10 -4 -10 -6 0 -11 5 -11 10 0 6 2 10 4 10 3 0 8 -4 11 -10z
m-2415 -16 c0 -2 -7 -4 -15 -4 -8 0 -15 4 -15 10 0 5 7 7 15 4 8 -4 15 -8 15
-10z m120 -4 c0 -5 -8 -10 -17 -10 -15 0 -16 2 -3 10 19 12 20 12 20 0z m50
-15 c0 -8 -2 -15 -4 -15 -2 0 -6 7 -10 15 -3 8 -1 15 4 15 6 0 10 -7 10 -15z
m60 -4 c0 -6 -4 -13 -10 -16 -5 -3 -10 1 -10 9 0 9 5 16 10 16 6 0 10 -4 10
-9z m235 -5 c25 -12 27 -15 12 -21 -10 -4 -24 -2 -33 5 -11 10 -18 10 -26 2
-9 -9 -6 -12 11 -12 17 0 22 -4 17 -16 -4 -9 -1 -23 5 -30 6 -7 8 -18 4 -24
-9 -15 -35 7 -35 29 0 9 -4 21 -10 27 -12 12 -1 54 14 54 6 -1 25 -7 41 -14z
m-165 -16 c0 -5 -2 -10 -4 -10 -3 0 -8 5 -11 10 -3 6 -1 10 4 10 6 0 11 -4 11
-10z m-100 -4 c0 -3 -4 -8 -10 -11 -5 -3 -10 -1 -10 4 0 6 5 11 10 11 6 0 10
-2 10 -4z m1885 -18 c7 -7 6 -12 -2 -15 -7 -3 -13 -9 -13 -15 0 -6 6 -8 14 -5
8 3 17 -1 20 -9 4 -12 1 -14 -14 -9 -14 5 -20 2 -20 -9 0 -9 -5 -16 -10 -16
-9 0 -7 27 6 68 2 7 -5 12 -16 12 -11 0 -20 5 -20 11 0 12 39 2 55 -13z
m-1723 -13 c-6 -31 -8 -31 -14 0 -3 16 -1 25 7 25 8 0 10 -9 7 -25z m-82 7 c0
-4 -9 -8 -20 -9 -11 -1 -20 2 -20 8 0 5 9 9 20 9 11 0 20 -4 20 -8z m2435 -2
c3 -5 2 -10 -4 -10 -5 0 -13 5 -16 10 -3 6 -2 10 4 10 5 0 13 -4 16 -10z
m-460 -20 c3 -5 -1 -10 -9 -10 -9 0 -16 5 -16 10 0 6 4 10 9 10 6 0 13 -4 16
-10z m-1972 -15 c4 -8 2 -17 -3 -20 -6 -4 -10 3 -10 14 0 25 6 27 13 6z m1877
-4 c0 -14 -18 -23 -31 -15 -8 4 -7 9 2 15 18 11 29 11 29 0z m215 -1 c-3 -5
-11 -10 -16 -10 -6 0 -7 5 -4 10 3 6 11 10 16 10 6 0 7 -4 4 -10z m450 -8 c-3
-3 -11 0 -18 7 -9 10 -8 11 6 5 10 -3 15 -9 12 -12z"/>
<path d="M3632 3015 c0 -16 2 -22 5 -12 2 9 2 23 0 30 -3 6 -5 -1 -5 -18z"/>
<path d="M4260 1000 c0 -5 5 -10 10 -10 6 0 10 5 10 10 0 6 -4 10 -10 10 -5 0
-10 -4 -10 -10z"/>
<path d="M3460 690 c-13 -8 -12 -10 3 -10 9 0 17 5 17 10 0 12 -1 12 -20 0z"/>
<path d="M3510 674 c0 -7 27 -34 33 -34 3 0 3 9 0 20 -5 17 -33 30 -33 14z"/>
<path d="M1754 448 c-4 -6 0 -16 9 -23 19 -13 70 -8 61 6 -3 5 0 9 5 9 6 0 11
5 11 10 0 14 -77 13 -86 -2z m46 -8 c0 -5 -9 -10 -21 -10 -11 0 -17 5 -14 10
3 6 13 10 21 10 8 0 14 -4 14 -10z"/>
<path d="M2550 1832 c0 -13 4 -20 10 -17 6 3 10 -1 10 -9 0 -9 -4 -16 -10 -16
-5 0 -10 -4 -10 -10 0 -5 8 -10 17 -10 9 0 25 -7 35 -17 17 -15 18 -15 18 0 0
10 4 17 10 17 5 0 7 6 4 14 -3 8 -1 23 6 33 9 15 10 9 7 -30 -4 -39 -2 -46 9
-36 8 6 11 15 8 21 -3 5 -1 15 5 22 19 22 -10 42 -60 41 -24 -1 -47 4 -51 9
-4 6 -8 1 -8 -12z m63 -24 c6 -23 1 -38 -12 -38 -11 0 -22 40 -15 52 9 15 22
8 27 -14z"/>
<path d="M2735 1812 c-13 -13 -2 -22 26 -22 19 0 29 4 27 12 -4 12 -44 19 -53
10z"/>
<path d="M3075 1810 c-3 -5 1 -10 9 -10 9 0 16 5 16 10 0 6 -4 10 -9 10 -6 0
-13 -4 -16 -10z"/>
<path d="M2720 1760 c0 -5 5 -10 11 -10 5 0 7 5 4 10 -3 6 -8 10 -11 10 -2 0
-4 -4 -4 -10z"/>
<path d="M2777 1763 c-9 -2 -15 -9 -12 -14 9 -14 22 -11 29 6 3 8 4 14 3 14
-1 -1 -10 -3 -20 -6z"/>
<path d="M2570 1721 c0 -17 2 -31 4 -31 8 0 13 51 5 56 -5 3 -9 -9 -9 -25z"/>
<path d="M2818 1743 c7 -3 16 -2 19 1 4 3 -2 6 -13 5 -11 0 -14 -3 -6 -6z"/>
<path d="M2358 1723 c7 -3 16 -2 19 1 4 3 -2 6 -13 5 -11 0 -14 -3 -6 -6z"/>
<path d="M2631 1714 c0 -11 3 -14 6 -6 3 7 2 16 -1 19 -3 4 -6 -2 -5 -13z"/>
<path d="M2655 1720 c3 -5 8 -10 11 -10 2 0 4 5 4 10 0 6 -5 10 -11 10 -5 0
-7 -4 -4 -10z"/>
<path d="M2720 1726 c0 -2 9 -6 20 -9 11 -3 20 -1 20 4 0 5 -9 9 -20 9 -11 0
-20 -2 -20 -4z"/>
<path d="M2810 1719 c0 -5 5 -7 10 -4 6 3 10 8 10 11 0 2 -4 4 -10 4 -5 0 -10
-5 -10 -11z"/>
<path d="M2855 1720 c-3 -5 -1 -10 4 -10 6 0 11 5 11 10 0 6 -2 10 -4 10 -3 0
-8 -4 -11 -10z"/>
<path d="M2697 1703 c-4 -3 -7 -13 -7 -22 1 -13 3 -13 11 2 11 19 8 33 -4 20z"/>
<path d="M2325 1690 c3 -5 10 -10 16 -10 5 0 9 5 9 10 0 6 -7 10 -16 10 -8 0
-12 -4 -9 -10z"/>
<path d="M2405 1690 c-3 -5 1 -10 10 -10 9 0 13 5 10 10 -3 6 -8 10 -10 10 -2
0 -7 -4 -10 -10z"/>
<path d="M2455 1689 c-10 -15 3 -25 16 -12 7 7 7 13 1 17 -6 3 -14 1 -17 -5z"/>
<path d="M2723 1690 c5 -20 84 -23 84 -4 0 8 -5 10 -11 6 -17 -13 -60 -12 -69
1 -6 8 -7 8 -4 -3z"/>
<path d="M2195 1680 c3 -5 11 -10 16 -10 6 0 7 5 4 10 -3 6 -11 10 -16 10 -6
0 -7 -4 -4 -10z"/>
<path d="M2605 1680 c3 -5 11 -10 16 -10 6 0 7 5 4 10 -3 6 -11 10 -16 10 -6
0 -7 -4 -4 -10z"/>
<path d="M2166 1656 c4 -16 2 -26 -5 -26 -6 0 -11 7 -11 15 0 11 -10 15 -37
14 -37 -1 -37 -2 -8 -8 17 -4 29 -12 28 -19 -2 -7 5 -12 15 -13 14 0 14 -2 -3
-9 -15 -6 -8 -9 27 -9 26 -1 49 3 52 8 3 4 -10 23 -30 40 -34 32 -35 32 -28 7z
m44 -36 c0 -5 -7 -10 -15 -10 -8 0 -15 5 -15 10 0 6 7 10 15 10 8 0 15 -4 15
-10z"/>
<path d="M2305 1660 c-30 -8 -30 -8 8 -9 20 0 37 4 37 9 0 11 -2 11 -45 0z"/>
<path d="M2409 1661 c12 -8 12 -12 2 -25 -8 -10 -9 -16 -3 -16 6 0 14 5 17 10
3 6 15 10 26 10 10 0 19 5 19 11 0 6 -9 8 -20 4 -11 -4 -20 -2 -20 4 0 6 -8
11 -17 11 -15 0 -15 -2 -4 -9z"/>
<path d="M2710 1660 c0 -13 18 -22 24 -11 3 5 -1 11 -9 15 -8 3 -15 1 -15 -4z"/>
<path d="M2242 1641 c6 -11 26 -21 45 -23 44 -5 42 8 -2 16 -20 4 -33 11 -30
17 4 5 -1 9 -9 9 -13 0 -14 -3 -4 -19z"/>
<path d="M2370 1644 c0 -8 5 -12 10 -9 6 4 8 11 5 16 -9 14 -15 11 -15 -7z"/>
<path d="M2455 1620 c-3 -5 -16 -10 -28 -11 -12 0 -16 -3 -9 -6 18 -7 62 5 62
17 0 13 -17 13 -25 0z"/>
<path d="M2322 1605 c-7 -8 -9 -15 -4 -15 4 0 8 -16 9 -35 1 -25 -3 -35 -12
-33 -8 2 -14 -1 -15 -7 -1 -5 -11 -15 -23 -22 -22 -12 -21 -12 6 -13 17 0 27
5 27 14 0 8 7 16 14 19 11 5 16 -4 18 -36 4 -53 31 -59 36 -8 2 19 -1 31 -6
27 -5 -3 -8 -17 -7 -31 2 -14 -1 -25 -6 -25 -5 0 -9 17 -9 38 0 34 3 38 23 37
15 -1 21 -8 19 -21 -2 -12 0 -15 5 -7 4 6 30 14 56 18 53 8 55 14 8 20 -21 3
-29 1 -25 -7 5 -7 2 -8 -7 -3 -7 5 -27 10 -44 11 -45 2 -45 2 -45 24 0 17 4
18 25 10 19 -7 25 -6 25 4 0 8 3 21 6 30 3 9 1 16 -5 16 -6 0 -11 -6 -11 -14
0 -9 -7 -12 -19 -9 -12 3 -17 11 -14 19 7 18 -8 17 -25 -1z"/>
<path d="M2236 1594 c-8 -21 -8 -24 3 -24 5 0 11 9 14 20 6 24 -8 27 -17 4z"/>
<path d="M2490 1600 c0 -5 5 -10 11 -10 5 0 7 5 4 10 -3 6 -8 10 -11 10 -2 0
-4 -4 -4 -10z"/>
<path d="M2150 1553 c0 -20 3 -33 7 -29 11 11 12 66 2 66 -5 0 -9 -16 -9 -37z"/>
<path d="M2262 1559 c-7 -11 -17 -17 -23 -13 -6 3 -9 -2 -7 -12 2 -15 -5 -20
-32 -25 l-35 -6 38 -2 c20 0 37 3 37 9 0 5 8 7 18 4 14 -5 14 -4 2 5 -12 9
-12 11 2 16 19 7 31 32 20 39 -5 3 -14 -4 -20 -15z"/>
<path d="M2410 1560 c0 -5 5 -10 10 -10 6 0 10 5 10 10 0 6 -4 10 -10 10 -5 0
-10 -4 -10 -10z"/>
<path d="M2450 1560 c0 -5 5 -10 10 -10 6 0 10 5 10 10 0 6 -4 10 -10 10 -5 0
-10 -4 -10 -10z"/>
<path d="M2125 1510 c3 -5 8 -10 11 -10 2 0 4 5 4 10 0 6 -5 10 -11 10 -5 0
-7 -4 -4 -10z"/>
<path d="M2100 1480 c0 -19 3 -21 12 -12 9 9 9 15 0 24 -9 9 -12 7 -12 -12z"/>
<path d="M2220 1484 c0 -3 7 -12 15 -20 16 -17 18 -14 9 10 -6 15 -24 23 -24
10z"/>
<path d="M2308 1471 c-6 -10 -18 -17 -25 -14 -7 3 -13 0 -13 -7 0 -8 9 -10 26
-6 20 5 25 4 21 -7 -3 -8 -2 -19 2 -26 4 -7 8 8 7 33 0 26 -1 46 -3 46 -2 0
-8 -9 -15 -19z"/>
<path d="M2190 1456 c0 -9 30 -14 35 -6 4 6 -3 10 -14 10 -12 0 -21 -2 -21 -4z"/>
<path d="M2394 1440 c1 -9 14 -16 35 -18 19 -2 31 1 27 6 -3 5 -16 7 -30 5
-15 -3 -26 0 -29 9 -3 9 -4 9 -3 -2z"/>
<path d="M2220 1421 c0 -6 5 -13 10 -16 6 -3 10 -2 10 4 0 5 8 12 18 14 10 3
6 5 -10 6 -16 0 -28 -3 -28 -8z"/>
<path d="M2180 1400 c0 -5 5 -10 11 -10 5 0 7 5 4 10 -3 6 -8 10 -11 10 -2 0
-4 -4 -4 -10z"/>
<path d="M2430 1400 c0 -5 5 -10 10 -10 6 0 10 5 10 10 0 6 -4 10 -10 10 -5 0
-10 -4 -10 -10z"/>
<path d="M2485 1400 c3 -5 11 -10 16 -10 6 0 7 5 4 10 -3 6 -11 10 -16 10 -6
0 -7 -4 -4 -10z"/>
<path d="M2258 1393 c6 -2 18 -2 25 0 6 3 1 5 -13 5 -14 0 -19 -2 -12 -5z"/>
<path d="M2385 1390 c-16 -7 -17 -9 -3 -9 9 -1 20 4 23 9 7 11 7 11 -20 0z"/>
<path d="M2157 1361 c-4 -17 -3 -21 5 -13 5 5 8 16 6 23 -3 8 -7 3 -11 -10z"/>
<path d="M2554 1353 c-1 -13 1 -21 5 -16 3 4 10 10 14 14 4 3 2 11 -5 17 -10
8 -13 5 -14 -15z"/>
<path d="M2328 1363 c7 -3 16 -2 19 1 4 3 -2 6 -13 5 -11 0 -14 -3 -6 -6z"/>
<path d="M2208 1353 c7 -3 16 -2 19 1 4 3 -2 6 -13 5 -11 0 -14 -3 -6 -6z"/>
<path d="M2397 1343 c-12 -12 -7 -22 8 -17 8 4 15 10 15 15 0 11 -14 12 -23 2z"/>
<path d="M2162 1290 c2 -9 12 -14 26 -12 13 2 25 -3 28 -12 9 -23 24 -20 24 4
0 11 5 20 12 20 6 0 8 3 4 7 -4 4 -27 7 -52 8 -34 0 -44 -3 -42 -15z"/>
<path d="M2334 1288 l-19 -23 22 19 c20 16 25 17 40 5 16 -13 17 -12 4 4 -18
22 -24 22 -47 -5z"/>
<path d="M2410 1300 c-8 -5 -10 -10 -5 -10 6 0 17 5 25 10 8 5 11 10 5 10 -5
0 -17 -5 -25 -10z"/>
<path d="M2430 1235 c0 -8 5 -15 10 -15 6 0 10 7 10 15 0 8 -4 15 -10 15 -5 0
-10 -7 -10 -15z"/>
<path d="M2195 1230 c4 -6 11 -8 16 -5 14 9 11 15 -7 15 -8 0 -12 -5 -9 -10z"/>
<path d="M2260 1230 c0 -5 5 -10 11 -10 5 0 7 5 4 10 -3 6 -8 10 -11 10 -2 0
-4 -4 -4 -10z"/>
<path d="M2155 1220 c3 -5 8 -10 11 -10 2 0 4 5 4 10 0 6 -5 10 -11 10 -5 0
-7 -4 -4 -10z"/>
<path d="M2007 1179 c-4 -16 -3 -18 9 -8 16 13 19 29 5 29 -5 0 -11 -9 -14
-21z"/>
<path d="M2133 1193 c9 -2 23 -2 30 0 6 3 -1 5 -18 5 -16 0 -22 -2 -12 -5z"/>
<path d="M3688 1183 c6 -2 18 -2 25 0 6 3 1 5 -13 5 -14 0 -19 -2 -12 -5z"/>
<path d="M2150 1170 c-9 -6 -10 -10 -3 -10 6 0 15 5 18 10 8 12 4 12 -15 0z"/>
<path d="M2188 1173 c7 -3 16 -2 19 1 4 3 -2 6 -13 5 -11 0 -14 -3 -6 -6z"/>
<path d="M3745 1160 c-3 -5 -1 -10 4 -10 6 0 11 5 11 10 0 6 -2 10 -4 10 -3 0
-8 -4 -11 -10z"/>
<path d="M2017 1136 c-15 -14 -27 -28 -27 -31 0 -12 20 -4 39 16 12 13 21 17
26 10 8 -14 25 -14 25 -1 0 6 -6 10 -14 10 -8 0 -16 5 -18 11 -2 6 -16 -1 -31
-15z"/>
<path d="M3750 1130 c0 -5 -7 -10 -16 -10 -8 0 -12 -5 -9 -10 5 -8 11 -8 19
-1 7 6 16 8 20 4 4 -4 4 0 0 10 -7 19 -14 22 -14 7z"/>
<path d="M2090 1105 c0 -14 2 -25 4 -25 2 0 6 11 8 25 3 14 1 25 -3 25 -5 0
-9 -11 -9 -25z"/>
<path d="M2040 1090 c-6 -11 -17 -20 -25 -20 -7 0 -17 -5 -21 -12 -4 -7 -3 -8
4 -4 7 4 12 3 12 -2 0 -15 42 -22 59 -11 13 8 11 9 -6 4 -17 -5 -23 -2 -23 9
0 21 21 31 31 15 7 -11 9 -9 9 7 0 29 -27 38 -40 14z"/>
<path d="M3825 1100 c3 -5 10 -10 16 -10 5 0 9 5 9 10 0 6 -7 10 -16 10 -8 0
-12 -4 -9 -10z"/>
<path d="M4010 1094 c0 -8 5 -12 10 -9 6 3 10 10 10 16 0 5 -4 9 -10 9 -5 0
-10 -7 -10 -16z"/>
<path d="M1921 1084 c0 -11 3 -14 6 -6 3 7 2 16 -1 19 -3 4 -6 -2 -5 -13z"/>
<path d="M3780 1084 c0 -8 5 -12 10 -9 6 3 10 10 10 16 0 5 -4 9 -10 9 -5 0
-10 -7 -10 -16z"/>
<path d="M3930 1085 c-14 -16 0 -27 17 -14 9 9 17 8 27 0 9 -8 16 -8 20 -2 14
21 -47 36 -64 16z"/>
<path d="M3711 1040 c0 -37 2 -41 9 -22 6 13 6 31 0 45 -7 18 -9 14 -9 -23z"/>
<path d="M4040 1060 c0 -19 3 -21 12 -12 9 9 9 15 0 24 -9 9 -12 7 -12 -12z"/>
<path d="M3820 1060 c0 -5 5 -10 10 -10 6 0 10 5 10 10 0 6 -4 10 -10 10 -5 0
-10 -4 -10 -10z"/>
<path d="M4077 1063 c-12 -12 -7 -22 8 -17 8 4 15 10 15 15 0 11 -14 12 -23 2z"/>
<path d="M3750 1036 c0 -2 7 -9 15 -16 9 -7 15 -8 15 -2 0 5 -7 12 -15 16 -8
3 -15 4 -15 2z"/>
<path d="M3800 1030 c0 -5 5 -10 10 -10 6 0 10 5 10 10 0 6 -4 10 -10 10 -5 0
-10 -4 -10 -10z"/>
<path d="M2081 1014 c0 -11 3 -14 6 -6 3 7 2 16 -1 19 -3 4 -6 -2 -5 -13z"/>
<path d="M3880 1019 c0 -5 5 -7 10 -4 6 3 10 8 10 11 0 2 -4 4 -10 4 -5 0 -10
-5 -10 -11z"/>
<path d="M3673 1001 c-9 -15 -9 -20 0 -24 7 -3 13 5 13 19 2 29 2 29 -13 5z"/>
<path d="M3908 980 c-2 -26 1 -40 8 -40 7 0 12 17 12 40 0 22 -3 40 -8 40 -4
0 -10 -18 -12 -40z"/>
<path d="M4040 1010 c0 -5 4 -10 9 -10 6 0 13 5 16 10 3 6 -1 10 -9 10 -9 0
-16 -4 -16 -10z"/>
<path d="M1965 1000 c-3 -5 3 -10 14 -10 12 0 21 5 21 10 0 6 -6 10 -14 10 -8
0 -18 -4 -21 -10z"/>
<path d="M3335 1000 c-3 -5 -1 -10 4 -10 6 0 11 5 11 10 0 6 -2 10 -4 10 -3 0
-8 -4 -11 -10z"/>
<path d="M3544 1001 c3 -5 15 -7 27 -4 12 4 25 0 29 -7 7 -11 13 -11 32 -2 21
11 21 12 1 7 -12 -3 -24 -1 -28 5 -3 5 -20 10 -36 10 -17 0 -28 -4 -25 -9z"/>
<path d="M4071 996 c-9 -10 -8 -16 4 -26 9 -7 18 -10 22 -6 3 3 1 6 -6 6 -8 0
-10 7 -6 20 7 23 2 26 -14 6z"/>
<path d="M2100 990 c0 -5 5 -10 10 -10 6 0 10 5 10 10 0 6 -4 10 -10 10 -5 0
-10 -4 -10 -10z"/>
<path d="M2330 990 c-13 -8 -12 -10 3 -10 9 0 17 5 17 10 0 12 -1 12 -20 0z"/>
<path d="M2530 990 c-19 -4 -21 -7 -9 -12 9 -3 22 -2 30 2 19 13 8 18 -21 10z"/>
<path d="M3770 991 c0 -5 9 -7 20 -4 11 3 20 7 20 9 0 2 -9 4 -20 4 -11 0 -20
-4 -20 -9z"/>
<path d="M2870 980 c0 -5 5 -10 10 -10 6 0 10 5 10 10 0 6 -4 10 -10 10 -5 0
-10 -4 -10 -10z"/>
<path d="M3180 980 c0 -5 5 -10 10 -10 6 0 10 5 10 10 0 6 -4 10 -10 10 -5 0
-10 -4 -10 -10z"/>
<path d="M3430 981 c8 -6 23 -11 33 -11 10 0 15 -4 12 -10 -3 -5 -1 -10 4 -10
6 0 11 4 11 9 0 5 8 12 18 14 9 3 0 5 -20 6 -20 0 -45 4 -55 7 -15 5 -15 4 -3
-5z"/>
<path d="M3120 969 c0 -5 7 -9 15 -9 9 0 12 -6 8 -16 -4 -11 -2 -15 7 -12 24
8 19 36 -6 41 -13 2 -24 0 -24 -4z"/>
<path d="M3545 970 c-4 -6 5 -10 20 -10 15 0 24 4 20 10 -3 6 -12 10 -20 10
-8 0 -17 -4 -20 -10z"/>
<path d="M2730 960 c-9 -6 -10 -10 -3 -10 6 0 15 5 18 10 8 12 4 12 -15 0z"/>
<path d="M2820 962 c-23 -4 -23 -5 -5 -12 19 -7 18 -7 -4 -20 -21 -11 -26 -10
-38 6 -12 16 -15 17 -23 4 -15 -23 -12 -27 23 -35 28 -6 30 -8 12 -15 -17 -7
-17 -9 -2 -9 10 -1 17 -9 18 -23 1 -16 4 -12 9 12 5 19 6 38 3 43 -5 8 56 0
66 -9 10 -9 -13 -24 -30 -19 -12 4 -19 2 -19 -7 0 -7 -3 -23 -6 -35 -4 -14 -2
-23 5 -23 6 0 11 9 11 19 0 26 15 34 32 19 8 -8 42 -13 90 -13 73 0 95 -6 66
-18 -7 -3 -3 -6 10 -6 13 -1 22 5 22 14 0 9 9 15 25 15 17 0 29 9 40 30 17 33
19 44 6 36 -5 -4 -12 0 -15 6 -3 7 -4 1 -2 -14 2 -20 -2 -29 -15 -33 -11 -4
-23 -3 -29 0 -5 3 -10 -1 -10 -10 0 -12 -5 -15 -16 -11 -9 3 -27 6 -41 6 -16
0 -27 7 -30 20 -3 11 -8 20 -12 20 -4 0 -13 -9 -21 -20 -8 -11 -24 -20 -37
-20 -20 0 -21 4 -16 37 4 24 3 34 -5 30 -18 -12 -44 4 -39 24 3 11 4 18 4 18
-1 -1 -13 -4 -27 -7z"/>
<path d="M3330 951 c-5 -11 -7 -27 -4 -35 3 -9 1 -16 -5 -16 -6 0 -11 12 -11
28 -1 26 -1 26 -15 8 -17 -22 -20 -61 -5 -51 14 9 13 -8 -2 -23 -7 -7 -8 -12
-4 -12 10 0 57 37 57 44 -4 38 1 69 8 57 6 -8 14 -10 22 -5 8 5 23 7 34 5 11
-2 17 0 14 3 -3 4 -22 9 -42 11 -29 4 -39 1 -47 -14z"/>
<path d="M2220 921 c0 -33 3 -39 25 -43 19 -4 25 -1 25 12 0 10 -7 24 -16 31
-15 12 -16 11 -9 -10 5 -16 4 -21 -4 -17 -15 10 -14 53 2 59 7 3 5 6 -5 6 -14
1 -18 -7 -18 -38z"/>
<path d="M2324 942 c10 -10 26 -12 60 -7 64 10 57 20 -14 20 -51 1 -58 -2 -46
-13z"/>
<path d="M2870 949 c0 -5 5 -7 10 -4 6 3 10 8 10 11 0 2 -4 4 -10 4 -5 0 -10
-5 -10 -11z"/>
<path d="M3230 950 c0 -5 5 -10 10 -10 6 0 10 5 10 10 0 6 -4 10 -10 10 -5 0
-10 -4 -10 -10z"/>
<path d="M2650 940 c0 -5 7 -10 15 -10 8 0 15 5 15 10 0 6 -7 10 -15 10 -8 0
-15 -4 -15 -10z"/>
<path d="M3020 942 c0 -5 7 -13 16 -16 10 -4 14 -1 12 6 -5 15 -28 23 -28 10z"/>
<path d="M2603 933 c9 -2 23 -2 30 0 6 3 -1 5 -18 5 -16 0 -22 -2 -12 -5z"/>
<path d="M3265 930 c-3 -5 -1 -10 4 -10 6 0 11 5 11 10 0 6 -2 10 -4 10 -3 0
-8 -4 -11 -10z"/>
<path d="M2290 920 c0 -5 7 -10 15 -10 8 0 15 5 15 10 0 6 -7 10 -15 10 -8 0
-15 -4 -15 -10z"/>
<path d="M2391 902 c0 -16 3 -21 6 -12 3 8 10 18 15 21 5 3 3 9 -6 12 -12 5
-16 0 -15 -21z"/>
<path d="M2450 903 c0 -33 6 -39 27 -25 8 5 6 14 -7 32 l-20 25 0 -32z"/>
<path d="M2488 923 c7 -3 16 -2 19 1 4 3 -2 6 -13 5 -11 0 -14 -3 -6 -6z"/>
<path d="M3223 922 c-13 -2 -23 -8 -23 -13 0 -6 -4 -7 -10 -4 -5 3 -10 2 -10
-4 0 -9 57 -5 69 5 10 8 -7 19 -26 16z"/>
<path d="M2356 912 c-2 -4 -1 -14 3 -21 6 -10 10 -9 14 3 6 16 -8 32 -17 18z"/>
<path d="M3091 904 c0 -11 3 -14 6 -6 3 7 2 16 -1 19 -3 4 -6 -2 -5 -13z"/>
<path d="M2530 900 c-16 -6 -1 -7 40 -3 36 3 67 7 69 9 8 8 -84 2 -109 -6z"/>
<path d="M2695 894 c11 -8 19 -23 17 -32 -2 -15 -1 -15 8 -2 9 13 12 13 24 -2
16 -21 26 -23 26 -5 0 22 -44 57 -71 57 -24 -1 -24 -1 -4 -16z"/>
<path d="M2906 894 c-20 -19 -20 -24 0 -24 8 0 12 5 9 10 -3 6 1 10 9 10 9 0
16 5 16 10 0 15 -16 12 -34 -6z"/>
<path d="M3026 894 c-3 -8 -10 -12 -16 -9 -5 3 -10 1 -10 -4 0 -6 9 -11 20
-11 11 0 20 2 20 4 0 2 3 11 6 20 3 9 2 16 -4 16 -5 0 -13 -7 -16 -16z"/>
<path d="M2290 869 l0 -32 50 6 c45 5 50 4 50 -13 0 -11 -6 -20 -14 -20 -10 0
-14 -9 -12 -27 4 -32 26 -44 26 -14 0 13 7 21 18 22 10 0 12 3 5 6 -7 2 -13
20 -13 39 0 37 -2 39 -31 23 -22 -11 -59 -4 -59 12 0 6 5 7 10 4 6 -3 10 -4
10 -1 0 3 -9 10 -20 16 -18 10 -20 8 -20 -21z"/>
<path d="M3255 887 c-25 -30 9 -93 43 -80 11 5 13 3 7 -7 -5 -8 -3 -11 6 -8
25 8 15 32 -18 40 -29 8 -32 11 -26 38 6 32 4 36 -12 17z"/>
<path d="M2410 870 c0 -11 4 -20 9 -20 6 0 9 9 8 20 -1 11 -5 20 -9 20 -4 0
-8 -9 -8 -20z"/>
<path d="M2573 875 c0 -8 6 -15 13 -15 8 0 11 6 8 15 -4 8 -9 15 -13 15 -4 0
-8 -7 -8 -15z"/>
<path d="M2491 866 c-9 -11 -9 -15 1 -19 10 -3 8 -9 -5 -25 -15 -17 -17 -24
-7 -39 9 -15 11 -15 6 -1 -7 22 17 41 32 26 6 -6 15 -8 19 -3 5 4 3 10 -4 12
-8 3 -10 15 -6 34 4 22 2 29 -10 29 -8 0 -20 -6 -26 -14z"/>
<path d="M2615 870 c-3 -5 1 -10 9 -10 9 0 16 -4 16 -9 0 -5 -10 -7 -22 -3
-14 3 -19 2 -14 -6 4 -7 20 -12 35 -12 25 0 28 3 23 25 -4 25 -35 35 -47 15z"/>
<path d="M2210 858 c0 -6 3 -8 6 -5 4 3 15 2 25 -3 10 -6 20 -6 23 -1 3 5 -4
11 -17 15 -32 8 -37 7 -37 -6z"/>
<path d="M3192 849 c-12 -19 -11 -20 8 -14 19 6 21 4 15 -14 -4 -15 -2 -21 8
-21 11 0 13 8 8 32 -8 39 -22 45 -39 17z"/>
<path d="M3330 846 c0 -9 5 -16 10 -16 6 0 10 4 10 9 0 6 -4 13 -10 16 -5 3
-10 -1 -10 -9z"/>
<path d="M3111 833 c-7 -8 -10 -17 -7 -20 9 -9 29 13 25 25 -2 6 -10 3 -18 -5z"/>
<path d="M3360 840 c0 -5 5 -10 10 -10 6 0 10 5 10 10 0 6 -4 10 -10 10 -5 0
-10 -4 -10 -10z"/>
<path d="M2708 833 c-22 -5 -23 -20 -4 -39 9 -9 17 -10 21 -4 3 5 1 10 -4 10
-6 0 -11 5 -11 11 0 5 4 8 9 4 5 -3 12 -1 15 4 8 12 -4 19 -26 14z"/>
<path d="M2855 832 c-13 -14 -2 -22 23 -17 15 3 21 2 15 -1 -26 -12 -12 -24
28 -24 26 0 38 4 33 11 -3 6 -15 9 -25 6 -11 -3 -19 -1 -19 4 0 5 19 9 42 9
23 0 39 3 36 6 -7 7 -126 12 -133 6z"/>
<path d="M2255 820 c-4 -6 6 -11 22 -11 16 -1 21 -3 11 -6 -10 -2 -15 -10 -11
-19 3 -9 -2 -14 -17 -14 -15 0 -20 -5 -18 -17 4 -22 28 -29 28 -9 0 9 5 16 10
16 6 0 10 7 10 15 0 8 7 15 16 15 8 0 12 5 8 11 -4 8 0 8 15 0 17 -9 20 -9 15
3 -9 23 -77 35 -89 16z"/>
<path d="M2786 815 c-3 -9 0 -15 9 -15 9 0 12 6 9 15 -4 8 -7 15 -9 15 -2 0
-5 -7 -9 -15z"/>
<path d="M3145 820 c-3 -5 -1 -10 4 -10 6 0 11 5 11 10 0 6 -2 10 -4 10 -3 0
-8 -4 -11 -10z"/>
<path d="M2602 800 c-7 -11 -10 -20 -7 -20 3 0 15 9 27 20 16 14 18 20 7 20
-8 0 -20 -9 -27 -20z"/>
<path d="M2642 798 c-7 -7 -12 -26 -11 -42 l1 -31 8 34 c4 18 14 37 22 42 7 5
8 9 3 9 -6 0 -16 -5 -23 -12z"/>
<path d="M2990 806 c0 -2 9 -6 20 -9 11 -3 18 -1 14 4 -5 9 -34 13 -34 5z"/>
<path d="M3170 801 c0 -5 -10 -12 -22 -14 -15 -3 -9 -5 14 -6 29 -1 36 2 32
14 -7 16 -24 21 -24 6z"/>
<path d="M3050 779 c0 -11 5 -17 10 -14 6 3 10 13 10 21 0 8 -4 14 -10 14 -5
0 -10 -9 -10 -21z"/>
<path d="M3096 784 c-8 -21 -8 -24 3 -24 5 0 11 9 14 20 6 24 -8 27 -17 4z"/>
<path d="M3232 791 c-11 -7 -10 -10 3 -15 28 -10 45 -7 45 9 0 16 -27 20 -48
6z"/>
<path d="M2510 780 c0 -5 5 -10 10 -10 6 0 10 5 10 10 0 6 -4 10 -10 10 -5 0
-10 -4 -10 -10z"/>
<path d="M2661 774 c-7 -8 -10 -18 -6 -22 3 -3 10 0 16 8 8 13 10 13 18 0 6
-8 13 -11 17 -8 3 4 -1 14 -9 23 -19 18 -19 18 -36 -1z"/>
<path d="M2801 783 c-1 -6 -4 -20 -7 -30 -5 -17 -5 -17 6 0 6 10 9 23 6 30 -3
9 -5 9 -5 0z"/>
<path d="M2840 776 c0 -8 -7 -17 -16 -20 -8 -3 -12 -10 -9 -16 9 -15 25 -12
25 4 0 8 7 17 16 20 8 3 12 10 9 16 -9 15 -25 12 -25 -4z"/>
<path d="M2990 776 c6 -6 16 -11 22 -11 24 0 18 -24 -9 -33 -21 -8 -23 -11 -8
-11 11 0 26 3 34 8 10 6 22 5 35 -5 11 -8 27 -14 36 -14 13 0 13 1 0 10 -11 7
-5 10 24 10 54 0 37 13 -21 16 -65 3 -63 2 -63 18 0 8 -13 16 -30 18 -22 3
-28 2 -20 -6z"/>
<path d="M2745 770 c-3 -5 -1 -10 4 -10 6 0 11 5 11 10 0 6 -2 10 -4 10 -3 0
-8 -4 -11 -10z"/>
<path d="M2875 762 c-8 -21 -6 -32 5 -32 6 0 10 7 10 15 0 8 5 15 10 15 16 0
7 -34 -10 -42 -12 -5 -12 -7 2 -7 9 -1 21 5 25 12 4 7 19 18 33 24 l25 12 -27
0 c-16 1 -28 5 -28 10 0 15 -39 9 -45 -7z"/>
<path d="M3357 773 c-15 -14 -7 -43 12 -43 11 0 23 -4 26 -10 3 -5 12 -10 18
-10 8 0 8 3 -1 9 -8 4 -14 12 -15 17 -1 5 -9 9 -17 9 -9 0 -14 7 -12 18 3 18
0 21 -11 10z"/>
<path d="M2325 743 c0 -26 11 -43 28 -43 11 0 9 38 -3 45 -6 4 -8 11 -5 16 4
5 0 9 -7 9 -8 0 -14 -11 -13 -27z"/>
<path d="M2400 760 c0 -5 5 -10 10 -10 6 0 10 5 10 10 0 6 -4 10 -10 10 -5 0
-10 -4 -10 -10z"/>
<path d="M2450 760 c0 -5 5 -10 10 -10 6 0 10 5 10 10 0 6 -4 10 -10 10 -5 0
-10 -4 -10 -10z"/>
<path d="M3294 758 c-7 -11 22 -39 40 -37 6 0 5 3 -1 6 -7 2 -13 13 -13 24 0
21 -15 25 -26 7z"/>
<path d="M2555 749 c-11 -16 -1 -19 13 -3 7 8 8 14 3 14 -5 0 -13 -5 -16 -11z"/>
<path d="M3173 753 c19 -3 27 -10 27 -25 0 -18 -4 -19 -40 -13 -50 9 -54 -10
-4 -20 28 -5 39 -2 48 11 9 12 21 15 37 11 22 -6 23 -5 6 7 -17 13 -16 15 10
24 24 9 17 10 -42 10 -38 -1 -58 -3 -42 -5z"/>
<path d="M2467 724 c-13 -17 -24 -23 -38 -19 -10 4 -19 2 -19 -2 0 -5 18 -14
40 -20 32 -8 40 -8 40 3 0 8 -3 13 -7 13 -22 -4 -24 3 -8 21 10 11 16 22 14
24 -2 2 -12 -7 -22 -20z"/>
<path d="M2510 740 c0 -5 5 -10 10 -10 6 0 10 5 10 10 0 6 -4 10 -10 10 -5 0
-10 -4 -10 -10z"/>
<path d="M2597 737 c-3 -8 -1 -20 4 -28 6 -10 9 -7 9 14 0 29 -5 35 -13 14z"/>
<path d="M2390 715 c-7 -9 -10 -18 -7 -21 3 -3 10 4 17 15 13 25 8 27 -10 6z"/>
<path d="M2668 723 c6 -2 18 -2 25 0 6 3 1 5 -13 5 -14 0 -19 -2 -12 -5z"/>
<path d="M2765 720 c3 -5 11 -10 16 -10 6 0 7 5 4 10 -3 6 -11 10 -16 10 -6 0
-7 -4 -4 -10z"/>
<path d="M3280 716 c0 -9 -5 -16 -12 -16 -9 0 -9 -3 0 -12 16 -16 15 -29 -2
-22 -8 3 -17 1 -21 -5 -3 -6 3 -12 14 -12 12 -1 26 -2 33 -3 16 -1 17 56 1 72
-11 11 -13 11 -13 -2z"/>
<path d="M2500 709 c0 -5 5 -7 10 -4 6 3 10 8 10 11 0 2 -4 4 -10 4 -5 0 -10
-5 -10 -11z"/>
<path d="M2823 713 c-27 -5 -35 -26 -22 -55 9 -21 9 -21 4 5 -5 23 -1 29 20
37 34 13 35 13 35 -5 0 -8 4 -15 9 -15 5 0 7 9 4 20 -5 20 -9 21 -50 13z"/>
<path d="M3040 710 c0 -12 28 -25 36 -17 3 3 -4 10 -15 17 -15 7 -21 7 -21 0z"/>
<path d="M2551 694 c-7 -8 -19 -13 -27 -10 -8 3 -14 -1 -14 -10 0 -8 3 -14 8
-12 45 22 62 33 62 40 0 13 -14 9 -29 -8z"/>
<path d="M2970 701 c0 -5 -3 -16 -6 -25 -4 -11 -1 -16 10 -16 9 0 16 8 16 20
0 11 5 20 10 20 6 0 10 -9 10 -20 0 -13 7 -20 19 -20 17 0 18 3 8 25 -9 18
-20 25 -39 25 -16 0 -28 -4 -28 -9z"/>
<path d="M2640 689 c0 -5 5 -7 10 -4 6 3 10 8 10 11 0 2 -4 4 -10 4 -5 0 -10
-5 -10 -11z"/>
<path d="M2670 690 c0 -5 12 -10 28 -9 24 0 25 1 7 9 -27 12 -35 12 -35 0z"/>
<path d="M2050 669 c0 -5 5 -7 10 -4 6 3 10 8 10 11 0 2 -4 4 -10 4 -5 0 -10
-5 -10 -11z"/>
<path d="M2400 670 c0 -5 5 -10 10 -10 6 0 10 5 10 10 0 6 -4 10 -10 10 -5 0
-10 -4 -10 -10z"/>
<path d="M2574 665 c-9 -22 1 -29 15 -11 8 10 9 16 1 21 -5 3 -13 -1 -16 -10z"/>
<path d="M2820 670 c0 -5 5 -10 10 -10 6 0 10 5 10 10 0 6 -4 10 -10 10 -5 0
-10 -4 -10 -10z"/>
<path d="M2310 650 c0 -5 5 -10 11 -10 5 0 7 5 4 10 -3 6 -8 10 -11 10 -2 0
-4 -4 -4 -10z"/>
<path d="M3116 645 c-3 -8 -4 -15 -3 -15 1 0 22 7 47 14 l45 15 -41 0 c-28 1
-44 -4 -48 -14z"/>
<path d="M2045 640 c-3 -5 3 -10 15 -10 12 0 18 5 15 10 -3 6 -10 10 -15 10
-5 0 -12 -4 -15 -10z"/>
<path d="M2188 643 c7 -3 16 -2 19 1 4 3 -2 6 -13 5 -11 0 -14 -3 -6 -6z"/>
<path d="M2535 640 c-3 -5 1 -10 9 -10 9 0 16 5 16 10 0 6 -4 10 -9 10 -6 0
-13 -4 -16 -10z"/>
<path d="M3295 630 c-3 -5 -2 -10 4 -10 5 0 13 5 16 10 3 6 2 10 -4 10 -5 0
-13 -4 -16 -10z"/>
<path d="M1937 616 c-19 -14 -23 -36 -7 -36 6 0 10 5 10 10 0 6 7 10 16 10 8
0 13 -4 9 -9 -3 -6 16 -13 42 -16 27 -4 54 -14 61 -23 11 -14 12 -14 12 0 0 9
2 22 3 30 2 7 2 10 0 6 -9 -16 -82 -8 -95 10 -20 27 -31 32 -51 18z"/>
<path d="M2240 619 c0 -5 5 -7 10 -4 6 3 10 8 10 11 0 2 -4 4 -10 4 -5 0 -10
-5 -10 -11z"/>
<path d="M2700 601 c0 -5 5 -13 10 -16 6 -3 10 -2 10 4 0 5 -4 13 -10 16 -5 3
-10 2 -10 -4z"/>
<path d="M3475 600 c-3 -5 1 -10 9 -10 8 0 18 5 21 10 3 6 -1 10 -9 10 -8 0
-18 -4 -21 -10z"/>
<path d="M1897 593 c-4 -3 -7 -17 -7 -30 0 -18 -5 -23 -27 -23 -32 0 -26 -9
11 -16 21 -4 26 -1 26 16 0 12 4 19 9 16 4 -3 6 6 3 19 -5 27 -6 28 -15 18z"/>
<path d="M3121 584 c0 -11 3 -14 6 -6 3 7 2 16 -1 19 -3 4 -6 -2 -5 -13z"/>
<path d="M2310 580 c-8 -6 -10 -10 -5 -11 6 0 1 -4 -10 -9 -19 -8 -19 -9 3 -9
12 -1 25 6 29 14 7 21 1 26 -17 15z"/>
<path d="M3343 583 c-13 -2 -23 -8 -23 -13 0 -5 15 -4 33 2 52 18 47 22 -10
11z"/>
<path d="M3468 573 c7 -3 16 -2 19 1 4 3 -2 6 -13 5 -11 0 -14 -3 -6 -6z"/>
<path d="M1934 561 c3 -5 0 -11 -7 -14 -7 -2 -13 -17 -15 -31 -1 -16 2 -25 8
-21 6 3 13 -1 16 -10 4 -9 17 -20 29 -25 26 -10 67 -2 59 11 -3 5 1 9 10 9 8
0 16 -5 18 -10 2 -7 13 -6 30 2 29 14 39 35 12 24 -9 -3 -34 -6 -55 -6 -24 0
-38 -4 -34 -10 13 -21 -33 -9 -59 15 l-26 24 25 17 c20 13 23 19 13 25 -17 11
-31 11 -24 0z"/>
<path d="M2103 553 c9 -9 20 -13 24 -9 4 4 1 11 -7 16 -25 16 -35 11 -17 -7z"/>
<path d="M3107 552 c3 -14 11 -18 26 -14 15 4 17 7 7 10 -8 3 -20 9 -27 14 -8
6 -10 4 -6 -10z"/>
<path d="M3200 547 c0 -17 5 -27 15 -27 19 0 19 9 0 34 -14 19 -15 19 -15 -7z"/>
<path d="M2030 550 c0 -5 5 -10 10 -10 6 0 10 5 10 10 0 6 -4 10 -10 10 -5 0
-10 -4 -10 -10z"/>
<path d="M3371 544 c0 -11 3 -14 6 -6 3 7 2 16 -1 19 -3 4 -6 -2 -5 -13z"/>
<path d="M3047 526 c-4 -10 -5 -21 -2 -24 9 -9 17 6 13 25 -3 17 -4 17 -11 -1z"/>
<path d="M2040 520 l-45 -7 42 -1 c23 -1 45 3 48 8 3 6 5 9 3 8 -2 0 -23 -4
-48 -8z"/>
<path d="M2637 509 c7 -7 15 -10 18 -7 3 3 -2 9 -12 12 -14 6 -15 5 -6 -5z"/>
<path d="M3105 500 c-3 -5 -1 -10 4 -10 6 0 11 5 11 10 0 6 -2 10 -4 10 -3 0
-8 -4 -11 -10z"/>
<path d="M3337 496 c-7 -18 1 -26 29 -26 18 0 21 4 16 23 -5 18 -7 19 -10 5
-2 -10 -10 -18 -17 -18 -9 0 -12 6 -9 15 4 8 4 15 1 15 -3 0 -7 -6 -10 -14z"/>
<path d="M2548 493 c7 -3 16 -2 19 1 4 3 -2 6 -13 5 -11 0 -14 -3 -6 -6z"/>
<path d="M2790 481 c0 -5 7 -11 15 -15 8 -3 15 -1 15 3 0 5 -7 11 -15 15 -8 3
-15 1 -15 -3z"/>
<path d="M3078 454 c4 -22 6 -24 14 -10 5 9 13 14 19 11 5 -4 9 -2 9 3 0 9
-23 22 -39 22 -5 0 -6 -12 -3 -26z"/>
<path d="M2090 449 c0 -5 5 -7 10 -4 6 3 10 8 10 11 0 2 -4 4 -10 4 -5 0 -10
-5 -10 -11z"/>
<path d="M3440 445 c0 -16 27 -32 37 -22 5 6 -21 37 -31 37 -3 0 -6 -7 -6 -15z"/>
<path d="M2065 440 c3 -5 8 -10 11 -10 2 0 4 5 4 10 0 6 -5 10 -11 10 -5 0 -7
-4 -4 -10z"/>
<path d="M3365 440 c4 -6 11 -8 16 -5 14 9 11 15 -7 15 -8 0 -12 -5 -9 -10z"/>
<path d="M1975 430 c4 -6 11 -8 16 -5 5 4 9 -2 9 -11 0 -20 13 -11 16 11 1 10
-6 15 -22 15 -15 0 -23 -4 -19 -10z"/>
<path d="M2090 420 c0 -5 5 -10 10 -10 6 0 10 5 10 10 0 6 -4 10 -10 10 -5 0
-10 -4 -10 -10z"/>
<path d="M3290 415 c0 -8 5 -15 10 -15 6 0 10 7 10 15 0 8 -4 15 -10 15 -5 0
-10 -7 -10 -15z"/>
<path d="M3508 423 c7 -3 16 -2 19 1 4 3 -2 6 -13 5 -11 0 -14 -3 -6 -6z"/>
<path d="M3380 409 c0 -5 5 -7 10 -4 6 3 10 8 10 11 0 2 -4 4 -10 4 -5 0 -10
-5 -10 -11z"/>
<path d="M3418 413 c7 -3 16 -2 19 1 4 3 -2 6 -13 5 -11 0 -14 -3 -6 -6z"/>
<path d="M1940 399 c0 -5 5 -7 10 -4 6 3 10 8 10 11 0 2 -4 4 -10 4 -5 0 -10
-5 -10 -11z"/>
<path d="M1970 395 c0 -8 2 -15 4 -15 2 0 6 7 10 15 3 8 1 15 -4 15 -6 0 -10
-7 -10 -15z"/>
<path d="M3337 399 c7 -7 15 -10 18 -7 3 3 -2 9 -12 12 -14 6 -15 5 -6 -5z"/>
<path d="M1903 376 c21 -16 22 -26 2 -26 -8 0 -15 -7 -15 -16 0 -11 6 -14 23
-8 12 3 24 8 26 10 9 8 -23 54 -38 54 -14 -1 -14 -2 2 -14z"/>
<path d="M3080 380 c0 -5 5 -10 10 -10 6 0 10 5 10 10 0 6 -4 10 -10 10 -5 0
-10 -4 -10 -10z"/>
<path d="M3445 355 c0 -36 9 -46 18 -21 6 16 -2 56 -12 56 -3 0 -6 -16 -6 -35z"/>
<path d="M3340 360 c0 -5 7 -10 16 -10 8 0 12 5 9 10 -3 6 -10 10 -16 10 -5 0
-9 -4 -9 -10z"/>
<path d="M3485 340 c3 -5 8 -10 11 -10 2 0 4 5 4 10 0 6 -5 10 -11 10 -5 0 -7
-4 -4 -10z"/>
<path d="M1980 330 c-12 -8 -12 -10 5 -10 15 0 17 -3 7 -9 -11 -7 -11 -9 0
-14 10 -3 14 3 14 19 0 26 -4 28 -26 14z"/>
<path d="M3310 328 c0 -8 7 -15 15 -15 18 0 15 19 -3 25 -7 2 -12 -3 -12 -10z"/>
<path d="M3525 330 c3 -5 10 -10 16 -10 5 0 9 5 9 10 0 6 -7 10 -16 10 -8 0
-12 -4 -9 -10z"/>
<path d="M3563 324 c-3 -9 -13 -14 -24 -11 -11 3 -19 0 -19 -8 0 -18 25 -26
38 -13 8 8 15 8 25 0 8 -7 17 -9 20 -5 12 11 8 23 -8 23 -9 0 -12 6 -9 15 4 8
1 15 -5 15 -7 0 -14 -7 -18 -16z"/>
<path d="M2100 320 c8 -5 20 -10 25 -10 6 0 3 5 -5 10 -8 5 -19 10 -25 10 -5
0 -3 -5 5 -10z"/>
<path d="M3356 315 c4 -8 8 -15 10 -15 2 0 4 7 4 15 0 8 -4 15 -10 15 -5 0 -7
-7 -4 -15z"/>
<path d="M3290 311 c0 -6 4 -13 10 -16 6 -3 7 1 4 9 -7 18 -14 21 -14 7z"/>
<path d="M3395 310 c-3 -5 -1 -10 4 -10 6 0 11 5 11 10 0 6 -2 10 -4 10 -3 0
-8 -4 -11 -10z"/>
<path d="M2165 300 c3 -5 8 -10 11 -10 2 0 4 5 4 10 0 6 -5 10 -11 10 -5 0 -7
-4 -4 -10z"/>
<path d="M3433 304 c9 -15 -15 -24 -44 -17 -15 4 -20 3 -15 -5 4 -7 14 -12 22
-12 8 0 12 -4 9 -10 -9 -14 14 -12 28 3 15 14 16 32 3 44 -5 4 -6 3 -3 -3z"/>
<path d="M1955 280 c-3 -5 1 -10 9 -10 9 0 16 5 16 10 0 6 -4 10 -9 10 -6 0
-13 -4 -16 -10z"/>
<path d="M1916 259 c3 -6 1 -14 -5 -18 -7 -4 2 -8 19 -8 16 0 30 4 30 9 0 5
-5 6 -10 3 -6 -3 -13 1 -16 9 -3 9 -10 16 -16 16 -5 0 -6 -5 -2 -11z"/>
<path d="M3357 255 c3 -8 9 -12 14 -9 12 7 11 11 -5 17 -10 4 -13 1 -9 -8z"/>
<path d="M3555 260 c3 -5 10 -10 16 -10 5 0 9 5 9 10 0 6 -7 10 -16 10 -8 0
-12 -4 -9 -10z"/>
<path d="M3255 240 c3 -5 11 -10 16 -10 6 0 7 5 4 10 -3 6 -11 10 -16 10 -6 0
-7 -4 -4 -10z"/>
<path d="M3320 246 c0 -2 7 -9 15 -16 9 -7 15 -8 15 -2 0 5 -7 12 -15 16 -8 3
-15 4 -15 2z"/>
<path d="M3463 243 c-23 -3 -33 -10 -33 -21 0 -10 3 -13 8 -7 4 6 23 11 42 10
25 0 36 -5 38 -17 2 -10 8 -18 13 -18 13 0 11 14 -3 29 -11 11 -10 13 5 8 9
-4 17 -2 17 3 0 6 -6 10 -14 10 -8 0 -20 2 -28 3 -7 2 -28 2 -45 0z"/>
<path d="M3600 237 c0 -10 5 -17 10 -17 6 0 10 -7 10 -15 0 -8 7 -15 15 -15 8
0 15 6 15 14 0 8 6 16 13 19 6 2 9 8 4 12 -4 5 -13 3 -19 -3 -9 -9 -16 -8 -30
5 -17 15 -18 15 -18 0z"/>
<path d="M3385 230 c-3 -5 -1 -10 4 -10 6 0 11 5 11 10 0 6 -2 10 -4 10 -3 0
-8 -4 -11 -10z"/>
<path d="M3565 229 c-4 -6 -5 -13 -2 -15 7 -7 -30 -44 -44 -44 -5 0 -7 -4 -4
-10 3 -5 -2 -10 -12 -10 -13 0 -22 -11 -28 -37 -11 -42 -8 -113 4 -113 4 0 7
15 5 33 -3 45 5 70 22 63 8 -3 14 -1 14 4 0 6 -8 10 -17 10 -16 1 -16 2 2 15
11 8 26 20 34 27 11 9 16 9 19 0 2 -7 8 -12 14 -12 7 0 7 4 0 13 -7 8 -6 18 4
31 16 22 19 56 5 56 -6 0 -13 -5 -16 -11z"/>
<path d="M3300 213 c0 -14 19 -38 25 -32 8 8 -5 39 -16 39 -5 0 -9 -3 -9 -7z"/>
<path d="M3474 192 c-4 -12 -10 -22 -15 -22 -5 0 -9 -4 -9 -9 0 -15 38 0 45
17 3 8 1 20 -5 26 -8 8 -12 4 -16 -12z"/>
<path d="M3098 173 c6 -2 18 -2 25 0 6 3 1 5 -13 5 -14 0 -19 -2 -12 -5z"/>
<path d="M2000 161 c0 -5 9 -7 20 -4 11 3 20 7 20 9 0 2 -9 4 -20 4 -11 0 -20
-4 -20 -9z"/>
<path d="M3400 160 c8 -5 22 -10 30 -10 13 0 13 1 0 10 -8 5 -22 10 -30 10
-13 0 -13 -1 0 -10z"/>
<path d="M2440 151 c0 -7 -4 -9 -10 -6 -5 3 -10 1 -10 -4 0 -6 4 -11 9 -11 13
0 25 20 17 27 -3 4 -6 1 -6 -6z"/>
<path d="M3110 121 c0 -22 -5 -42 -12 -44 -8 -3 -6 -6 5 -6 14 -1 17 8 17 44
0 25 -2 45 -5 45 -3 0 -5 -18 -5 -39z"/>
<path d="M2031 134 c0 -11 3 -14 6 -6 3 7 2 16 -1 19 -3 4 -6 -2 -5 -13z"/>
<path d="M2079 126 c7 -8 11 -25 10 -38 -4 -40 1 -59 12 -53 6 4 8 13 5 20 -3
8 6 18 22 24 16 5 20 10 10 10 -9 1 -18 4 -21 9 -2 4 -2 1 -1 -5 2 -7 -1 -13
-6 -13 -6 0 -10 14 -10 30 0 21 -5 30 -16 30 -13 0 -14 -3 -5 -14z"/>
<path d="M2270 133 c0 -4 5 -15 10 -23 8 -13 10 -13 10 2 0 9 -4 20 -10 23 -5
3 -10 3 -10 -2z"/>
<path d="M3436 131 c-4 -5 -2 -20 3 -33 9 -21 10 -21 10 10 1 32 -3 39 -13 23z"/>
<path d="M2140 120 c0 -5 5 -10 10 -10 6 0 10 5 10 10 0 6 -4 10 -10 10 -5 0
-10 -4 -10 -10z"/>
<path d="M3300 115 c0 -9 5 -15 11 -13 6 2 11 8 11 13 0 5 -5 11 -11 13 -6 2
-11 -4 -11 -13z"/>
<path d="M3375 120 c-3 -5 -1 -10 4 -10 6 0 11 5 11 10 0 6 -2 10 -4 10 -3 0
-8 -4 -11 -10z"/>
<path d="M2055 100 c-3 -5 -3 -10 2 -10 4 0 2 -4 -6 -9 -8 -5 -11 -16 -8 -25
11 -28 27 -17 27 19 0 36 -4 43 -15 25z"/>
<path d="M3177 94 c14 -4 20 -10 16 -20 -3 -8 -1 -14 5 -14 22 0 4 35 -19 37
-21 1 -22 1 -2 -3z"/>
<path d="M3343 85 c-7 -7 -18 -15 -25 -18 -8 -2 -9 -8 -4 -13 5 -5 11 -4 13 4
3 6 13 12 23 12 23 0 35 16 17 23 -6 2 -17 -1 -24 -8z"/>
<path d="M3050 86 c0 -2 7 -7 16 -10 8 -3 12 -2 9 4 -6 10 -25 14 -25 6z"/>
<path d="M1990 69 c0 -5 5 -7 10 -4 6 3 10 8 10 11 0 2 -4 4 -10 4 -5 0 -10
-5 -10 -11z"/>
<path d="M2175 60 c3 -5 8 -10 11 -10 2 0 4 5 4 10 0 6 -5 10 -11 10 -5 0 -7
-4 -4 -10z"/>
<path d="M2215 45 c0 -14 5 -27 10 -29 6 -2 10 8 9 22 -1 33 -19 40 -19 7z"/>
<path d="M3220 60 c0 -5 5 -10 10 -10 6 0 10 5 10 10 0 6 -4 10 -10 10 -5 0
-10 -4 -10 -10z"/>
<path d="M3437 50 c-9 -11 -12 -20 -6 -20 6 0 8 -7 4 -17 -4 -12 -3 -14 3 -8
9 10 26 65 19 65 -1 0 -10 -9 -20 -20z"/>
<path d="M3060 43 c0 -10 4 -14 8 -8 4 6 11 13 16 18 5 4 2 7 -7 7 -10 0 -17
-8 -17 -17z"/>
<path d="M3101 48 c0 -9 -4 -25 -7 -35 -5 -17 -5 -17 6 0 6 10 9 25 7 35 -4
15 -5 15 -6 0z"/>
<path d="M2000 25 c0 -16 6 -25 15 -25 9 0 15 9 15 25 0 16 -6 25 -15 25 -9 0
-15 -9 -15 -25z"/>
<path d="M3340 40 c0 -5 5 -10 10 -10 6 0 10 5 10 10 0 6 -4 10 -10 10 -5 0
-10 -4 -10 -10z"/>
<path d="M2050 15 c-8 -9 -8 -15 -2 -15 12 0 26 19 19 26 -2 2 -10 -2 -17 -11z"/>
<path d="M3187 23 c-11 -11 -8 -23 6 -23 8 0 14 7 14 15 0 16 -9 19 -20 8z"/>
<path d="M2130 16 c0 -2 9 -6 20 -9 11 -3 18 -1 14 4 -5 9 -34 13 -34 5z"/>
<path d="M3397 9 c7 -7 15 -10 18 -7 3 3 -2 9 -12 12 -14 6 -15 5 -6 -5z"/>
</g>
</svg>
