# Blender v2.77 (sub 0) OBJ File: ''
# www.blender.org
o obj1.001
v -0.009989 0.003469 -0.024115
v -0.007780 0.007741 -0.018782
v 0.000000 0.007741 -0.020329
v 0.000000 0.003469 -0.026102
v 0.010716 0.010373 -0.010716
v 0.005799 0.010373 -0.014001
v 0.004205 0.011989 -0.010151
v 0.007769 0.011989 -0.007769
v 0.014001 0.010373 -0.005799
v 0.010151 0.011989 -0.004205
v 0.015154 0.010373 -0.000000
v 0.010988 0.011989 -0.000000
v 0.014001 0.010373 0.005799
v 0.010151 0.011989 0.004205
v 0.010716 0.010373 0.010716
v 0.007769 0.011989 0.007769
v 0.005799 0.010373 0.014001
v 0.004205 0.011989 0.010151
v 0.000000 0.010373 0.015154
v 0.000000 0.011989 0.010987
v -0.005799 0.010373 0.014001
v -0.004205 0.011989 0.010151
v -0.010716 0.010373 0.010716
v -0.007769 0.011989 0.007769
v -0.014001 0.010373 0.005799
v -0.010151 0.011989 0.004205
v -0.015154 0.010373 -0.000000
v -0.010987 0.011989 -0.000000
v -0.014001 0.010373 -0.005799
v -0.010151 0.011989 -0.004205
v -0.010716 0.010373 -0.010716
v -0.007769 0.011989 -0.007769
v 0.024115 0.003469 0.009989
v 0.018782 0.007741 0.007780
v 0.014375 0.007741 0.014375
v 0.018457 0.003469 0.018457
v -0.005799 0.010373 -0.014001
v -0.004205 0.011989 -0.010151
v 0.000000 0.010373 -0.015154
v 0.000000 0.011989 -0.010988
v 0.018457 0.003469 0.018457
v 0.009989 0.003469 0.024115
v 0.009989 0.000062 0.024115
v 0.018457 0.000062 0.018457
v 0.010988 0.011989 -0.000000
v 0.010151 0.011989 -0.004205
v 0.010151 0.021241 -0.004205
v 0.010988 0.021241 -0.000000
v -0.018457 0.003469 0.018457
v -0.014375 0.007741 0.014375
v -0.018782 0.007741 0.007780
v -0.024115 0.003469 0.009989
v 0.024115 0.003469 -0.009989
v 0.018782 0.007741 -0.007780
v 0.020329 0.007741 -0.000000
v 0.026102 0.003469 0.000000
v 0.000000 0.003469 0.026102
v 0.000000 0.007741 0.020329
v -0.007780 0.007741 0.018782
v -0.009989 0.003469 0.024115
v 0.007780 0.007741 -0.018782
v 0.009989 0.003469 -0.024115
v -0.024115 0.003469 -0.009989
v -0.018782 0.007741 -0.007780
v -0.014375 0.007741 -0.014375
v -0.018457 0.003469 -0.018457
v 0.007780 0.007741 0.018782
v 0.009989 0.003469 0.024115
v -0.020329 0.007741 -0.000000
v -0.026102 0.003469 0.000000
v 0.014375 0.007741 -0.014375
v 0.018457 0.003469 -0.018457
v -0.010987 0.011989 -0.000000
v -0.010151 0.011989 0.004205
v -0.010151 0.021241 0.004205
v -0.010987 0.021241 -0.000000
v 0.010151 0.011989 0.004205
v 0.010151 0.021241 0.004205
v -0.010151 0.011989 -0.004205
v -0.010151 0.021241 -0.004205
v 0.007769 0.011989 0.007769
v 0.007769 0.021241 0.007769
v -0.007769 0.011989 -0.007769
v -0.007769 0.021241 -0.007769
v 0.004205 0.011989 0.010151
v 0.004205 0.021241 0.010151
v -0.004205 0.011989 -0.010151
v -0.004205 0.021241 -0.010151
v 0.000000 0.011989 0.010987
v 0.000000 0.021241 0.010987
v 0.004205 0.011989 -0.010151
v 0.000000 0.011989 -0.010988
v 0.000000 0.021241 -0.010988
v 0.004205 0.021241 -0.010151
v 0.000000 0.011989 -0.010988
v 0.000000 0.021241 -0.010988
v -0.004205 0.011989 0.010151
v -0.004205 0.021241 0.010151
v 0.007769 0.011989 -0.007769
v 0.007769 0.021241 -0.007769
v -0.007769 0.011989 0.007769
v -0.007769 0.021241 0.007769
v -0.018457 0.003469 -0.018457
v -0.009989 0.003469 -0.024115
v -0.009989 0.000062 -0.024115
v -0.018457 0.000062 -0.018457
v 0.000000 0.003469 0.026102
v 0.000000 0.000062 0.026102
v 0.000000 0.003469 -0.026102
v 0.009989 0.003469 -0.024115
v 0.009989 0.000062 -0.024115
v 0.000000 0.000062 -0.026102
v 0.000000 0.003469 -0.026102
v 0.000000 0.000062 -0.026102
v -0.009989 0.003469 0.024115
v -0.009989 0.000062 0.024115
v 0.018457 0.003469 -0.018457
v 0.018457 0.000062 -0.018457
v -0.018457 0.003469 0.018457
v -0.018457 0.000062 0.018457
v 0.024115 0.003469 -0.009989
v 0.024115 0.000062 -0.009989
v -0.024115 0.003469 0.009989
v -0.024115 0.000062 0.009989
v 0.026102 0.003469 0.000000
v 0.026102 0.000062 0.000000
v -0.026102 0.003469 0.000000
v -0.026102 0.000062 0.000000
v 0.024115 0.003469 0.009989
v 0.024115 0.000062 0.009989
v -0.024115 0.003469 -0.009989
v -0.024115 0.000062 -0.009989
v 0.009989 0.000062 -0.024115
v 0.018457 0.000062 -0.018457
v 0.000000 0.000062 -0.000000
v -0.009989 0.000062 0.024115
v -0.018457 0.000062 0.018457
v 0.024115 0.000062 -0.009989
v -0.024115 0.000062 0.009989
v 0.026102 0.000062 0.000000
v -0.026102 0.000062 0.000000
v 0.024115 0.000062 0.009989
v -0.024115 0.000062 -0.009989
v 0.018457 0.000062 0.018457
v -0.018457 0.000062 -0.018457
v 0.009989 0.000062 0.024115
v -0.009989 0.000062 -0.024115
v 0.000000 0.000062 0.026102
v 0.000000 0.000062 -0.026102
vt 0.3391 0.6627
vt 0.3016 0.6370
vt 0.3202 0.5920
vt 0.3648 0.6013
vt 0.2722 0.5185
vt 0.2857 0.5506
vt 0.2603 0.5559
vt 0.2507 0.5332
vt 0.2474 0.4941
vt 0.2332 0.5159
vt 0.2151 0.4812
vt 0.2104 0.5067
vt 0.1804 0.4816
vt 0.1859 0.5069
vt 0.1486 0.4952
vt 0.1632 0.5165
vt 0.1243 0.5199
vt 0.1460 0.5340
vt 0.1113 0.5519
vt 0.1367 0.5568
vt 0.1116 0.5865
vt 0.1369 0.5813
vt 0.1250 0.6183
vt 0.1464 0.6039
vt 0.1495 0.6426
vt 0.1639 0.6212
vt 0.1815 0.6557
vt 0.1866 0.6304
vt 0.2161 0.6556
vt 0.2111 0.6302
vt 0.2482 0.6422
vt 0.2337 0.6206
vt 0.1629 0.4038
vt 0.1730 0.4477
vt 0.1288 0.4669
vt 0.1029 0.4302
vt 0.2727 0.6175
vt 0.2511 0.6031
vt 0.2858 0.5853
vt 0.2603 0.5804
vt 0.0247 0.3760
vt 0.0247 0.4380
vt 0.0039 0.4380
vt 0.0039 0.3760
vt 0.0317 0.1083
vt 0.0317 0.0822
vt 0.1024 0.0822
vt 0.1024 0.1083
vt 0.0592 0.6618
vt 0.0963 0.6373
vt 0.1302 0.6712
vt 0.1049 0.7080
vt 0.2906 0.4263
vt 0.2662 0.4648
vt 0.2212 0.4469
vt 0.2288 0.4023
vt 0.0339 0.5376
vt 0.0776 0.5455
vt 0.0777 0.5932
vt 0.0345 0.6021
vt 0.3199 0.5433
vt 0.3648 0.5346
vt 0.2309 0.7340
vt 0.2227 0.6897
vt 0.2674 0.6712
vt 0.2920 0.7092
vt 0.0954 0.5012
vt 0.0577 0.4773
vt 0.1745 0.6896
vt 0.1652 0.7335
vt 0.3007 0.4988
vt 0.3388 0.4727
vt 0.0317 0.3171
vt 0.0317 0.2910
vt 0.1024 0.2910
vt 0.1024 0.3171
vt 0.0317 0.1344
vt 0.1024 0.1344
vt 0.0317 0.3433
vt 0.1024 0.3433
vt 0.0317 0.1605
vt 0.1024 0.1605
vt 0.0317 0.3693
vt 0.1024 0.3693
vt 0.0317 0.1866
vt 0.1024 0.1866
vt 0.0317 0.3955
vt 0.1024 0.3955
vt 0.0317 0.2127
vt 0.1024 0.2127
vt 0.0317 0.0300
vt 0.0317 0.0039
vt 0.1024 0.0039
vt 0.1024 0.0300
vt 0.0317 0.4216
vt 0.1024 0.4216
vt 0.0317 0.2388
vt 0.1024 0.2388
vt 0.0317 0.0561
vt 0.1024 0.0561
vt 0.0317 0.2649
vt 0.1024 0.2649
vt 0.0247 0.8721
vt 0.0247 0.9341
vt 0.0039 0.9341
vt 0.0039 0.8721
vt 0.0247 0.5000
vt 0.0039 0.5000
vt 0.0247 0.0039
vt 0.0247 0.0659
vt 0.0039 0.0659
vt 0.0039 0.0039
vt 0.0247 0.9961
vt 0.0039 0.9961
vt 0.0247 0.5620
vt 0.0039 0.5620
vt 0.0247 0.1279
vt 0.0039 0.1279
vt 0.0247 0.6240
vt 0.0039 0.6240
vt 0.0247 0.1899
vt 0.0039 0.1899
vt 0.0247 0.6860
vt 0.0039 0.6860
vt 0.0247 0.2519
vt 0.0039 0.2519
vt 0.0247 0.7480
vt 0.0039 0.7480
vt 0.0247 0.3140
vt 0.0039 0.3140
vt 0.0247 0.8101
vt 0.0039 0.8101
vt 0.2343 0.0039
vt 0.2964 0.0039
vt 0.2654 0.1598
vt 0.2964 0.3157
vt 0.2343 0.3157
vt 0.3536 0.0276
vt 0.1770 0.2919
vt 0.3975 0.0715
vt 0.1332 0.2481
vt 0.4212 0.1288
vt 0.1095 0.1908
vt 0.4212 0.1908
vt 0.1095 0.1288
vt 0.3975 0.2481
vt 0.1332 0.0715
vt 0.3536 0.2919
vt 0.1770 0.0276
vn -0.2276 0.8038 -0.5496
vn -0.2041 0.8459 -0.4928
vn 0.0000 0.8459 -0.5334
vn -0.0000 0.8038 -0.5949
vn 0.2922 0.9107 -0.2922
vn 0.1581 0.9107 -0.3817
vn 0.1383 0.9324 -0.3340
vn 0.2556 0.9324 -0.2556
vn 0.3817 0.9107 -0.1581
vn 0.3340 0.9324 -0.1383
vn 0.4132 0.9107 0.0000
vn 0.3615 0.9324 0.0000
vn 0.3817 0.9107 0.1581
vn 0.3340 0.9324 0.1383
vn 0.2922 0.9107 0.2922
vn 0.2556 0.9324 0.2556
vn 0.1581 0.9107 0.3817
vn 0.1383 0.9324 0.3340
vn 0.0000 0.9107 0.4132
vn 0.0000 0.9324 0.3615
vn -0.1581 0.9107 0.3817
vn -0.1383 0.9324 0.3340
vn -0.2922 0.9107 0.2922
vn -0.2556 0.9324 0.2556
vn -0.3817 0.9107 0.1581
vn -0.3340 0.9324 0.1383
vn -0.4132 0.9107 -0.0000
vn -0.3615 0.9324 -0.0000
vn -0.3817 0.9107 -0.1581
vn -0.3340 0.9324 -0.1383
vn -0.2922 0.9107 -0.2922
vn -0.2556 0.9324 -0.2556
vn 0.5496 0.8038 0.2276
vn 0.4928 0.8459 0.2041
vn 0.3771 0.8459 0.3771
vn 0.4206 0.8038 0.4206
vn -0.1581 0.9107 -0.3817
vn -0.1383 0.9324 -0.3340
vn 0.0000 0.9107 -0.4132
vn -0.0000 0.9324 -0.3615
vn 0.7071 0.0000 0.7071
vn 0.3827 0.0000 0.9239
vn 1.0000 0.0000 -0.0000
vn 0.9239 0.0000 -0.3827
vn -0.4206 0.8038 0.4206
vn -0.3771 0.8459 0.3771
vn -0.4928 0.8459 0.2041
vn -0.5496 0.8038 0.2276
vn 0.5496 0.8038 -0.2276
vn 0.4928 0.8459 -0.2041
vn 0.5334 0.8459 0.0000
vn 0.5949 0.8038 0.0000
vn -0.0000 0.8038 0.5949
vn -0.0000 0.8459 0.5334
vn -0.2041 0.8459 0.4928
vn -0.2276 0.8038 0.5496
vn 0.2041 0.8459 -0.4928
vn 0.2276 0.8038 -0.5496
vn -0.5496 0.8038 -0.2276
vn -0.4928 0.8459 -0.2041
vn -0.3771 0.8459 -0.3771
vn -0.4206 0.8038 -0.4206
vn 0.2041 0.8459 0.4928
vn 0.2276 0.8038 0.5496
vn -0.5334 0.8459 -0.0000
vn -0.5949 0.8038 0.0000
vn 0.3771 0.8459 -0.3771
vn 0.4206 0.8038 -0.4206
vn -1.0000 -0.0000 -0.0000
vn -0.9239 -0.0000 0.3827
vn 0.9239 -0.0000 0.3827
vn -0.9239 -0.0000 -0.3827
vn -0.7071 0.0000 -0.7071
vn -0.3827 0.0000 -0.9239
vn -0.0000 -0.0000 1.0000
vn 0.3827 0.0000 -0.9239
vn -0.0000 0.0000 -1.0000
vn -0.3827 -0.0000 0.9239
vn 0.7071 0.0000 -0.7071
vn -0.7071 -0.0000 0.7071
vn 0.0000 -1.0000 -0.0000
s 1
f 1/1/1 2/2/2 3/3/3
f 1/1/1 3/3/3 4/4/4
f 5/5/5 6/6/6 7/7/7
f 5/5/5 7/7/7 8/8/8
f 9/9/9 5/5/5 8/8/8
f 9/9/9 8/8/8 10/10/10
f 11/11/11 9/9/9 10/10/10
f 11/11/11 10/10/10 12/12/12
f 13/13/13 11/11/11 12/12/12
f 13/13/13 12/12/12 14/14/14
f 15/15/15 13/13/13 14/14/14
f 15/15/15 14/14/14 16/16/16
f 17/17/17 15/15/15 16/16/16
f 17/17/17 16/16/16 18/18/18
f 19/19/19 17/17/17 18/18/18
f 19/19/19 18/18/18 20/20/20
f 21/21/21 19/19/19 20/20/20
f 21/21/21 20/20/20 22/22/22
f 23/23/23 21/21/21 22/22/22
f 23/23/23 22/22/22 24/24/24
f 25/25/25 23/23/23 24/24/24
f 25/25/25 24/24/24 26/26/26
f 27/27/27 25/25/25 26/26/26
f 27/27/27 26/26/26 28/28/28
f 29/29/29 27/27/27 28/28/28
f 29/29/29 28/28/28 30/30/30
f 31/31/31 29/29/29 30/30/30
f 31/31/31 30/30/30 32/32/32
f 33/33/33 34/34/34 35/35/35
f 33/33/33 35/35/35 36/36/36
f 37/37/37 31/31/31 32/32/32
f 37/37/37 32/32/32 38/38/38
f 39/39/39 37/37/37 38/38/38
f 39/39/39 38/38/38 40/40/40
f 41/41/41 42/42/42 43/43/42
f 41/41/41 43/43/42 44/44/41
f 45/45/43 46/46/44 47/47/44
f 45/45/43 47/47/44 48/48/43
f 49/49/45 50/50/46 51/51/47
f 49/49/45 51/51/47 52/52/48
f 53/53/49 54/54/50 55/55/51
f 53/53/49 55/55/51 56/56/52
f 57/57/53 58/58/54 59/59/55
f 57/57/53 59/59/55 60/60/56
f 4/4/4 3/3/3 61/61/57
f 4/4/4 61/61/57 62/62/58
f 63/63/59 64/64/60 65/65/61
f 63/63/59 65/65/61 66/66/62
f 36/36/36 35/35/35 67/67/63
f 36/36/36 67/67/63 68/68/64
f 52/52/48 51/51/47 69/69/65
f 52/52/48 69/69/65 70/70/66
f 62/62/58 61/61/57 71/71/67
f 62/62/58 71/71/67 72/72/68
f 56/56/52 55/55/51 34/34/34
f 56/56/52 34/34/34 33/33/33
f 60/60/56 59/59/55 50/50/46
f 60/60/56 50/50/46 49/49/45
f 66/66/62 65/65/61 2/2/2
f 66/66/62 2/2/2 1/1/1
f 72/72/68 71/71/67 54/54/50
f 72/72/68 54/54/50 53/53/49
f 68/68/64 67/67/63 58/58/54
f 68/68/64 58/58/54 57/57/53
f 70/70/66 69/69/65 64/64/60
f 70/70/66 64/64/60 63/63/59
f 73/73/69 74/74/70 75/75/70
f 73/73/69 75/75/70 76/76/69
f 77/77/71 45/45/43 48/48/43
f 77/77/71 48/48/43 78/78/71
f 79/79/72 73/73/69 76/76/69
f 79/79/72 76/76/69 80/80/72
f 81/81/41 77/77/71 78/78/71
f 81/81/41 78/78/71 82/82/41
f 83/83/73 79/79/72 80/80/72
f 83/83/73 80/80/72 84/84/73
f 85/85/42 81/81/41 82/82/41
f 85/85/42 82/82/41 86/86/42
f 87/87/74 83/83/73 84/84/73
f 87/87/74 84/84/73 88/88/74
f 89/89/75 85/85/42 86/86/42
f 89/89/75 86/86/42 90/90/75
f 91/91/76 92/92/77 93/93/77
f 91/91/76 93/93/77 94/94/76
f 95/95/77 87/87/74 88/88/74
f 95/95/77 88/88/74 96/96/77
f 97/97/78 89/89/75 90/90/75
f 97/97/78 90/90/75 98/98/78
f 99/99/79 91/91/76 94/94/76
f 99/99/79 94/94/76 100/100/79
f 101/101/80 97/97/78 98/98/78
f 101/101/80 98/98/78 102/102/80
f 46/46/44 99/99/79 100/100/79
f 46/46/44 100/100/79 47/47/44
f 74/74/70 101/101/80 102/102/80
f 74/74/70 102/102/80 75/75/70
f 61/61/57 6/6/6 5/5/5
f 61/61/57 5/5/5 71/71/67
f 71/71/67 5/5/5 9/9/9
f 71/71/67 9/9/9 54/54/50
f 54/54/50 9/9/9 11/11/11
f 54/54/50 11/11/11 55/55/51
f 55/55/51 11/11/11 13/13/13
f 55/55/51 13/13/13 34/34/34
f 34/34/34 13/13/13 15/15/15
f 34/34/34 15/15/15 35/35/35
f 35/35/35 15/15/15 17/17/17
f 35/35/35 17/17/17 67/67/63
f 67/67/63 17/17/17 19/19/19
f 67/67/63 19/19/19 58/58/54
f 58/58/54 19/19/19 21/21/21
f 58/58/54 21/21/21 59/59/55
f 59/59/55 21/21/21 23/23/23
f 59/59/55 23/23/23 50/50/46
f 50/50/46 23/23/23 25/25/25
f 50/50/46 25/25/25 51/51/47
f 51/51/47 25/25/25 27/27/27
f 51/51/47 27/27/27 69/69/65
f 69/69/65 27/27/27 29/29/29
f 69/69/65 29/29/29 64/64/60
f 64/64/60 29/29/29 31/31/31
f 64/64/60 31/31/31 65/65/61
f 65/65/61 31/31/31 37/37/37
f 65/65/61 37/37/37 2/2/2
f 2/2/2 37/37/37 39/39/39
f 2/2/2 39/39/39 3/3/3
f 6/6/6 39/39/39 40/40/40
f 6/6/6 40/40/40 7/7/7
f 103/103/73 104/104/74 105/105/74
f 103/103/73 105/105/74 106/106/73
f 42/42/42 107/107/75 108/108/75
f 42/42/42 108/108/75 43/43/42
f 109/109/77 110/110/76 111/111/76
f 109/109/77 111/111/76 112/112/77
f 104/104/74 113/113/77 114/114/77
f 104/104/74 114/114/77 105/105/74
f 107/107/75 115/115/78 116/116/78
f 107/107/75 116/116/78 108/108/75
f 110/110/76 117/117/79 118/118/79
f 110/110/76 118/118/79 111/111/76
f 115/115/78 119/119/80 120/120/80
f 115/115/78 120/120/80 116/116/78
f 117/117/79 121/121/44 122/122/44
f 117/117/79 122/122/44 118/118/79
f 119/119/80 123/123/70 124/124/70
f 119/119/80 124/124/70 120/120/80
f 121/121/44 125/125/43 126/126/43
f 121/121/44 126/126/43 122/122/44
f 123/123/70 127/127/69 128/128/69
f 123/123/70 128/128/69 124/124/70
f 125/125/43 129/129/71 130/130/71
f 125/125/43 130/130/71 126/126/43
f 127/127/69 131/131/72 132/132/72
f 127/127/69 132/132/72 128/128/69
f 129/129/71 41/41/41 44/44/41
f 129/129/71 44/44/41 130/130/71
f 131/131/72 103/103/73 106/106/73
f 131/131/72 106/106/73 132/132/72
f 133/133/81 134/134/81 135/135/81
f 136/136/81 137/137/81 135/135/81
f 134/134/81 138/138/81 135/135/81
f 137/137/81 139/139/81 135/135/81
f 138/138/81 140/140/81 135/135/81
f 139/139/81 141/141/81 135/135/81
f 140/140/81 142/142/81 135/135/81
f 141/141/81 143/143/81 135/135/81
f 142/142/81 144/144/81 135/135/81
f 143/143/81 145/145/81 135/135/81
f 144/144/81 146/146/81 135/135/81
f 145/145/81 147/147/81 135/135/81
f 146/146/81 148/148/81 135/135/81
f 149/149/81 133/133/81 135/135/81
f 147/147/81 149/149/81 135/135/81
f 148/148/81 136/136/81 135/135/81
f 3/3/3 39/39/39 6/6/6
f 3/3/3 6/6/6 61/61/57
